{"glyphs":{"0":{"ha":694,"x_min":34,"x_max":660,"o":"m 654 665 q 660 517 660 601 q 659 421 660 492 q 648 277 657 351 q 630 177 641 228 q 608 94 618 127 q 537 -54 580 11 q 452 -141 494 -119 q 399 -152 429 -152 q 361 -148 381 -152 q 320 -136 338 -143 q 277 -117 302 -130 q 245 -100 264 -110 q 209 -82 226 -91 q 171 -61 184 -71 q 140 -31 158 -51 q 45 161 58 50 q 34 332 34 243 q 54 577 34 449 q 184 945 90 792 q 234 1005 205 975 q 281 1045 262 1035 q 317 1053 297 1053 q 383 1037 346 1053 q 400 1031 390 1034 q 421 1025 411 1027 q 449 1016 431 1023 q 484 1000 467 1009 q 521 980 507 989 q 549 956 534 971 q 600 891 581 925 q 633 800 618 857 q 646 743 642 770 q 654 665 650 715 m 64 240 q 64 254 64 246 q 64 267 64 261 l 63 271 l 63 267 q 62 254 62 264 q 63 239 62 243 l 63 237 l 64 240 m 67 197 q 68 208 68 202 q 67 217 68 212 l 66 219 q 66 208 66 219 q 66 196 66 196 l 67 197 m 71 165 q 71 172 71 168 q 71 180 71 176 l 70 182 q 69 174 69 182 q 70 164 69 164 l 71 165 m 85 406 q 85 410 85 408 q 85 415 85 413 l 84 416 q 83 410 83 416 q 84 405 83 405 l 85 406 m 88 454 q 90 457 90 455 q 89 461 90 459 q 87 463 88 463 q 86 459 87 463 q 87 454 86 456 l 87 454 q 88 454 88 454 m 85 592 q 90 629 88 614 q 92 645 92 644 q 87 628 91 645 q 80 585 84 612 q 72 528 76 557 q 58 343 58 420 l 58 329 l 59 280 l 62 348 q 65 414 62 377 q 70 478 67 451 q 77 537 73 505 q 85 592 81 570 m 97 656 q 99 665 98 661 q 100 673 100 669 q 99 676 100 676 q 97 671 98 676 q 95 662 96 667 q 94 654 94 658 q 95 651 94 651 q 97 656 96 651 m 102 682 q 104 685 104 684 q 103 689 104 687 q 102 690 102 690 q 101 687 101 690 l 101 683 l 102 682 l 102 682 m 110 707 q 111 710 111 708 q 110 714 111 712 l 109 715 q 108 712 109 715 q 109 708 108 709 q 109 707 109 707 l 110 707 m 128 313 q 129 328 129 320 q 128 344 129 336 l 127 347 q 127 344 127 347 q 127 328 127 341 l 127 311 q 127 310 127 310 l 128 313 m 132 406 q 132 411 132 408 q 132 416 132 414 l 131 418 q 130 412 130 418 q 131 406 130 406 l 132 406 m 135 449 q 136 454 136 450 q 135 459 136 456 l 134 460 q 133 455 134 460 q 134 448 133 448 l 135 449 m 138 483 q 139 486 139 484 q 138 490 139 488 l 138 491 q 136 488 137 491 q 137 483 136 484 l 138 483 m 142 511 q 143 514 142 512 q 142 518 143 516 l 141 519 q 140 516 140 519 q 140 512 140 513 l 141 511 l 142 511 m 453 104 q 496 229 479 165 q 524 378 512 292 q 530 496 528 416 q 530 576 530 536 q 529 674 530 616 q 524 765 528 733 q 488 897 509 852 q 469 927 481 911 q 446 957 457 944 q 429 972 435 970 l 427 972 q 415 971 422 972 q 396 967 408 970 q 394 966 395 966 q 361 957 372 961 q 344 943 351 952 q 328 915 338 935 q 328 913 328 914 q 193 398 210 689 q 191 333 191 367 q 201 172 191 258 q 227 41 209 87 q 286 -47 245 -5 q 308 -62 298 -62 l 313 -62 q 343 -44 319 -62 q 453 104 410 -1 m 519 222 q 521 225 521 223 q 520 229 521 227 q 519 231 519 231 q 518 227 518 231 l 518 223 l 519 222 l 519 222 m 524 237 q 524 239 524 237 q 524 243 524 241 q 522 245 523 245 q 522 241 522 245 l 522 237 q 523 237 522 237 l 524 237 m 527 254 q 528 258 528 256 q 527 261 528 259 l 526 263 q 525 259 526 263 q 526 255 525 256 q 526 254 526 254 l 527 254 m 530 274 q 531 279 531 276 q 530 283 531 281 l 530 284 q 529 279 529 284 q 530 273 529 273 l 530 274 m 534 292 q 535 296 535 294 q 534 301 535 299 l 534 302 q 532 296 532 302 q 534 291 532 291 l 534 292 m 538 313 q 538 318 538 315 q 538 322 538 320 l 537 323 q 536 318 536 323 q 537 313 536 313 l 538 313 m 541 334 q 542 340 542 336 q 541 345 542 342 l 541 347 q 540 341 540 347 q 541 334 540 334 q 541 334 541 334 m 545 361 q 546 368 546 364 q 545 374 546 371 l 545 375 q 543 368 543 375 q 545 360 543 360 l 545 361 m 547 733 l 547 729 l 547 728 l 548 728 q 549 732 549 730 q 549 736 549 734 q 547 737 548 737 q 547 733 547 737 m 549 392 q 549 400 549 395 q 549 410 549 406 l 548 412 q 547 401 547 412 q 548 390 547 390 l 549 392 m 551 701 q 551 690 551 701 q 551 679 551 679 l 552 680 q 553 689 553 684 q 552 699 553 694 l 551 701 m 552 436 q 553 450 553 442 q 552 465 553 458 l 551 468 q 551 452 551 468 q 551 433 551 433 l 552 436 m 556 534 l 556 609 l 555 618 q 555 572 555 618 q 555 526 555 526 l 556 534 z "},"1":{"ha":395,"x_min":34,"x_max":361,"o":"m 359 -117 q 361 -138 361 -130 q 361 -145 361 -140 q 358 -155 361 -150 q 347 -167 353 -165 q 341 -168 345 -168 q 326 -165 335 -168 q 299 -155 315 -162 q 256 -132 283 -147 q 242 -123 247 -125 q 233 -119 237 -120 q 221 -115 229 -117 q 212 -110 216 -113 q 206 -103 208 -106 q 197 -14 200 -87 q 194 124 194 47 q 194 195 194 139 q 198 337 194 252 q 201 461 199 370 q 203 660 203 553 l 206 911 l 181 888 q 113 843 137 848 q 109 842 111 842 q 95 845 103 842 q 67 858 87 848 q 43 870 53 865 q 34 878 34 876 q 38 883 34 879 q 49 891 43 886 q 101 941 68 905 q 164 1015 134 977 q 203 1072 194 1053 q 209 1084 205 1078 q 216 1090 213 1089 q 221 1093 219 1093 q 223 1093 222 1093 q 226 1087 224 1092 q 229 1082 228 1082 q 230 1085 230 1082 q 233 1090 230 1088 q 236 1091 235 1091 q 239 1090 237 1091 q 243 1086 241 1090 q 246 1083 243 1084 q 250 1082 248 1082 l 252 1082 q 259 1082 256 1082 q 264 1080 262 1081 q 272 1077 267 1078 q 282 1076 277 1076 q 293 1075 288 1076 q 300 1072 298 1074 q 306 1069 302 1071 q 311 1067 309 1068 q 326 1055 318 1066 q 336 1029 334 1044 q 344 981 341 1010 q 349 890 347 951 q 353 711 351 828 q 357 355 357 540 q 357 188 357 273 l 356 50 q 359 -117 356 -96 m 224 100 q 225 313 225 174 q 227 592 226 452 q 229 833 229 801 l 229 839 q 227 639 228 839 q 223 393 225 518 q 221 195 222 267 q 220 81 220 134 q 220 -8 220 46 q 224 -67 221 -63 q 224 -19 224 -67 q 224 100 224 29 m 229 -90 q 229 -85 229 -87 q 229 -79 229 -81 l 228 -77 q 227 -83 227 -77 q 228 -90 227 -90 l 229 -90 m 243 60 l 243 104 l 243 110 q 242 105 242 110 q 242 83 242 101 l 242 58 q 243 55 242 55 l 243 60 m 250 859 l 250 871 l 250 741 l 250 753 q 251 806 251 778 q 250 859 251 835 m 247 285 q 248 296 248 290 q 247 308 248 302 l 246 310 q 245 296 245 310 q 246 283 245 283 l 247 285 m 250 408 q 251 421 251 414 q 250 435 251 429 l 250 438 l 250 435 q 249 421 249 432 q 250 406 249 410 l 250 404 l 250 408 m 293 839 q 292 848 293 848 l 292 801 q 293 752 292 752 l 293 760 q 294 800 294 777 q 293 839 294 821 m 293 220 q 294 239 294 229 q 293 258 294 250 l 292 262 l 292 259 q 292 239 292 255 q 292 218 292 224 l 292 216 l 293 220 m 296 416 q 297 442 297 429 q 296 469 297 456 l 296 475 q 296 469 296 475 q 296 442 296 464 l 296 414 q 296 410 296 410 l 296 416 z "},"2":{"ha":692,"x_min":34,"x_max":658,"o":"m 634 -96 q 643 -100 637 -96 q 653 -111 649 -105 q 658 -121 657 -117 q 656 -128 658 -124 q 652 -134 654 -132 q 563 -149 641 -144 q 416 -153 500 -153 l 372 -153 q 294 -154 323 -153 q 245 -156 265 -154 q 203 -161 226 -157 l 199 -161 q 193 -161 197 -161 q 182 -159 188 -161 q 158 -150 174 -157 q 129 -137 142 -144 q 113 -127 115 -130 q 98 -120 111 -126 q 70 -106 85 -113 q 45 -96 55 -100 q 37 -91 41 -94 q 34 -86 34 -88 q 39 -78 34 -84 q 50 -64 43 -71 q 123 27 75 -39 q 214 157 172 93 q 256 226 231 184 q 303 308 281 268 q 334 368 325 347 q 372 458 351 404 q 404 543 393 511 q 425 614 411 564 q 451 715 438 665 q 469 787 465 766 q 473 842 473 808 q 473 878 473 850 q 466 939 473 905 q 450 992 459 970 q 433 1013 441 1013 q 415 1007 429 1013 q 385 991 401 1000 q 358 974 370 983 q 330 947 348 966 q 296 907 313 928 q 274 876 280 887 q 263 867 270 867 q 258 868 262 867 q 232 880 254 868 q 205 902 210 892 q 202 913 202 907 q 205 930 202 921 q 232 979 212 949 q 270 1025 252 1008 q 338 1065 300 1051 q 388 1075 366 1075 q 403 1074 396 1075 q 541 1013 503 1055 q 584 954 569 985 q 610 873 600 923 q 621 774 621 819 q 620 741 621 768 q 604 639 620 713 q 558 460 586 551 q 505 307 531 369 q 321 -9 430 144 q 292 -51 304 -34 q 280 -68 280 -68 q 313 -72 280 -72 q 394 -68 346 -72 q 500 -62 463 -62 q 541 -66 532 -62 q 570 -77 552 -72 q 602 -83 589 -82 q 613 -86 608 -84 q 622 -90 619 -88 q 628 -94 625 -93 q 634 -96 631 -96 m 560 761 l 559 762 q 558 756 558 762 q 559 751 558 751 q 560 752 559 751 q 561 756 561 753 q 560 761 561 759 m 500 842 q 500 869 500 869 q 496 824 498 869 q 496 802 496 810 q 496 792 496 792 q 498 795 497 792 q 499 815 498 802 q 500 842 500 829 m 496 898 q 495 899 496 899 q 494 893 494 899 q 495 886 494 886 q 496 887 496 886 q 497 892 497 889 q 496 898 497 895 m 492 775 l 492 776 q 491 770 491 776 q 492 765 491 765 l 492 766 q 493 770 493 768 q 492 775 493 773 m 484 744 q 481 730 482 736 q 480 723 480 725 l 480 720 q 482 723 481 720 q 485 733 483 726 q 488 747 487 741 q 490 756 490 753 l 490 757 q 488 754 489 757 q 484 744 487 751 m 478 712 q 475 704 477 712 q 470 684 473 696 q 464 663 467 673 q 462 650 462 653 q 463 648 462 648 q 472 681 464 648 q 477 703 475 694 q 478 711 478 709 l 478 712 m 458 641 l 458 636 l 460 636 q 461 639 461 637 q 460 643 461 641 q 459 644 460 644 q 458 641 458 644 m 455 627 l 455 622 l 456 622 q 458 625 458 623 q 457 629 458 627 q 456 630 456 630 q 455 627 455 630 m 451 612 q 452 608 451 609 l 452 607 q 453 608 453 607 q 454 610 454 608 q 454 614 454 612 q 452 616 453 616 q 451 612 452 616 m 444 587 l 444 583 q 446 583 445 583 l 446 583 q 447 585 447 583 q 446 589 447 587 q 445 591 446 591 q 444 587 444 591 z "},"3":{"ha":696,"x_min":34,"x_max":663,"o":"m 619 431 q 663 292 663 376 q 636 140 663 225 q 565 -3 612 66 q 463 -110 517 -73 q 314 -165 385 -165 q 278 -161 296 -165 q 248 -156 264 -159 q 222 -149 233 -153 q 167 -125 208 -144 q 87 -86 126 -106 q 39 -60 47 -66 q 35 -53 35 -57 q 34 -49 34 -51 q 35 -44 34 -47 q 39 -42 36 -42 q 43 -41 41 -42 q 47 -37 45 -39 q 58 -34 49 -34 q 67 -34 60 -34 q 87 -40 75 -35 q 105 -46 96 -43 q 122 -50 115 -49 q 128 -51 126 -51 q 131 -50 130 -51 l 133 -50 q 136 -50 134 -50 q 142 -52 138 -51 q 200 -70 176 -70 q 215 -69 202 -70 q 275 -44 227 -68 q 312 -24 300 -33 q 340 3 324 -15 q 409 86 385 50 q 450 163 434 122 q 490 340 490 262 q 489 357 490 349 q 466 435 486 429 l 465 435 q 419 425 451 435 q 361 402 388 415 q 340 392 348 395 q 327 389 333 389 q 313 391 321 389 q 296 396 306 393 q 279 403 287 399 q 266 411 273 407 q 254 416 258 414 q 247 421 250 418 q 242 425 243 423 q 239 427 241 427 q 233 428 236 428 q 229 429 231 428 q 227 432 227 431 q 224 434 227 433 q 220 435 222 435 q 213 437 217 435 q 207 443 210 439 q 201 448 203 446 q 197 448 199 448 l 195 448 q 186 451 192 448 q 175 457 181 453 q 170 462 170 460 q 176 470 170 463 q 191 486 182 477 q 275 578 231 526 q 344 667 319 631 q 400 756 371 707 q 438 825 429 806 q 456 901 452 861 q 457 930 457 917 q 453 968 457 951 q 434 996 447 991 q 422 998 429 998 q 392 993 410 998 q 279 928 331 977 q 241 899 248 899 q 222 905 237 899 q 195 918 208 911 q 179 928 182 925 q 177 939 177 933 q 199 982 177 954 q 260 1031 220 1009 q 338 1059 303 1055 q 357 1060 348 1060 q 415 1050 385 1060 q 467 1036 448 1042 q 496 1025 485 1030 q 518 1014 507 1020 q 561 982 541 1000 q 593 946 582 963 q 614 856 614 907 q 587 726 614 798 q 535 628 568 682 q 466 529 501 573 q 456 511 456 517 q 457 509 456 510 q 469 505 459 508 q 492 499 479 502 q 619 431 578 480 m 475 854 q 474 848 474 849 l 477 860 q 481 882 479 868 q 484 907 484 895 l 486 937 l 481 903 q 477 874 479 888 q 475 854 475 861 m 517 379 l 517 380 q 515 375 515 380 q 517 370 515 370 l 517 370 q 518 375 518 372 q 517 379 518 377 m 503 222 q 504 225 504 223 q 503 229 504 227 q 502 231 503 231 q 501 227 501 231 l 501 223 q 503 222 502 222 l 503 222 m 516 282 q 520 313 519 296 q 522 340 522 330 l 521 366 l 518 333 q 506 243 515 294 q 505 237 505 238 q 505 237 505 237 l 507 241 q 511 256 509 245 q 516 282 514 268 m 592 262 q 593 264 593 262 l 593 266 q 592 269 593 267 l 591 270 q 590 267 591 270 q 591 262 590 264 l 591 262 l 592 262 z "},"4":{"ha":745,"x_min":34,"x_max":711,"o":"m 704 338 q 711 328 711 334 q 704 313 711 321 q 694 305 699 307 q 680 303 690 303 q 661 303 673 303 q 640 301 650 302 l 616 299 l 613 94 q 612 47 613 68 q 611 -22 612 7 q 611 -72 611 -52 q 610 -106 610 -93 q 609 -127 610 -119 q 609 -138 609 -134 q 608 -144 608 -142 q 606 -146 607 -146 q 605 -149 606 -147 q 594 -156 601 -155 l 591 -156 q 585 -153 587 -156 q 582 -151 583 -151 q 578 -151 581 -151 q 576 -152 578 -152 q 569 -151 574 -152 q 559 -146 565 -149 q 554 -141 554 -143 q 553 -140 554 -140 l 553 -139 l 551 -140 l 550 -140 q 546 -139 549 -140 q 538 -135 543 -138 q 526 -127 533 -132 q 513 -121 519 -123 q 501 -115 506 -117 q 495 -110 496 -112 q 491 -107 494 -109 q 485 -106 488 -106 q 472 -101 478 -106 q 465 -88 465 -95 q 463 -80 465 -86 q 459 -67 461 -74 q 456 -53 457 -62 q 454 -25 454 -44 q 452 28 453 -6 q 452 119 452 63 l 450 289 l 429 287 q 392 283 418 286 q 337 276 366 280 q 251 266 280 269 q 208 262 221 262 q 184 264 193 262 q 144 278 166 269 q 109 298 123 288 q 99 304 103 302 q 92 307 94 307 q 86 310 91 307 q 75 316 81 312 q 63 322 69 319 q 54 325 58 325 q 40 330 45 326 q 34 342 34 335 q 37 353 34 345 q 44 370 40 361 q 56 395 49 379 q 71 425 64 410 q 89 460 78 439 q 109 498 99 481 q 126 533 117 514 q 139 564 135 551 q 154 604 144 576 q 176 662 165 631 q 217 770 195 709 q 283 960 239 831 q 307 1024 299 1005 q 321 1048 315 1044 q 329 1053 325 1051 q 333 1053 331 1053 l 334 1053 q 339 1052 336 1052 q 345 1051 342 1051 l 347 1052 q 350 1051 349 1052 q 353 1048 351 1050 q 357 1046 354 1047 q 363 1045 360 1045 q 370 1044 368 1045 q 372 1041 372 1042 q 374 1039 372 1040 l 378 1039 q 381 1039 380 1040 q 383 1038 383 1039 q 385 1036 383 1036 q 389 1038 386 1036 q 394 1041 392 1041 q 401 1036 397 1040 q 406 1031 403 1033 q 410 1030 408 1030 l 411 1030 q 416 1028 413 1030 q 422 1023 419 1027 q 427 1015 426 1019 q 429 1002 429 1010 q 428 974 429 992 q 377 718 422 876 q 274 431 332 559 q 255 390 262 406 q 248 373 248 374 l 253 373 q 285 374 260 373 q 349 377 310 374 q 418 381 388 379 q 451 384 448 383 q 453 402 452 385 q 454 444 454 418 q 459 581 454 490 q 470 751 464 671 q 479 855 475 831 q 485 871 481 863 q 491 882 488 878 q 498 887 496 887 q 501 882 499 888 q 503 879 503 879 q 504 880 504 879 q 507 884 505 882 q 510 884 509 884 q 513 884 511 884 q 515 882 515 884 q 536 877 515 878 q 538 875 537 876 q 540 873 540 874 q 541 871 540 871 q 544 872 542 871 q 546 873 545 873 q 554 871 549 873 q 565 866 559 869 q 574 859 572 863 q 584 823 579 854 q 595 717 589 791 q 611 460 611 534 q 612 427 611 444 q 614 399 612 410 q 621 374 614 380 q 649 366 628 368 q 662 363 655 366 q 672 359 669 361 q 681 355 676 357 q 688 353 686 353 q 696 348 696 353 q 699 343 696 346 q 704 338 701 340 m 478 -26 q 479 24 478 -22 q 480 136 479 71 q 481 195 481 169 q 480 242 481 222 q 479 280 480 280 q 477 228 478 274 q 477 118 477 182 l 477 13 q 478 -26 477 -26 m 481 -56 q 482 -50 482 -53 q 481 -43 482 -46 l 481 -42 q 480 -50 480 -42 q 481 -57 480 -57 l 481 -56 m 484 521 q 484 600 484 578 l 484 611 q 483 600 484 611 q 481 541 481 576 q 480 470 480 505 l 480 437 q 480 404 480 422 q 481 386 480 386 q 482 426 481 388 q 484 521 483 465 m 489 675 q 490 692 490 682 q 489 711 490 703 l 488 715 q 488 694 488 715 q 488 673 488 679 l 488 671 l 489 675 m 492 759 q 493 774 493 766 q 492 789 493 782 l 492 793 q 491 790 492 793 q 491 774 491 787 q 492 757 491 762 q 492 755 492 755 l 492 759 m 496 827 l 496 843 l 496 844 q 494 835 494 844 q 496 825 494 825 l 496 827 m 503 461 q 503 467 503 467 l 502 437 q 503 409 502 416 l 503 406 l 503 411 q 504 435 504 422 q 503 461 504 449 m 503 263 q 504 272 504 267 q 503 281 504 277 l 503 284 q 502 273 502 284 q 503 262 502 262 l 503 263 m 507 646 q 507 653 507 649 q 507 661 507 657 l 506 663 q 505 654 505 663 q 506 646 505 646 q 507 646 507 646 m 550 180 l 550 228 l 549 233 q 549 229 549 233 q 549 203 549 224 l 549 177 q 549 174 549 174 l 550 180 m 549 404 q 550 418 550 410 q 549 431 550 425 l 549 434 q 548 431 549 434 q 548 418 548 429 q 549 403 548 406 q 549 401 549 401 l 549 404 z "},"5":{"ha":696,"x_min":34,"x_max":663,"o":"m 657 345 q 663 260 663 296 q 659 208 663 229 q 608 68 648 146 q 523 -62 569 -9 q 479 -99 503 -84 q 418 -130 456 -115 q 340 -154 370 -149 q 317 -156 328 -156 q 277 -151 298 -156 q 248 -143 262 -148 q 214 -129 235 -139 q 155 -100 193 -119 q 74 -56 98 -72 q 41 -28 50 -41 q 34 -13 34 -19 q 41 -7 34 -7 q 44 -5 43 -7 q 47 -1 46 -3 q 50 2 48 1 q 52 3 51 3 q 53 2 52 3 q 59 0 55 1 q 70 -1 64 -1 q 80 -3 75 -2 q 86 -6 84 -5 q 92 -9 88 -8 q 98 -10 95 -10 q 104 -11 102 -10 q 106 -13 106 -12 q 110 -15 106 -14 q 120 -16 114 -16 q 154 -26 133 -17 q 190 -48 175 -36 q 202 -57 196 -54 q 213 -60 209 -60 q 241 -54 222 -60 q 280 -39 260 -47 q 311 -24 300 -31 q 394 59 359 3 q 481 254 458 155 q 486 336 486 270 l 486 355 q 484 429 486 406 q 478 473 483 452 q 416 619 456 572 q 405 629 410 627 q 389 631 399 631 q 299 608 357 631 q 182 549 241 585 q 161 537 168 540 q 153 536 158 536 q 144 537 149 536 q 129 542 138 538 q 112 549 119 545 q 95 559 104 554 q 79 567 85 564 q 68 573 73 570 q 62 578 63 576 q 58 581 61 580 q 52 582 55 581 l 49 582 q 39 585 42 582 q 37 598 37 587 q 37 609 37 600 q 40 652 37 618 q 54 766 45 711 q 75 890 62 821 q 93 978 86 950 q 107 1026 100 1006 q 112 1040 111 1036 q 113 1044 113 1042 q 112 1047 113 1046 q 109 1050 111 1048 q 104 1057 104 1054 q 104 1060 104 1058 q 115 1068 104 1063 q 122 1072 117 1070 q 136 1074 126 1073 q 163 1075 145 1074 q 211 1075 180 1075 q 287 1074 241 1074 l 353 1074 q 419 1075 384 1074 q 463 1077 455 1075 q 475 1078 470 1078 q 483 1076 481 1078 q 488 1074 485 1075 l 494 1074 q 500 1073 496 1074 q 509 1069 504 1072 q 520 1065 515 1067 q 530 1063 526 1063 q 536 1062 533 1063 q 540 1059 538 1061 q 547 1057 541 1058 q 561 1056 553 1056 q 577 1054 571 1056 q 586 1048 583 1053 q 592 1044 589 1046 q 599 1042 596 1042 q 609 1037 603 1042 q 618 1027 614 1032 q 623 1017 623 1021 q 622 1011 623 1015 q 618 1004 620 1008 q 612 998 615 1000 q 604 996 610 996 l 600 996 q 587 997 594 996 q 519 999 574 998 q 393 1000 465 1000 l 225 1002 l 223 993 q 220 967 222 987 q 214 920 217 947 q 206 861 210 893 q 199 808 202 829 q 192 761 195 786 q 187 718 189 735 q 184 696 185 704 l 184 689 q 184 683 184 686 q 185 680 184 680 q 187 679 186 679 l 188 679 q 201 684 191 680 q 226 692 212 688 q 300 706 265 706 q 340 701 321 706 q 367 694 349 699 q 402 685 385 690 q 622 496 562 647 q 657 345 649 434 m 59 611 q 60 614 60 612 q 59 618 60 616 q 58 619 58 619 q 57 616 57 619 l 57 612 q 58 611 58 611 l 59 611 m 62 629 q 63 635 63 631 q 62 643 63 640 l 62 645 q 61 637 61 645 q 62 628 61 628 q 62 629 62 628 m 66 661 q 67 671 67 665 q 66 682 67 677 l 66 685 q 65 673 65 685 q 66 659 65 659 l 66 661 m 70 702 q 71 710 71 705 q 70 718 71 714 l 69 720 q 68 710 68 720 q 69 701 68 701 l 70 702 m 73 732 q 74 739 74 735 q 73 747 74 743 l 73 749 q 72 740 72 749 q 73 731 72 731 l 73 732 m 77 761 q 77 767 77 764 q 77 773 77 770 l 76 774 q 75 767 75 774 q 76 760 75 760 l 77 761 m 80 784 q 81 789 81 786 l 81 791 l 81 794 q 79 796 80 796 q 79 790 79 796 q 79 783 79 783 l 80 784 m 84 809 q 85 813 85 811 q 84 818 85 816 l 83 819 q 82 813 82 819 q 83 808 82 808 q 84 809 83 808 m 87 830 q 88 835 88 832 q 87 839 88 837 q 86 840 87 840 q 85 835 85 840 q 87 829 85 829 l 87 830 m 91 848 q 92 852 92 850 q 91 857 92 855 l 90 858 q 90 852 90 858 q 90 847 90 847 l 91 848 m 94 869 q 96 874 96 871 q 94 878 96 876 l 94 879 q 93 874 93 879 q 94 869 93 869 l 94 869 m 98 887 q 99 892 99 889 q 98 896 99 894 q 97 897 98 897 q 96 892 96 897 q 98 886 96 886 l 98 887 m 102 909 q 102 913 102 911 q 102 918 102 916 l 101 918 q 100 913 100 918 q 101 908 100 908 l 102 909 m 105 926 q 106 931 106 928 q 105 937 106 935 l 104 939 q 104 932 104 939 q 104 926 104 926 l 105 926 m 109 949 q 110 952 109 951 q 109 956 110 954 q 108 958 109 958 q 106 954 107 958 q 107 950 106 951 l 108 949 l 109 949 m 512 441 l 511 443 q 510 435 510 443 q 511 428 510 428 l 512 429 q 513 435 513 432 q 512 441 513 439 m 516 274 q 519 332 519 296 q 517 398 519 366 l 516 404 q 514 350 515 404 q 513 293 514 319 q 510 257 512 267 q 504 224 505 229 l 504 223 q 507 231 505 223 q 512 250 509 238 q 516 274 515 262 m 540 271 q 541 275 541 273 q 540 279 541 277 l 539 280 q 538 275 538 280 q 539 270 538 270 l 540 271 m 590 230 q 591 233 591 231 q 590 237 591 235 l 589 238 q 588 234 589 238 q 589 230 588 231 q 589 229 589 229 l 590 230 z "},"6":{"ha":720,"x_min":34,"x_max":686,"o":"m 684 309 q 686 259 686 281 q 686 238 686 254 q 680 180 685 222 q 605 -52 661 42 q 551 -110 585 -82 q 481 -151 516 -137 q 410 -163 451 -161 q 392 -163 401 -163 q 335 -157 361 -163 q 282 -135 321 -154 q 201 -96 242 -117 q 143 -63 160 -75 q 43 136 75 -22 q 35 184 37 163 q 34 226 34 199 l 34 245 q 74 543 36 383 q 153 749 100 643 q 262 923 205 855 q 425 1047 352 1027 q 440 1050 435 1050 q 446 1051 444 1051 q 454 1050 450 1051 q 468 1047 458 1050 q 485 1042 477 1044 q 495 1040 493 1040 q 526 1019 526 1034 q 525 1014 526 1017 q 514 1001 524 1010 q 491 981 505 992 q 288 673 372 884 q 274 635 279 650 q 269 618 269 621 l 269 618 q 274 619 269 618 q 286 622 279 620 q 351 633 317 633 q 416 623 382 633 q 442 615 428 619 q 467 609 456 611 q 605 537 557 587 q 684 309 674 468 m 66 167 q 66 172 66 169 q 66 178 66 175 l 65 179 q 64 174 64 179 q 65 166 64 166 q 66 167 66 166 m 87 281 q 88 286 88 283 q 87 292 88 289 l 87 293 q 85 288 86 293 q 87 281 85 281 l 87 281 m 91 326 q 92 329 92 327 q 91 333 92 331 q 90 334 90 334 q 89 330 89 334 q 90 326 89 328 q 90 326 90 326 l 91 326 m 87 458 q 97 520 96 509 l 97 525 q 94 514 96 525 q 70 378 80 459 q 60 239 60 298 l 61 184 l 64 252 q 67 313 65 281 q 72 364 70 345 q 79 410 75 383 q 87 458 83 437 m 101 536 q 102 539 102 537 q 102 543 102 541 q 100 545 101 545 q 100 541 100 545 l 100 536 l 100 536 q 101 536 101 536 m 105 551 q 106 553 106 551 q 105 557 106 555 q 104 559 104 559 q 103 555 103 559 q 104 551 103 552 q 104 550 104 550 l 105 551 m 138 260 q 138 268 138 264 q 138 276 138 272 l 137 277 q 136 268 136 277 q 137 258 136 258 l 138 260 m 545 227 q 548 289 548 252 q 548 321 548 295 q 543 382 547 347 q 525 469 536 435 q 491 533 513 503 l 476 554 l 452 552 q 360 519 402 547 q 235 380 293 479 l 208 337 l 208 236 q 209 169 208 193 q 210 131 209 145 q 214 106 212 117 q 247 6 227 53 q 282 -60 266 -41 q 291 -68 288 -65 q 300 -71 295 -71 q 319 -70 307 -71 q 371 -57 345 -68 q 416 -34 399 -45 q 447 -4 433 -22 q 545 227 524 97 m 562 181 q 562 186 562 183 q 562 191 562 189 l 561 191 q 559 186 559 191 q 561 180 559 180 l 562 181 m 565 199 q 566 204 566 201 q 565 210 566 207 l 564 212 q 564 205 564 212 q 564 199 564 199 l 565 199 m 569 367 q 568 368 568 368 q 567 362 567 368 q 568 355 567 355 l 568 356 q 569 361 569 358 l 570 364 l 569 367 m 569 222 q 570 229 570 225 q 569 237 570 233 l 568 239 q 567 231 568 239 q 568 221 567 221 l 569 222 m 572 269 q 573 293 573 279 q 572 317 573 306 l 572 322 l 572 317 q 571 293 571 313 q 572 266 571 273 l 572 263 l 572 269 z "},"7":{"ha":716,"x_min":34,"x_max":682,"o":"m 672 1041 q 680 1029 677 1034 q 682 1021 682 1025 q 680 1006 682 1016 q 655 940 677 992 q 574 762 632 888 q 476 533 532 670 q 372 270 420 396 q 304 65 338 177 q 256 -116 271 -46 q 249 -150 252 -135 q 243 -169 245 -165 q 221 -189 233 -189 q 212 -185 216 -189 q 206 -183 210 -184 l 203 -182 l 200 -183 q 197 -184 199 -184 q 192 -182 195 -184 q 182 -177 188 -180 q 173 -171 178 -174 q 167 -168 169 -169 q 160 -165 165 -168 q 149 -159 155 -163 q 138 -152 143 -155 q 131 -149 133 -149 q 127 -148 129 -149 q 126 -146 126 -147 q 124 -143 126 -144 q 120 -142 123 -142 q 114 -140 117 -142 q 107 -136 110 -138 q 101 -131 104 -132 q 96 -130 99 -130 l 93 -130 q 87 -129 91 -130 q 78 -123 83 -127 q 70 -113 73 -119 q 66 -97 68 -107 l 66 -85 q 84 42 66 -43 q 133 218 102 127 q 262 535 173 332 q 441 920 351 739 q 469 978 458 954 q 482 1004 481 1002 l 482 1004 q 479 1005 482 1005 q 468 1004 475 1005 q 415 1002 460 1004 q 308 998 370 1000 q 215 997 250 997 q 179 997 203 997 q 138 1000 155 997 q 107 1012 121 1004 l 61 1035 q 42 1046 50 1041 q 34 1052 34 1050 q 37 1056 34 1053 q 46 1063 41 1059 q 55 1067 50 1065 q 73 1070 60 1069 q 109 1073 85 1072 q 174 1076 133 1074 q 279 1080 216 1078 q 357 1084 320 1082 q 412 1088 395 1086 q 452 1090 428 1089 q 497 1092 476 1092 q 529 1092 517 1093 q 546 1091 540 1092 q 555 1087 551 1090 q 573 1080 560 1084 q 599 1073 585 1076 q 621 1070 613 1070 q 630 1068 625 1070 q 639 1063 635 1066 q 647 1058 643 1060 q 654 1056 651 1056 q 662 1052 656 1056 q 672 1041 667 1047 m 125 -84 q 126 -81 126 -83 q 125 -77 126 -79 q 124 -76 125 -76 q 123 -79 123 -76 q 123 -83 123 -82 l 124 -84 l 125 -84 m 138 115 q 145 139 142 129 q 147 152 147 150 q 146 153 147 153 q 139 131 145 153 q 124 73 133 110 q 108 0 115 35 q 98 -52 100 -35 q 94 -96 95 -77 l 94 -104 q 96 -113 94 -113 q 98 -99 97 -112 q 102 -69 100 -87 q 138 115 109 1 z "},"8":{"ha":684,"x_min":34,"x_max":650,"o":"m 627 270 q 646 216 642 240 q 650 178 650 199 q 649 160 650 170 q 547 -64 638 32 q 347 -159 451 -159 q 299 -154 323 -159 q 247 -137 277 -149 q 194 -112 216 -125 q 168 -98 185 -107 q 133 -81 151 -90 q 52 -9 70 -52 q 34 88 34 30 q 39 166 34 109 q 83 323 44 222 q 132 428 102 371 q 191 526 162 484 q 203 546 198 537 q 208 555 208 554 q 203 562 208 557 q 190 573 197 567 q 119 640 150 604 q 77 705 88 676 q 68 751 68 727 q 126 902 68 817 q 199 985 155 944 q 286 1052 243 1026 q 331 1075 301 1061 q 391 1101 361 1088 q 433 1117 420 1113 q 448 1119 441 1119 q 454 1119 450 1119 q 473 1113 458 1118 q 541 1095 525 1095 q 574 1082 555 1094 q 605 1057 594 1071 q 623 1000 623 1034 q 623 981 623 999 q 602 896 623 963 q 589 849 595 871 q 572 789 583 827 q 543 684 562 752 q 519 600 534 650 q 491 509 504 550 q 474 461 477 467 q 487 445 474 459 q 519 410 500 431 q 627 270 601 328 m 486 1004 q 487 1000 486 1002 l 488 1000 l 488 1000 q 490 1002 490 1000 q 489 1006 490 1004 q 488 1008 488 1008 q 486 1004 487 1008 m 102 762 q 103 785 102 775 q 104 792 104 789 q 103 795 104 795 q 100 788 102 795 q 98 771 99 782 q 96 752 97 761 l 96 747 q 97 739 96 741 q 98 736 98 736 q 102 762 100 736 m 89 239 l 89 242 q 85 235 88 242 q 68 149 74 203 q 63 85 63 113 q 64 60 63 72 q 66 46 66 46 q 67 50 67 46 q 70 97 68 54 q 79 195 72 159 q 85 223 83 210 q 89 239 88 235 m 93 89 q 94 97 94 92 q 93 106 94 102 l 92 109 q 92 98 92 109 q 92 87 92 87 l 93 89 m 96 134 q 97 136 97 134 l 97 138 q 96 140 97 139 l 96 142 q 94 138 95 142 q 95 134 94 135 l 96 133 q 96 134 96 133 m 150 85 q 151 90 151 87 q 150 96 151 93 l 149 97 q 149 92 149 97 q 149 84 149 84 q 150 85 150 84 m 153 115 q 154 118 154 117 q 154 122 155 120 q 153 124 153 124 q 151 120 152 124 q 152 116 151 117 l 153 115 l 153 115 m 356 919 q 246 720 246 808 q 248 703 246 711 q 264 659 252 682 q 291 619 276 635 q 317 603 306 603 q 323 602 320 603 q 328 600 326 601 q 331 598 328 598 l 336 598 q 345 612 340 599 q 359 656 350 625 q 376 717 366 680 q 393 785 386 753 q 413 857 401 817 q 435 926 425 897 q 451 974 444 954 q 457 996 457 994 q 455 996 456 996 q 436 987 451 996 q 399 958 422 977 q 356 919 376 939 m 435 832 q 436 835 436 833 q 435 839 436 837 q 434 840 435 840 q 433 837 433 840 l 433 833 l 434 832 l 435 832 m 428 804 q 431 818 430 812 q 433 826 433 824 q 432 827 433 827 q 430 824 431 827 q 427 814 429 821 q 424 803 425 808 q 422 793 422 797 q 423 792 422 792 l 425 795 q 428 804 426 797 m 420 775 q 422 778 422 776 q 421 782 422 780 q 420 783 420 783 q 419 780 419 783 l 419 775 l 420 775 m 417 761 q 418 764 418 762 q 418 768 418 766 q 416 769 417 769 q 415 766 416 769 q 416 761 415 762 l 417 761 m 414 747 q 414 749 414 747 q 414 753 414 751 l 413 755 q 412 751 412 755 q 412 747 412 748 l 413 746 q 414 747 414 746 m 410 732 q 411 735 411 733 q 410 739 411 737 q 409 741 410 741 q 408 737 408 741 l 408 732 l 409 732 q 410 732 410 732 m 406 718 q 408 721 408 719 q 407 725 408 723 q 406 726 406 726 q 405 723 405 726 l 405 718 l 406 718 q 406 718 406 718 m 403 704 q 404 707 404 705 q 404 711 404 709 q 402 712 403 712 q 401 709 401 712 q 401 704 401 705 l 402 703 q 403 704 403 703 m 399 690 q 400 692 400 690 q 399 696 400 694 l 399 698 q 397 694 398 698 q 398 690 397 691 l 399 689 q 399 690 399 689 m 491 161 q 497 212 497 188 q 486 272 497 238 q 429 361 475 307 q 396 398 414 379 q 362 432 378 418 q 344 446 347 446 q 340 441 342 446 q 334 429 337 436 q 323 400 332 421 q 305 353 315 378 q 266 247 284 300 q 240 164 248 195 q 227 87 232 130 q 224 31 224 55 l 224 18 q 229 -17 225 0 q 237 -47 233 -35 q 245 -61 241 -60 l 249 -61 q 272 -58 256 -61 q 305 -47 288 -54 q 397 12 349 -31 q 491 161 475 79 m 524 198 l 525 227 l 522 203 q 519 183 521 194 q 517 164 517 172 q 516 155 516 157 l 516 153 q 519 159 517 153 q 522 175 520 164 q 524 198 523 186 m 589 158 q 589 165 589 161 q 589 172 589 169 l 588 174 q 587 166 587 174 q 588 157 587 157 q 589 158 589 157 z "},"9":{"ha":720,"x_min":34,"x_max":686,"o":"m 677 749 q 685 701 683 722 q 686 640 686 680 q 646 342 684 502 q 564 129 618 238 q 449 -47 509 20 q 279 -165 351 -156 l 275 -165 q 264 -165 271 -165 q 250 -161 257 -164 q 236 -158 243 -159 q 225 -155 229 -156 q 194 -134 194 -149 q 195 -128 194 -131 q 206 -116 196 -125 q 229 -96 216 -107 q 431 212 348 1 q 446 250 441 235 q 452 267 452 264 l 452 267 q 446 266 451 267 q 434 263 441 265 q 370 252 403 252 q 304 262 338 252 q 278 270 292 266 q 253 276 263 274 q 115 348 163 298 q 36 576 46 417 q 34 626 34 604 q 34 647 34 631 q 40 705 35 663 q 115 937 60 843 q 170 995 135 967 q 239 1036 204 1022 q 309 1048 269 1046 q 328 1048 319 1048 q 382 1043 357 1048 q 437 1021 397 1039 q 517 981 477 1002 q 577 948 558 960 q 677 749 646 907 m 149 568 q 150 592 150 579 q 149 616 150 606 l 149 622 l 149 617 q 148 592 148 612 q 149 566 148 572 l 149 563 l 149 568 m 153 516 q 153 522 153 518 q 153 527 153 524 l 152 528 q 151 523 151 528 q 152 515 151 515 q 153 516 153 515 m 153 646 q 153 653 153 649 q 153 661 153 657 l 152 663 q 151 654 151 663 q 152 646 151 646 q 153 646 153 646 m 156 673 q 157 678 157 675 l 157 682 l 157 684 q 155 686 156 686 q 155 680 155 686 q 155 673 155 673 l 156 673 m 160 694 q 161 699 161 696 q 160 704 161 702 l 159 705 q 158 699 158 705 q 159 694 158 694 l 160 694 m 512 649 q 512 716 512 692 q 510 754 511 740 q 506 779 509 768 q 472 882 492 833 q 436 947 452 930 q 428 954 431 951 q 418 956 424 956 q 400 955 412 956 q 329 933 364 951 q 273 889 294 916 q 176 659 196 788 q 172 596 172 633 q 172 564 172 590 q 177 503 172 538 q 195 416 184 450 q 229 352 207 382 l 244 331 l 268 333 q 291 337 279 334 q 313 342 304 339 q 358 365 333 349 q 404 399 384 380 q 486 505 444 435 l 512 548 l 512 649 m 584 609 q 585 617 585 613 q 584 625 585 621 l 583 627 q 583 617 583 627 q 583 608 583 608 l 584 609 m 654 718 q 654 711 654 718 q 654 705 654 705 q 655 705 655 705 q 656 710 656 707 q 655 716 656 713 l 654 718 m 633 604 q 632 597 633 604 q 633 591 632 591 l 634 591 q 635 596 635 593 q 634 602 635 600 l 633 604 m 628 555 q 629 551 628 552 l 629 550 q 630 551 630 550 q 631 553 631 551 q 631 557 631 555 q 629 559 630 559 q 628 555 629 559 m 616 326 q 617 329 616 327 q 616 333 617 331 q 615 334 616 334 q 614 330 614 334 q 614 326 614 328 l 615 326 l 616 326 m 619 340 q 621 343 621 341 q 620 347 621 345 q 618 349 619 349 q 618 345 618 349 l 618 340 l 618 340 l 619 340 m 640 444 q 659 631 659 553 l 659 701 l 656 633 q 649 534 654 581 q 633 427 644 486 q 623 365 625 376 l 623 360 l 626 371 q 633 400 629 380 q 640 444 637 421 z "}," ":{"ha":610,"x_min":0,"x_max":0,"o":""},"!":{"ha":295,"x_min":68,"x_max":261,"o":"m 212 35 q 216 40 212 40 q 220 38 216 40 q 231 26 224 37 q 246 -52 246 5 q 245 -83 246 -66 q 242 -120 244 -108 q 237 -138 240 -132 q 228 -148 232 -146 q 224 -149 227 -149 q 212 -146 220 -149 q 190 -136 206 -144 q 158 -121 174 -129 q 139 -109 142 -113 q 135 -107 138 -108 q 130 -106 132 -106 q 123 -103 127 -106 q 115 -97 119 -101 q 96 -5 96 -78 l 96 4 q 100 43 96 29 q 115 63 104 57 q 122 67 121 67 q 125 62 124 67 q 127 56 127 56 l 128 56 q 132 60 130 56 q 137 65 136 65 q 142 60 139 65 q 158 54 148 54 l 159 54 q 172 46 168 54 q 176 41 174 41 q 176 45 176 41 q 177 51 176 50 q 181 46 178 51 q 186 42 184 42 q 189 43 188 42 q 195 47 191 47 q 200 46 197 47 q 208 39 204 45 q 211 34 210 34 q 212 35 212 34 m 121 -41 q 122 -35 122 -39 q 122 -27 122 -31 q 121 -25 121 -25 q 120 -33 120 -25 q 121 -42 120 -42 q 121 -41 121 -42 m 120 -5 q 122 3 121 -3 q 123 18 123 10 q 121 34 122 34 q 118 10 120 34 l 118 -3 q 119 -6 119 -6 l 120 -5 m 125 -68 q 126 -63 126 -66 q 125 -59 126 -61 l 125 -58 q 123 -63 123 -58 q 125 -68 123 -68 l 125 -68 m 233 996 q 253 952 246 981 q 260 859 259 922 q 261 781 261 827 q 260 676 261 735 q 252 427 259 524 q 224 163 245 330 q 217 141 222 149 q 207 133 213 133 q 202 134 205 134 q 197 135 199 134 q 183 141 194 136 q 158 154 172 146 q 151 158 154 156 q 130 170 136 164 q 120 190 123 176 q 112 235 117 204 q 109 251 111 242 q 97 320 102 292 q 90 385 93 349 q 81 488 87 422 q 68 817 68 675 q 82 1004 68 958 q 119 1036 94 1036 q 125 1036 122 1036 q 136 1033 132 1035 q 140 1029 140 1031 q 151 1025 140 1025 l 153 1025 q 165 1021 163 1025 q 169 1017 168 1017 q 174 1020 171 1017 q 178 1023 177 1023 l 179 1021 q 180 1013 180 1021 l 180 1008 q 181 1004 180 1004 q 184 1009 182 1004 q 193 1019 187 1017 l 195 1019 q 204 1015 200 1019 q 210 1010 207 1012 q 214 1009 212 1009 l 216 1009 q 223 1006 218 1009 q 233 996 228 1002 m 128 915 l 128 911 q 127 892 127 907 q 128 871 127 877 l 128 869 l 129 873 q 130 892 130 882 q 129 911 130 902 l 128 915 m 115 393 q 114 438 115 401 q 111 523 113 475 q 102 792 102 684 q 105 897 102 852 q 108 961 106 934 q 111 994 110 988 q 111 1001 111 999 l 111 1002 q 109 996 111 1002 q 101 917 104 981 q 98 769 98 852 q 101 618 98 686 q 105 549 103 591 q 109 468 107 507 q 113 408 111 429 q 115 391 114 391 l 115 393 m 118 338 q 119 350 119 344 q 118 361 119 357 l 117 364 q 117 350 117 364 q 117 336 117 336 l 118 338 m 121 307 q 122 311 122 309 q 121 315 122 313 l 121 316 q 120 311 120 316 q 121 306 120 306 l 121 307 m 125 276 q 126 279 126 277 q 125 283 126 281 q 124 285 125 285 q 123 281 123 285 q 123 277 123 278 l 124 276 l 125 276 m 129 642 q 130 654 130 646 q 129 667 130 661 l 128 670 q 127 655 127 670 q 128 640 127 640 l 129 642 m 132 968 q 133 970 133 969 q 132 975 133 972 l 132 976 q 130 972 131 976 q 131 968 130 970 q 132 968 131 968 l 132 968 m 136 428 q 137 436 136 431 q 136 446 137 441 l 136 448 q 134 437 135 448 q 136 426 134 426 l 136 428 m 182 335 q 183 347 183 340 q 182 360 183 354 l 182 363 q 181 349 181 363 q 182 333 181 333 l 182 335 z "},"\"":{"ha":323,"x_min":20,"x_max":303,"o":"m 123 1019 q 127 1011 125 1016 q 130 998 129 1007 q 131 969 130 988 q 132 920 132 951 q 132 868 132 887 q 132 840 132 850 q 130 827 131 831 q 125 820 128 823 l 125 819 q 119 812 121 814 q 114 811 117 811 q 111 811 113 811 q 101 814 109 812 q 100 815 101 815 q 57 837 80 823 q 27 858 34 850 q 23 865 25 861 q 21 878 22 869 q 20 901 20 886 q 20 943 20 917 q 21 1004 20 983 q 26 1035 22 1025 q 36 1048 30 1044 q 41 1050 40 1050 q 43 1050 42 1050 q 43 1046 43 1050 q 45 1042 43 1042 q 47 1044 46 1042 q 54 1048 52 1048 q 58 1042 57 1048 q 58 1039 58 1039 q 60 1041 59 1039 q 64 1043 62 1043 q 73 1040 67 1043 q 80 1038 77 1038 q 83 1037 81 1037 q 84 1038 83 1037 l 85 1038 l 85 1036 q 86 1031 86 1034 l 86 1022 l 90 1030 q 96 1038 92 1038 q 103 1034 99 1038 q 107 1030 105 1031 q 112 1029 110 1029 q 117 1026 113 1029 q 123 1019 120 1023 m 39 911 q 39 942 39 924 q 39 972 39 959 q 38 978 39 978 l 37 940 l 38 904 q 39 911 39 904 m 42 1018 q 43 1021 43 1019 q 42 1025 43 1023 q 41 1026 41 1026 q 40 1023 40 1026 q 41 1018 40 1019 l 42 1018 m 302 918 q 303 845 303 866 q 300 823 302 825 q 296 819 298 820 q 293 818 295 818 q 290 818 292 818 q 281 821 288 819 q 266 828 276 823 q 244 838 255 833 q 229 847 234 844 q 224 850 227 848 q 218 852 221 851 q 208 858 212 852 q 204 884 205 864 l 204 942 q 207 1006 205 985 q 213 1034 208 1027 q 228 1041 218 1041 l 233 1042 q 237 1041 235 1042 q 239 1038 239 1040 q 241 1036 239 1037 q 246 1035 243 1035 q 252 1034 250 1035 q 254 1031 254 1033 q 256 1030 254 1030 l 269 1030 q 283 1026 275 1030 q 296 1014 292 1022 q 299 983 297 1010 q 302 918 300 956 m 220 911 q 221 935 221 921 q 220 960 221 949 q 220 966 220 966 l 219 937 l 220 905 q 220 911 220 905 m 224 1010 q 224 1013 224 1012 q 224 1017 224 1015 l 223 1019 q 222 1015 222 1019 q 222 1011 222 1013 q 223 1010 222 1010 l 224 1010 z "},"#":{"ha":671,"x_min":20,"x_max":650,"o":"m 638 94 l 650 81 l 638 60 l 562 58 l 486 56 l 469 -27 q 455 -89 461 -63 q 448 -121 450 -115 q 425 -139 439 -139 l 422 -139 q 410 -135 418 -138 q 393 -127 401 -132 q 374 -117 385 -123 q 355 -107 363 -111 q 340 -99 347 -103 q 332 -94 334 -96 q 331 -81 331 -91 q 331 -67 331 -77 q 334 -33 331 -56 q 340 12 336 -10 q 346 39 344 27 q 348 54 348 51 l 348 54 q 318 58 348 58 q 298 57 305 58 q 289 56 292 57 q 286 52 286 54 q 281 28 285 48 q 271 -20 277 7 q 260 -75 264 -56 q 252 -102 256 -93 q 241 -117 248 -111 q 227 -125 235 -125 q 221 -125 227 -125 q 191 -111 215 -124 q 174 -101 181 -105 q 165 -97 167 -97 q 162 -96 164 -96 q 159 -96 161 -96 q 155 -91 158 -96 q 150 -79 153 -86 q 146 -52 146 -69 q 146 -33 146 -47 q 155 24 146 -18 q 159 54 159 45 q 157 60 159 60 q 151 61 156 60 q 140 63 146 62 q 124 68 134 64 q 104 77 114 73 q 69 96 90 86 q 28 116 48 106 q 20 123 20 119 q 32 136 20 129 q 43 141 37 139 q 65 143 50 142 q 112 143 81 143 l 179 143 l 187 180 q 191 197 189 190 q 197 227 195 218 l 197 231 q 194 240 197 237 q 184 246 192 243 l 178 250 q 156 260 169 254 q 134 271 144 267 q 115 281 124 277 q 103 287 106 285 q 97 293 97 290 q 110 305 97 298 q 169 314 121 311 l 216 316 l 233 368 q 274 460 260 448 q 288 462 278 463 q 307 459 298 462 q 316 454 316 457 q 319 452 316 452 l 330 452 q 339 451 334 452 q 350 445 343 450 q 360 434 358 439 q 362 418 362 429 q 359 395 362 411 q 353 363 357 380 q 347 333 349 346 q 345 319 345 321 q 352 316 345 317 q 380 315 360 315 l 415 315 l 428 355 q 455 423 441 393 q 478 460 469 452 q 488 465 484 465 l 490 465 q 498 464 494 465 q 520 458 513 459 q 533 456 527 456 q 539 454 536 456 q 543 451 543 453 q 545 448 544 449 l 549 448 q 553 447 550 448 q 558 442 555 446 q 564 431 563 438 l 564 427 q 561 405 564 420 q 551 357 558 390 q 544 323 547 337 q 541 307 541 309 q 548 303 541 306 q 565 299 555 301 q 584 295 574 296 q 599 293 594 293 q 606 292 603 293 q 610 288 610 290 q 614 284 611 286 q 620 282 616 282 q 628 279 623 282 q 637 271 633 276 q 643 262 642 265 q 644 258 644 260 q 644 256 644 258 q 641 250 644 254 l 635 239 l 581 239 q 552 239 563 239 q 535 239 541 239 q 527 237 530 238 q 525 233 525 235 q 520 217 524 231 q 514 186 517 203 q 507 156 510 169 q 505 141 505 142 l 507 140 q 513 140 509 140 q 519 138 515 140 q 526 135 524 137 q 543 129 529 132 q 572 122 556 125 q 595 119 587 119 q 603 117 599 119 q 608 113 606 115 q 613 109 610 111 q 619 108 616 108 q 627 104 622 108 q 638 94 633 100 m 165 -64 q 165 -56 165 -61 q 165 -47 165 -51 l 164 -44 q 163 -54 163 -44 q 164 -66 163 -66 l 165 -64 m 168 -25 q 169 -20 169 -23 q 168 -14 169 -17 l 168 -13 q 167 -19 167 -13 q 168 -26 167 -26 l 168 -25 m 172 -2 q 173 1 173 -1 q 172 5 173 3 q 171 7 172 7 q 170 3 170 7 q 170 -1 170 0 l 171 -2 l 172 -2 m 175 16 q 176 19 176 17 q 176 23 176 21 q 174 24 175 24 q 174 21 174 24 l 174 16 l 174 16 q 175 16 175 16 m 179 37 q 180 40 180 39 q 179 44 180 42 q 178 45 178 45 q 177 42 177 45 q 178 38 177 39 q 178 37 178 37 l 179 37 m 208 173 q 208 176 208 174 q 208 180 208 178 l 207 181 q 205 178 206 181 q 206 174 205 175 q 207 173 206 173 l 208 173 m 211 191 q 212 194 212 192 l 212 195 q 211 197 212 196 l 210 199 q 209 195 210 199 q 210 191 209 193 l 210 191 l 211 191 m 214 209 q 216 212 216 210 q 215 216 216 214 q 214 217 214 217 q 213 213 213 217 l 213 209 l 214 208 q 214 209 214 208 m 350 -80 q 351 -74 351 -77 q 350 -68 351 -71 l 349 -66 q 349 -74 349 -66 q 349 -81 349 -81 l 350 -80 m 354 -52 q 355 -45 355 -49 q 354 -39 355 -42 l 353 -38 q 352 -45 352 -38 q 353 -53 352 -53 l 354 -52 m 357 -25 q 358 -20 358 -23 q 357 -16 358 -18 q 356 -15 357 -15 q 355 -20 355 -15 q 357 -26 355 -26 l 357 -25 m 361 -3 q 361 1 361 -1 q 361 5 361 3 l 360 6 q 359 1 359 6 q 359 -5 359 -5 q 361 -3 360 -5 m 364 14 q 365 18 365 16 q 364 23 365 21 l 363 24 q 363 18 363 24 q 363 14 363 14 l 364 14 m 368 34 q 369 37 369 35 q 368 41 369 39 q 367 42 368 42 q 366 39 366 42 l 366 35 l 367 34 l 368 34 m 378 186 q 387 217 384 203 q 391 232 390 230 q 384 236 391 235 l 378 236 q 359 235 371 236 q 335 234 345 235 q 325 232 326 233 q 321 218 323 231 q 314 186 318 205 l 306 143 l 336 144 l 367 145 l 378 186 z "},"$":{"ha":545,"x_min":20,"x_max":525,"o":"m 517 245 q 525 212 525 228 q 524 201 525 210 q 513 168 524 191 q 351 48 465 71 l 318 42 l 321 5 q 323 -41 322 -12 q 323 -98 323 -70 q 323 -140 323 -125 q 321 -162 322 -155 q 317 -172 319 -169 q 312 -178 315 -177 q 307 -180 310 -180 q 303 -180 306 -180 q 290 -178 300 -180 q 281 -174 286 -176 q 274 -169 276 -172 l 271 -165 q 269 -165 270 -165 q 268 -165 269 -165 l 267 -165 q 262 -164 265 -165 q 255 -160 260 -163 q 247 -155 251 -157 q 241 -153 242 -153 q 238 -152 239 -153 q 237 -149 237 -151 q 236 -146 237 -147 q 235 -146 236 -146 q 234 -146 235 -146 q 233 -147 233 -147 q 229 -146 231 -147 q 225 -142 227 -145 q 218 -104 219 -137 l 217 -73 l 216 -105 q 215 -131 216 -124 q 210 -138 214 -138 q 201 -133 204 -138 q 197 -108 197 -127 q 196 -50 196 -89 q 197 11 196 -18 q 198 50 197 39 l 201 71 l 135 104 q 77 136 94 125 q 50 158 60 146 q 20 222 20 191 q 21 231 20 227 q 34 255 23 241 q 60 279 45 269 q 74 286 65 283 q 90 288 83 288 q 100 286 98 288 q 104 283 100 284 q 111 282 107 282 q 117 281 114 282 q 119 279 119 281 q 122 277 119 278 l 134 277 q 143 273 142 277 q 145 271 144 271 l 151 271 q 154 269 152 271 q 159 265 157 268 q 163 258 163 262 l 163 256 q 161 248 163 253 q 159 236 160 242 l 159 225 q 168 203 161 218 q 181 175 174 189 q 193 155 188 161 q 198 150 195 151 q 202 149 200 149 q 207 150 203 149 q 218 152 210 150 q 303 198 271 167 q 332 260 332 227 l 332 264 q 169 440 331 334 q 102 486 125 469 q 68 515 79 503 q 50 543 58 528 q 31 617 31 580 q 52 695 31 656 q 169 820 96 781 l 189 831 l 190 914 q 193 1005 191 975 q 201 1045 195 1036 q 204 1050 203 1048 q 209 1053 206 1052 q 218 1053 212 1053 l 220 1053 q 232 1051 224 1053 q 245 1045 239 1048 q 251 1040 251 1042 q 252 1039 251 1039 q 254 1042 253 1039 q 257 1045 256 1045 q 258 1043 258 1045 q 260 1040 258 1041 l 264 1040 q 267 1041 265 1041 q 276 1039 270 1041 q 289 1032 281 1037 q 299 1023 296 1027 q 305 1007 303 1017 q 309 974 307 996 q 311 910 310 951 l 313 830 l 345 822 q 372 813 357 819 q 394 804 386 808 q 441 765 423 789 q 457 729 457 745 q 456 723 457 726 q 444 702 453 712 q 428 692 435 692 q 416 696 425 692 q 397 704 407 699 q 383 712 387 709 q 377 719 378 715 q 376 728 376 722 q 372 744 376 734 q 362 764 368 755 q 352 776 356 772 q 348 777 351 777 q 335 774 344 777 q 312 767 326 772 q 289 755 299 762 q 201 623 227 711 q 195 577 195 599 q 201 534 195 555 q 226 492 208 510 q 286 449 243 475 q 443 341 391 387 q 517 245 496 294 m 214 1027 l 214 1028 q 213 1021 213 1028 q 214 1013 213 1013 l 214 1014 q 215 1021 215 1017 q 214 1027 215 1024 m 210 962 q 210 916 210 962 q 210 867 210 867 l 211 875 q 212 913 212 892 q 211 954 212 935 l 210 962 m 63 644 q 64 655 64 652 l 64 657 q 62 654 63 657 q 59 642 61 651 q 57 624 58 633 l 56 614 q 57 610 56 610 q 59 615 58 610 q 63 644 60 621 m 49 231 q 50 239 50 237 q 50 241 50 241 q 47 239 49 241 q 45 233 46 237 q 44 224 44 229 q 45 215 44 215 q 49 231 47 215 m 214 -45 q 215 -35 215 -40 q 214 -25 215 -29 l 214 -23 q 213 -35 213 -23 q 214 -46 213 -46 l 214 -45 m 218 11 q 218 22 218 16 q 218 34 218 28 l 217 36 q 216 22 216 36 q 217 9 216 9 l 218 11 m 363 241 q 365 246 365 241 q 366 256 366 250 q 365 266 366 261 q 363 271 365 270 q 362 267 363 271 q 361 256 361 263 q 362 244 361 249 q 363 241 363 241 z "},"%":{"ha":897,"x_min":20,"x_max":877,"o":"m 678 1017 q 684 1002 684 1013 q 677 964 684 990 q 654 892 669 939 q 548 595 617 785 q 425 264 479 406 q 398 198 413 236 q 372 129 384 159 q 330 19 354 80 q 287 -90 307 -41 q 262 -150 268 -138 q 254 -162 258 -157 q 246 -170 250 -168 q 244 -171 245 -171 q 240 -173 242 -173 l 238 -173 q 235 -173 237 -173 q 227 -170 233 -172 q 224 -169 226 -170 q 208 -162 218 -167 q 189 -151 198 -157 q 172 -142 180 -146 q 163 -138 164 -138 q 151 -122 151 -138 q 152 -115 151 -119 q 188 -1 156 -93 q 264 210 220 91 q 289 277 277 243 q 309 330 302 311 q 362 474 321 368 q 452 710 402 581 q 527 898 488 804 q 577 1015 565 991 q 599 1039 587 1035 q 607 1040 602 1040 q 630 1034 616 1040 q 638 1031 634 1032 q 643 1030 642 1030 l 644 1030 l 644 1029 q 645 1027 645 1029 q 646 1025 645 1025 q 650 1027 648 1025 q 656 1029 652 1029 q 678 1017 664 1029 m 870 168 q 877 134 877 153 q 846 33 877 94 q 825 -5 834 8 q 798 -37 815 -19 q 706 -87 749 -87 l 698 -87 q 688 -86 694 -87 q 677 -85 682 -86 q 646 -71 667 -81 q 606 -50 625 -60 q 582 -34 587 -39 q 574 -23 578 -31 q 566 -8 570 -16 q 559 14 561 3 q 558 52 558 24 q 564 113 558 88 q 587 168 570 137 q 634 236 606 203 q 682 280 663 270 q 692 284 688 283 l 695 284 q 703 283 699 284 q 719 279 708 283 q 738 274 729 276 q 749 272 746 272 q 754 271 752 272 q 755 268 755 269 q 758 266 755 266 l 762 266 q 767 265 764 266 q 772 261 769 264 q 778 256 774 258 q 785 254 782 254 q 831 227 804 254 q 870 168 857 201 m 576 37 q 577 51 577 43 q 576 66 577 59 l 576 69 q 575 52 575 69 q 576 37 575 41 l 576 35 l 576 37 m 580 87 q 581 90 581 88 q 580 94 581 92 l 579 96 q 578 92 578 96 q 578 88 578 89 q 579 87 578 87 l 580 87 m 694 -7 q 759 67 733 23 q 786 153 785 112 q 779 194 786 178 q 760 211 771 211 q 752 209 755 211 q 743 197 748 206 q 727 171 737 189 q 679 58 688 107 q 675 26 676 43 q 674 5 674 15 q 674 -8 674 0 q 677 -17 674 -17 q 683 -14 678 -17 q 694 -7 688 -11 m 151 616 q 115 631 139 619 q 68 655 91 642 q 39 674 46 667 q 20 732 20 689 l 20 739 q 33 815 21 776 q 64 884 45 854 q 151 953 115 953 q 160 952 156 953 q 165 949 165 951 q 174 945 167 947 q 188 942 180 943 q 199 941 195 941 l 201 942 q 204 941 203 942 q 206 939 205 941 q 215 934 208 937 q 228 927 221 930 q 238 924 235 924 q 246 922 239 924 q 260 916 252 919 q 316 860 295 900 q 325 838 323 848 q 326 808 326 829 q 324 777 326 789 q 315 747 321 765 q 251 652 293 693 q 174 612 213 612 q 151 616 163 612 m 42 720 q 43 732 43 725 q 42 745 43 739 l 41 748 q 41 733 41 748 q 41 718 41 718 l 42 720 m 45 766 q 46 771 46 768 q 45 775 46 773 l 45 776 q 43 771 43 776 q 45 766 43 766 l 45 766 m 232 808 q 233 804 232 806 l 233 804 l 234 804 q 235 807 235 805 q 234 810 235 808 l 233 812 q 232 808 233 812 m 150 707 q 151 702 150 703 l 151 702 q 156 705 153 702 q 168 717 159 708 q 183 736 176 725 q 196 756 191 747 q 212 795 205 775 q 218 827 218 814 q 216 846 218 835 q 211 866 214 857 q 207 874 208 874 q 197 861 204 874 q 182 831 190 848 q 169 798 174 813 q 156 748 162 777 q 150 707 150 720 z "},"&":{"ha":923,"x_min":20,"x_max":903,"o":"m 889 143 q 903 106 903 128 q 899 81 903 94 q 818 -62 880 -5 q 780 -93 797 -82 q 736 -111 762 -103 q 687 -121 711 -121 q 654 -116 676 -121 q 567 -79 631 -112 l 498 -45 l 474 -71 q 403 -131 441 -106 q 331 -163 364 -155 q 305 -166 317 -166 q 295 -166 303 -166 q 267 -161 288 -166 q 218 -143 252 -158 q 150 -110 185 -127 q 97 -79 115 -92 q 26 21 41 -41 q 20 68 20 42 q 29 142 20 95 q 67 252 37 190 q 140 358 90 296 q 225 446 191 420 l 241 457 l 239 531 q 238 566 238 549 q 241 663 238 610 q 251 757 244 715 q 284 870 260 812 q 340 972 309 928 q 478 1063 405 1063 q 522 1055 500 1063 q 548 1047 534 1051 q 570 1042 562 1044 q 663 974 633 1031 q 668 960 667 967 q 670 941 670 954 q 671 903 671 928 q 670 862 671 876 q 667 838 670 849 q 658 810 664 827 q 622 723 644 772 q 582 644 600 674 q 519 553 559 607 q 456 474 479 498 l 432 450 l 587 451 q 672 451 640 451 q 720 451 704 451 q 743 449 736 450 q 752 446 749 448 q 762 441 756 443 q 770 439 767 439 q 777 438 774 439 q 781 436 781 437 q 789 433 783 435 q 804 431 795 431 q 821 427 814 429 q 830 423 828 425 q 836 419 831 420 q 844 418 840 418 q 854 412 854 418 q 857 408 854 410 q 862 403 859 405 q 869 393 869 399 q 861 378 869 387 l 854 368 l 777 367 l 700 366 l 695 339 q 652 205 684 279 q 613 126 637 171 q 574 60 589 81 q 566 47 569 54 q 562 40 562 41 q 571 23 562 37 q 590 -4 580 9 q 607 -24 601 -18 q 614 -29 611 -28 q 618 -31 616 -31 q 622 -30 619 -31 q 631 -28 624 -30 q 710 24 671 -17 q 772 122 758 72 q 793 158 779 146 q 816 171 806 171 q 825 168 821 171 q 829 165 826 166 q 836 165 832 165 q 844 159 844 165 q 845 155 844 155 q 846 156 846 155 q 856 159 850 159 q 869 157 860 159 q 889 143 878 154 m 61 143 q 64 162 63 155 q 65 170 65 168 l 65 171 q 61 159 64 171 q 55 128 58 146 q 50 93 52 110 q 48 67 48 80 l 48 47 q 50 41 49 41 q 53 74 52 41 q 56 112 54 92 q 61 143 58 132 m 126 46 q 127 51 127 48 q 126 57 127 54 l 125 58 q 125 52 125 58 q 125 45 125 45 q 126 46 126 45 m 562 888 l 562 903 q 560 905 561 905 q 559 896 559 905 q 561 886 559 886 l 562 888 m 560 960 q 559 954 559 960 q 560 947 559 947 l 561 948 q 562 953 562 950 q 561 959 562 956 l 560 960 m 557 875 q 556 876 557 876 q 555 871 555 876 q 557 865 555 865 l 557 866 q 558 871 558 868 q 557 875 558 873 m 552 851 l 552 847 l 553 846 l 553 846 q 555 850 555 848 q 554 853 555 852 q 553 855 553 855 q 552 851 552 855 m 355 695 q 353 696 354 696 q 353 690 353 696 q 353 684 353 684 q 354 684 354 684 q 355 689 355 686 q 355 695 355 692 m 350 659 q 349 650 349 659 q 350 640 349 640 l 351 642 q 351 650 351 645 q 351 658 351 654 l 350 659 m 347 568 l 347 572 l 347 569 q 346 553 346 566 q 347 536 346 541 l 347 535 l 347 538 q 348 553 348 545 q 347 568 348 562 m 301 711 l 300 712 q 299 707 299 712 q 300 701 299 701 l 301 702 q 302 707 302 704 q 301 711 302 709 m 295 823 q 293 816 294 819 q 292 810 292 812 q 292 808 292 808 q 295 812 293 808 q 297 819 296 815 q 298 824 298 822 q 297 827 298 827 q 295 823 296 827 m 298 652 q 298 661 298 656 q 298 668 298 665 q 296 669 297 669 q 296 661 296 669 q 297 651 296 651 l 298 652 m 294 554 q 294 561 294 557 q 294 568 294 565 l 293 570 q 292 562 292 570 q 293 553 292 553 q 294 554 294 553 m 270 678 q 267 573 267 631 l 267 551 q 269 486 267 509 q 271 471 270 477 l 271 465 l 272 493 l 272 563 q 286 772 273 707 q 291 798 290 791 l 291 801 q 290 803 291 803 l 290 802 q 283 778 287 799 q 276 730 279 758 q 270 678 272 703 m 393 46 l 393 47 q 390 55 393 50 q 382 68 388 60 q 347 134 369 87 q 304 231 324 181 q 290 266 296 252 q 283 281 283 281 q 275 271 281 281 q 261 248 269 262 q 245 218 253 233 q 196 31 202 130 q 195 9 195 18 q 196 -9 195 0 q 201 -34 197 -19 q 209 -54 205 -45 q 216 -68 214 -64 l 224 -77 l 242 -72 q 262 -64 250 -69 q 282 -54 273 -59 q 347 -4 313 -34 q 393 46 380 26 m 423 631 q 424 613 423 618 q 425 609 424 609 l 426 609 q 430 614 427 609 q 439 629 433 617 q 454 654 446 640 q 502 755 481 701 q 532 852 523 808 q 541 930 540 896 l 541 935 q 534 963 541 963 q 522 951 531 963 q 502 922 513 939 q 483 886 492 904 q 423 631 425 766 m 502 194 q 513 213 505 198 q 532 247 522 228 q 564 314 549 281 q 581 361 578 347 l 584 371 l 511 372 q 460 373 481 373 q 438 373 439 373 l 438 372 q 444 346 438 368 q 458 294 449 324 q 474 243 467 264 q 480 227 477 235 q 489 203 486 212 q 494 191 492 194 q 496 188 496 188 q 498 188 497 188 q 500 191 498 189 l 502 194 z "},"'":{"ha":159,"x_min":20,"x_max":139,"o":"m 138 886 q 139 823 139 847 q 138 794 139 810 q 132 773 138 777 q 125 771 130 771 q 112 774 120 771 q 97 781 108 776 q 75 793 86 786 q 53 804 62 799 q 42 809 44 808 q 37 810 39 809 q 34 812 35 811 q 21 960 24 826 q 20 1011 20 993 q 21 1038 20 1029 q 23 1050 21 1046 q 27 1056 24 1054 q 35 1062 33 1061 q 39 1058 37 1062 q 42 1054 41 1054 l 43 1054 q 45 1057 44 1054 q 48 1059 47 1059 q 53 1057 50 1059 q 58 1054 54 1055 q 65 1053 62 1053 q 71 1052 68 1053 q 73 1049 73 1050 q 77 1047 73 1047 l 90 1047 q 102 1044 99 1047 q 106 1040 104 1041 l 111 1040 q 118 1036 113 1040 q 127 1023 123 1031 q 134 1004 132 1014 q 136 962 135 996 q 138 886 138 928 m 39 1036 q 39 1029 39 1029 l 40 1030 q 41 1035 41 1032 q 40 1041 41 1038 l 39 1042 q 39 1036 39 1042 m 41 918 l 41 968 l 40 974 q 39 944 39 974 l 39 916 q 40 912 39 912 l 41 918 m 47 832 q 48 836 48 833 q 47 839 48 838 q 46 841 47 841 q 45 837 45 841 l 45 833 l 46 832 l 47 832 z "},"(":{"ha":372,"x_min":20,"x_max":351,"o":"m 315 -88 q 340 -114 332 -105 q 350 -127 349 -123 l 350 -129 q 348 -137 350 -133 q 338 -144 345 -144 l 334 -144 q 317 -142 328 -144 q 256 -112 296 -134 q 195 -72 217 -90 q 111 27 151 -34 q 52 144 71 88 q 37 216 45 170 q 23 304 28 263 q 20 378 20 332 q 22 446 20 397 q 28 540 23 494 q 83 743 43 642 q 109 798 91 763 q 146 868 127 833 q 177 921 165 903 q 217 969 192 942 q 258 1008 242 996 q 272 1015 267 1014 l 275 1015 q 286 1013 279 1015 q 297 1009 292 1011 q 305 1007 302 1008 q 310 1006 307 1006 l 313 1006 q 315 1005 315 1006 q 316 1002 316 1004 q 317 1000 316 1000 q 320 1002 318 1000 q 325 1004 322 1004 q 333 1002 328 1004 q 351 978 351 995 q 350 962 351 975 q 320 905 348 950 q 261 791 292 859 q 213 670 231 724 q 164 348 164 507 q 166 285 164 316 q 193 115 174 184 q 243 5 209 62 q 315 -88 277 -52 m 47 299 q 48 307 48 303 q 47 315 48 312 l 47 317 q 46 307 46 317 q 47 298 46 298 l 47 299 m 51 269 q 52 272 52 270 q 51 276 52 274 l 50 277 q 49 274 50 277 q 50 270 49 271 q 50 269 50 269 l 51 269 m 58 562 q 58 572 58 570 l 58 573 q 56 564 58 573 q 43 406 46 522 l 42 330 l 45 404 q 48 466 46 435 q 52 512 50 496 q 55 541 54 527 q 58 562 57 555 m 62 581 q 62 585 62 583 q 62 590 62 588 l 61 591 q 60 585 60 591 q 60 580 60 580 q 62 581 61 580 m 63 602 q 64 597 63 599 q 64 597 64 597 l 65 597 q 66 600 66 598 q 65 604 66 602 l 64 606 q 63 602 64 606 m 65 412 q 66 418 66 414 q 65 426 66 422 l 64 428 q 64 420 64 428 q 64 410 64 410 l 65 412 m 68 611 q 69 614 69 612 l 69 616 q 68 618 69 617 l 68 620 q 66 616 67 620 q 67 612 66 613 l 68 611 l 68 611 m 108 412 q 109 418 109 414 q 108 424 109 421 l 107 425 q 106 418 106 425 q 107 410 106 410 l 108 412 m 111 462 q 112 465 112 463 q 112 469 113 467 q 111 470 111 470 q 109 467 110 470 q 110 462 109 463 l 111 461 q 111 462 111 461 m 115 494 q 116 496 116 494 q 115 500 116 498 q 114 502 115 502 q 113 498 113 502 l 113 494 l 114 494 l 115 494 z "},")":{"ha":372,"x_min":20,"x_max":351,"o":"m 343 540 q 351 418 349 494 q 351 378 351 397 q 349 304 351 332 q 335 216 344 263 q 319 144 326 170 q 261 27 301 88 q 177 -72 221 -34 q 134 -101 161 -85 q 81 -129 107 -117 q 43 -144 56 -142 q 33 -144 37 -144 q 29 -144 32 -144 q 24 -137 26 -143 q 22 -130 22 -133 q 22 -125 22 -128 q 31 -114 22 -123 q 57 -88 39 -105 q 129 5 95 -52 q 178 115 163 62 q 205 285 197 184 q 208 348 208 316 q 159 670 208 507 q 110 791 141 724 q 52 905 79 859 q 20 972 24 950 l 20 977 q 38 1002 20 994 q 47 1004 43 1004 q 52 1002 50 1004 q 55 1000 54 1000 q 56 1002 56 1000 q 56 1005 56 1004 q 58 1006 57 1006 l 60 1006 q 62 1006 61 1006 q 66 1007 64 1006 q 74 1009 68 1008 q 86 1013 80 1011 q 97 1015 93 1015 q 102 1014 98 1015 q 113 1008 105 1014 q 155 969 130 996 q 195 921 180 942 q 225 868 206 903 q 263 798 245 833 q 289 743 281 763 q 343 540 328 642 m 258 494 q 258 496 258 494 q 258 500 258 498 q 256 502 257 502 q 256 498 256 502 l 256 494 q 257 494 256 494 l 258 494 m 261 462 q 262 465 262 463 q 261 469 262 467 l 260 470 q 259 467 260 470 q 260 462 259 463 l 260 461 q 261 462 261 461 m 265 412 q 266 418 266 414 q 265 424 266 421 l 264 425 q 263 418 263 425 q 264 410 263 410 l 265 412 m 304 611 q 304 614 304 612 q 304 618 304 616 l 303 620 q 302 616 302 620 q 302 612 302 613 l 303 611 l 304 611 m 305 602 q 306 597 305 599 l 307 597 l 307 597 q 309 600 309 598 q 308 604 309 602 q 307 606 307 606 q 305 602 306 606 m 308 412 q 309 418 309 414 q 308 426 309 422 l 307 428 q 306 420 307 428 q 307 410 306 410 l 308 412 m 311 581 q 312 585 312 583 q 311 590 312 588 l 311 591 q 309 585 309 591 q 310 580 309 580 q 311 581 311 580 m 321 269 q 323 272 323 270 q 322 276 323 274 q 321 277 321 277 q 319 274 320 277 q 320 270 319 271 l 321 269 l 321 269 m 326 299 q 326 307 326 303 q 326 315 326 312 l 325 317 q 324 307 324 317 q 325 298 324 298 l 326 299 m 330 366 q 329 409 330 382 q 327 462 328 436 q 320 541 323 508 q 313 574 316 574 l 313 571 q 314 563 313 569 q 315 546 314 557 q 323 468 319 518 q 328 374 326 417 l 328 330 l 330 366 z "},"*":{"ha":372,"x_min":20,"x_max":351,"o":"m 351 1055 q 326 1032 351 1048 q 293 1010 309 1022 q 267 988 277 998 q 256 975 256 978 q 264 951 256 967 q 285 922 273 935 q 296 902 296 909 q 283 892 296 894 q 258 901 277 892 q 218 920 238 909 q 190 938 197 931 l 182 945 l 165 919 q 135 886 148 890 q 129 886 132 886 q 97 897 117 886 q 81 905 87 901 q 74 909 75 909 q 73 910 73 909 q 92 963 73 917 q 102 987 98 977 q 107 1001 106 998 q 108 1003 108 1002 q 105 1008 108 1006 q 93 1018 103 1011 q 63 1036 83 1025 q 34 1054 43 1048 q 22 1064 24 1061 q 20 1067 20 1066 q 21 1069 20 1069 q 26 1073 22 1072 l 30 1074 l 34 1073 q 59 1067 43 1071 q 90 1058 75 1063 q 109 1050 104 1053 q 117 1048 114 1048 l 119 1048 q 121 1048 121 1048 q 127 1068 124 1053 q 132 1102 130 1084 q 134 1135 134 1120 q 136 1161 134 1153 q 140 1172 137 1169 q 146 1176 144 1176 q 151 1172 148 1176 q 155 1168 153 1168 q 157 1171 156 1168 q 159 1174 157 1173 q 163 1171 160 1174 q 168 1168 165 1169 q 174 1166 172 1166 q 179 1165 176 1166 q 184 1160 182 1163 q 186 1157 185 1158 l 187 1157 l 188 1158 q 193 1162 188 1160 l 199 1162 q 205 1161 201 1162 q 212 1158 210 1160 q 214 1155 212 1156 q 216 1154 215 1154 l 218 1154 q 220 1155 219 1155 q 237 1103 232 1155 l 239 1067 l 257 1078 q 274 1086 269 1086 q 276 1085 275 1086 q 278 1083 277 1084 l 281 1083 q 284 1083 282 1084 q 289 1081 287 1083 q 297 1078 291 1080 q 311 1075 304 1076 q 338 1067 327 1073 q 351 1055 349 1061 z "},"+":{"ha":524,"x_min":20,"x_max":504,"o":"m 499 254 q 504 245 503 249 q 502 237 504 242 q 497 231 500 234 q 494 229 495 229 q 464 227 486 228 q 395 226 442 227 l 327 225 l 329 133 q 330 83 330 102 q 330 54 330 64 q 329 39 330 44 q 326 31 328 34 q 315 22 321 24 l 313 22 q 307 26 309 22 q 304 28 306 27 l 303 28 l 302 28 q 300 27 302 27 q 251 50 294 27 q 240 56 245 53 q 233 60 235 59 q 227 64 231 62 q 219 66 223 65 q 208 77 210 68 q 201 121 205 90 q 196 183 198 152 l 194 224 l 151 226 l 106 227 l 63 249 q 33 265 45 258 q 20 274 20 272 l 20 275 q 28 281 20 279 q 56 286 35 284 q 115 287 77 287 l 193 288 l 196 372 q 198 429 197 408 q 200 461 199 450 q 203 476 201 472 q 209 482 205 481 q 214 484 212 484 q 216 481 216 484 q 218 479 216 479 q 221 481 219 479 q 226 484 223 484 q 233 480 229 484 q 239 477 235 478 q 245 475 243 475 q 250 473 248 475 q 252 469 252 471 q 253 465 252 465 q 254 466 254 465 q 265 470 258 470 q 271 470 266 470 q 285 465 276 469 q 300 452 294 460 q 308 426 303 447 q 316 377 312 405 q 322 326 320 350 l 325 292 l 371 290 q 404 287 390 288 q 419 283 417 286 q 428 280 420 282 q 446 275 435 277 q 465 271 456 273 q 477 266 474 268 q 483 262 479 264 q 488 261 486 261 q 493 259 490 261 q 499 254 496 256 m 219 431 l 218 441 q 218 391 218 441 q 218 341 218 341 l 219 349 l 219 431 m 219 180 l 219 212 l 218 215 q 218 195 218 215 l 218 178 q 218 176 218 176 l 219 180 m 222 126 q 223 133 223 129 q 222 140 223 137 l 222 142 q 220 134 221 142 q 222 125 220 125 l 222 126 m 226 89 q 227 94 227 91 q 226 100 227 97 l 225 101 q 224 96 224 101 q 225 88 224 88 l 226 89 z "},",":{"ha":191,"x_min":20,"x_max":170,"o":"m 152 -74 q 169 -127 165 -97 q 170 -145 170 -136 q 164 -179 170 -164 q 132 -216 153 -203 q 104 -223 119 -223 q 87 -220 96 -223 q 75 -215 85 -220 q 52 -204 64 -210 q 20 -182 20 -189 q 21 -178 20 -180 q 23 -176 22 -176 q 75 -109 75 -170 q 73 -82 75 -97 q 69 -54 71 -63 l 69 -49 q 70 -41 69 -44 q 75 -38 71 -39 l 77 -38 q 84 -39 79 -38 q 93 -43 88 -40 q 104 -46 98 -45 q 113 -48 110 -48 q 134 -56 122 -48 q 152 -74 145 -64 z "},"-":{"ha":413,"x_min":20,"x_max":393,"o":"m 345 284 q 389 265 376 279 q 393 256 393 260 q 381 243 393 248 q 334 241 375 241 q 239 240 292 240 q 144 241 186 240 q 95 243 102 241 q 76 251 88 245 q 51 264 64 257 q 29 277 38 271 q 20 285 20 283 q 32 292 20 289 q 76 296 44 294 q 169 298 109 297 q 238 299 212 299 q 261 300 252 300 q 281 299 271 300 q 299 297 292 298 q 311 294 306 296 q 328 288 319 291 q 345 284 338 286 z "},".":{"ha":145,"x_min":20,"x_max":125,"o":"m 124 -90 q 125 -110 125 -101 q 122 -136 125 -127 q 111 -144 119 -144 q 104 -143 108 -144 q 86 -136 100 -142 q 57 -122 73 -130 l 20 -104 l 20 -80 q 26 -48 20 -56 q 35 -41 32 -41 q 39 -46 38 -41 q 39 -51 39 -51 q 42 -46 40 -51 q 47 -42 45 -42 q 54 -46 49 -42 q 62 -49 58 -48 q 64 -50 64 -50 q 66 -49 66 -50 l 68 -49 q 71 -50 69 -49 q 73 -53 72 -50 q 75 -56 74 -56 q 78 -54 77 -56 q 80 -52 79 -52 q 81 -53 81 -52 q 83 -56 81 -55 l 90 -56 q 94 -55 93 -55 q 101 -59 100 -55 q 104 -62 102 -62 q 106 -63 105 -63 l 108 -63 q 110 -62 109 -62 q 119 -70 114 -62 q 124 -90 123 -77 z "},"/":{"ha":574,"x_min":20,"x_max":553,"o":"m 548 1017 q 553 1002 553 1013 q 546 964 553 990 q 524 892 539 939 q 417 595 487 785 q 294 264 348 406 q 268 198 283 236 q 242 129 254 159 q 200 19 224 80 q 157 -90 176 -41 q 131 -150 137 -138 q 123 -162 127 -157 q 116 -170 119 -168 q 114 -171 115 -171 q 109 -173 111 -173 l 108 -173 q 104 -173 106 -173 q 97 -170 102 -172 l 93 -169 q 77 -162 87 -167 q 58 -151 67 -157 q 41 -142 49 -146 q 32 -138 34 -138 q 20 -122 20 -138 q 21 -115 20 -119 q 57 -1 26 -93 q 133 210 89 91 q 158 277 146 243 q 178 330 171 311 q 231 474 191 368 q 321 710 271 581 q 396 898 357 804 q 446 1015 434 991 q 468 1039 456 1035 q 476 1040 471 1040 q 499 1034 486 1040 q 507 1031 504 1032 q 512 1030 511 1030 l 513 1030 q 514 1029 513 1030 q 515 1027 515 1029 q 515 1025 515 1025 q 519 1027 517 1025 q 525 1029 522 1029 q 548 1017 533 1029 z "},":":{"ha":170,"x_min":20,"x_max":150,"o":"m 143 100 q 144 71 144 81 l 144 64 q 143 53 144 58 q 140 45 142 49 q 129 37 135 38 l 127 37 q 109 41 121 37 q 94 48 103 43 q 78 56 85 52 q 64 64 71 61 q 55 69 58 68 q 50 72 52 71 q 48 75 48 74 q 46 77 48 77 q 41 77 45 77 l 39 77 q 22 117 26 77 q 20 142 20 130 q 22 168 20 153 q 31 191 24 183 q 38 195 36 195 l 39 195 q 43 191 41 195 q 47 187 47 187 q 48 189 48 187 q 52 193 49 191 q 54 193 53 193 q 57 193 56 193 q 59 190 59 193 q 62 188 59 189 q 68 186 64 186 q 75 184 71 186 q 80 180 79 182 q 83 176 82 176 q 84 178 84 176 q 90 181 85 180 l 93 181 q 102 180 97 181 q 111 176 108 178 q 115 172 112 173 q 121 170 119 170 q 143 100 140 170 m 40 128 q 41 136 41 132 q 40 144 41 140 l 39 146 q 39 136 39 146 q 39 127 39 127 l 40 128 m 43 168 q 45 172 45 170 q 43 176 45 174 l 43 177 q 42 172 42 177 q 43 167 42 167 l 43 168 m 141 403 q 147 393 145 398 q 150 379 149 388 q 150 353 150 370 q 140 299 150 311 q 127 294 135 294 q 104 300 117 294 q 73 314 90 306 q 43 330 56 323 q 28 340 31 338 q 22 386 23 347 l 22 402 q 22 416 22 409 q 24 426 22 422 q 31 433 26 429 q 38 437 35 437 q 43 435 41 437 q 47 433 46 433 q 48 435 48 433 q 52 437 48 437 q 60 435 56 437 q 66 431 64 433 q 71 428 68 429 q 74 427 73 427 q 77 428 76 427 l 80 428 q 83 427 82 428 q 84 421 84 426 q 85 415 84 415 q 90 420 85 415 q 93 424 92 422 l 94 424 q 95 423 94 424 q 98 420 95 421 l 105 420 l 109 421 q 114 420 111 421 q 118 418 117 420 q 121 415 119 416 q 126 414 124 414 q 133 411 129 414 q 141 403 138 408 m 44 369 q 45 386 45 376 q 44 403 45 395 l 43 407 q 43 404 43 407 q 43 386 43 400 l 43 367 q 43 365 43 365 l 44 369 z "},";":{"ha":208,"x_min":20,"x_max":187,"o":"m 184 110 q 186 90 185 102 q 187 77 187 84 q 186 64 187 71 q 156 -14 186 17 q 119 -33 140 -33 q 113 -32 116 -33 q 81 -21 102 -31 q 41 0 60 -11 q 20 16 22 12 l 20 18 q 23 25 20 20 q 30 35 25 30 q 51 68 45 51 q 59 121 57 86 q 63 158 61 147 q 68 171 65 169 q 74 173 72 174 q 79 169 76 173 q 83 165 82 165 q 83 170 83 165 q 85 175 83 174 q 90 171 86 175 q 96 168 93 168 q 98 167 97 167 q 99 168 99 167 q 100 168 100 168 q 102 165 102 168 q 103 163 102 164 l 106 163 q 109 164 108 164 q 111 164 110 164 q 114 162 113 163 q 119 160 115 160 l 132 160 q 144 156 140 160 q 149 153 146 154 l 153 153 q 161 146 155 153 q 174 129 168 139 q 184 110 181 118 m 79 82 q 80 87 79 84 q 79 92 80 90 q 78 94 79 94 q 77 88 77 94 q 78 81 77 81 l 79 82 m 83 125 q 83 133 83 128 q 83 141 83 137 l 82 142 q 81 133 81 142 q 82 123 81 123 l 83 125 m 170 346 l 170 330 q 165 289 170 298 q 153 282 162 282 q 137 286 146 282 q 123 292 133 287 q 103 302 114 296 q 84 313 91 309 q 71 319 77 316 q 58 326 66 321 q 48 334 51 328 q 45 353 45 340 q 47 390 45 366 q 55 436 50 425 q 71 445 60 445 l 75 445 q 85 443 80 444 q 92 439 90 441 q 97 437 95 437 l 102 437 l 103 438 q 105 437 104 438 q 107 435 106 437 q 117 431 109 431 l 125 431 q 146 425 136 431 q 163 406 157 418 q 169 387 167 399 q 170 346 170 374 m 68 358 q 69 378 69 368 q 68 399 69 390 l 68 404 l 68 399 q 67 378 67 395 q 68 356 67 361 l 68 353 l 68 358 z "},"<":{"ha":606,"x_min":20,"x_max":586,"o":"m 568 90 q 574 86 570 90 q 582 78 578 83 q 586 72 585 74 q 584 68 586 71 q 578 62 582 65 q 570 57 575 58 q 555 55 566 55 q 527 57 546 55 q 351 79 448 64 q 205 106 255 94 q 157 122 180 113 q 99 149 133 132 q 60 168 75 161 q 39 180 46 176 q 28 188 32 184 q 23 196 25 192 q 20 204 20 200 q 24 213 20 208 q 43 233 27 218 q 128 292 71 258 q 252 357 185 326 q 300 379 272 366 q 351 402 328 392 q 394 421 373 412 q 425 434 414 431 q 460 442 442 441 q 471 443 467 443 q 484 440 480 443 q 494 435 486 438 q 509 431 502 433 q 517 431 514 431 l 519 431 l 522 431 q 525 430 523 431 q 529 427 527 429 q 533 423 530 425 q 538 421 536 421 q 542 419 539 421 q 548 414 545 418 q 552 406 552 410 q 550 400 552 404 q 537 385 549 396 q 483 349 526 375 q 385 294 440 323 q 229 207 289 243 q 169 164 169 171 q 222 150 169 161 q 343 130 276 140 q 459 115 411 119 q 515 106 486 113 q 558 93 545 100 q 564 91 561 92 q 568 90 567 90 z "},"=":{"ha":566,"x_min":20,"x_max":546,"o":"m 541 152 q 546 143 545 146 l 546 142 q 543 134 546 138 q 538 127 541 130 q 531 124 534 125 q 470 122 526 123 q 332 121 413 121 q 212 120 257 120 q 160 120 190 120 q 125 123 131 121 q 110 130 119 125 q 94 138 101 134 q 63 154 81 146 q 31 168 45 163 q 20 175 20 172 l 20 176 q 28 186 20 179 l 30 187 q 35 191 32 189 q 43 193 37 192 q 62 194 50 193 q 97 194 75 194 q 153 194 119 195 q 235 194 186 194 l 262 194 l 433 193 l 458 184 q 480 177 469 180 q 499 173 492 174 q 511 170 506 172 q 519 166 517 168 q 524 163 521 164 q 529 161 526 161 q 535 158 531 161 q 541 152 538 156 m 503 322 l 511 312 l 496 293 l 319 294 q 190 295 244 294 q 126 297 135 296 q 104 305 119 298 q 71 320 88 311 q 40 335 53 328 q 26 344 27 342 q 29 348 26 345 q 36 353 32 350 q 281 364 48 364 q 352 364 327 364 q 389 362 377 363 q 406 359 401 361 q 424 353 412 356 q 448 347 436 350 q 469 341 460 345 q 480 336 478 338 q 485 334 482 335 q 490 332 488 332 q 496 329 492 332 q 503 322 500 326 z "},">":{"ha":606,"x_min":20,"x_max":586,"o":"m 563 233 q 584 211 580 218 q 586 204 586 208 q 583 196 586 200 q 578 188 581 192 q 567 180 574 184 q 546 168 560 176 q 507 149 532 161 q 450 123 473 132 q 401 106 426 113 q 248 77 347 92 q 68 56 149 62 q 45 55 53 55 q 35 56 39 55 q 28 62 31 58 q 23 68 25 65 q 20 72 21 71 q 24 78 21 74 q 32 86 28 83 q 38 90 36 90 q 43 91 40 90 q 48 93 45 92 q 92 106 62 100 q 147 115 121 113 q 263 130 195 119 q 384 150 330 140 q 437 164 437 161 q 377 207 437 171 q 221 294 317 243 q 123 349 166 323 q 69 385 81 375 q 55 402 58 396 q 54 406 54 404 q 58 414 54 410 q 64 419 61 418 q 68 421 67 421 q 73 423 71 421 q 78 427 76 425 q 82 431 80 429 l 85 431 l 87 431 l 89 431 q 99 432 92 431 q 113 435 105 433 q 123 440 120 438 q 135 443 126 443 q 152 442 140 443 q 182 434 164 441 q 213 421 192 431 q 256 402 234 412 q 306 379 278 392 q 355 357 334 366 q 478 292 421 326 q 563 233 536 258 z "},"?":{"ha":549,"x_min":54,"x_max":549,"o":"m 282 9 q 289 -3 286 4 q 293 -25 291 -9 q 296 -71 294 -40 q 298 -102 298 -91 l 298 -109 q 297 -120 298 -115 q 294 -128 296 -125 q 285 -137 290 -136 q 281 -138 283 -138 q 270 -136 277 -138 q 251 -130 259 -134 q 243 -123 243 -126 q 242 -122 243 -122 q 240 -122 241 -121 l 239 -122 q 233 -120 237 -122 q 224 -115 229 -119 q 214 -109 218 -111 q 208 -106 210 -106 q 203 -104 207 -106 q 193 -98 199 -102 q 182 -93 188 -95 q 174 -90 177 -90 q 150 -56 156 -87 q 149 -39 149 -48 q 151 -7 149 -27 q 159 25 153 13 q 168 37 162 31 q 179 45 174 42 q 183 46 182 46 q 185 45 184 46 q 188 43 186 43 l 195 43 q 201 42 198 43 q 207 39 204 41 q 213 35 210 36 q 217 35 215 35 l 219 35 q 221 35 220 35 q 227 31 224 35 q 229 26 228 26 l 230 26 q 233 29 231 26 q 235 33 234 33 q 236 28 236 33 q 237 24 236 24 l 238 24 q 243 26 239 24 q 250 28 245 28 q 264 24 254 28 q 282 9 273 20 m 176 -22 q 177 -9 177 -15 q 176 0 177 -3 q 176 4 176 4 l 175 3 q 174 -12 174 -2 q 172 -33 173 -22 l 172 -52 q 173 -60 172 -60 q 174 -48 174 -58 q 176 -22 175 -37 m 238 -14 q 239 -10 239 -12 q 238 -5 239 -7 l 237 -5 q 237 -10 237 -5 q 237 -15 237 -15 l 238 -14 m 497 1000 q 549 846 549 943 q 512 651 549 763 q 474 551 495 599 q 410 414 454 503 q 352 287 368 328 q 330 216 336 247 q 318 179 326 193 q 302 165 310 165 q 293 166 298 165 q 282 168 288 167 q 257 179 277 170 q 215 199 238 188 q 173 221 191 211 q 151 235 155 231 q 145 259 145 241 q 146 284 145 265 q 157 333 148 302 q 200 441 173 377 q 244 540 227 505 q 365 826 312 668 q 377 869 374 852 q 381 911 380 885 l 381 929 q 370 1001 381 983 q 366 1004 368 1004 q 362 1005 364 1005 q 355 1004 360 1005 q 338 1000 351 1003 q 197 911 259 978 q 134 808 151 863 q 120 779 127 782 q 116 779 119 779 q 90 789 108 779 q 57 822 63 802 q 54 842 54 831 q 60 883 54 859 q 79 936 65 912 q 118 985 92 959 q 295 1075 206 1072 q 349 1067 323 1075 q 375 1060 360 1064 q 401 1053 390 1055 q 497 1000 462 1036 m 184 306 q 185 315 185 313 l 185 316 q 182 311 184 316 q 177 289 179 304 q 174 259 174 273 q 173 248 173 252 q 174 241 173 243 l 174 239 q 179 263 177 239 q 182 287 180 275 q 184 306 183 299 m 203 253 q 203 258 203 255 q 203 262 203 260 q 201 263 202 263 q 201 258 201 263 q 202 252 201 252 l 203 253 m 256 223 q 257 226 257 224 q 256 230 257 228 q 255 231 256 231 q 254 227 254 231 l 254 223 l 255 222 q 256 223 256 222 m 399 825 q 399 828 399 826 q 399 832 399 830 q 397 833 398 833 q 397 830 397 833 l 397 826 q 398 825 397 825 l 399 825 m 411 884 q 413 913 413 900 q 411 937 413 926 q 408 950 409 950 l 408 948 q 408 919 408 947 q 406 885 408 902 q 404 861 405 869 q 400 840 400 844 l 400 839 q 404 845 401 839 q 407 860 405 848 q 411 884 409 871 m 435 888 q 435 896 435 891 q 435 905 435 901 l 434 908 q 433 897 433 908 q 434 886 433 886 l 435 888 m 480 825 q 481 828 481 826 q 481 832 481 830 q 479 833 480 833 q 479 830 479 833 l 479 826 l 479 825 l 480 825 z "},"@":{"ha":943,"x_min":0,"x_max":882,"o":"m 814 519 q 867 422 852 469 q 882 313 882 376 l 882 307 q 881 269 882 283 q 879 244 881 255 q 872 220 876 234 q 787 87 848 144 q 751 63 767 70 q 726 59 739 59 q 714 60 720 59 q 684 67 701 60 q 629 94 667 75 q 583 116 602 107 q 564 125 565 125 q 558 119 562 125 q 548 104 554 113 q 486 37 517 58 q 452 28 471 28 q 422 32 443 28 q 340 69 401 37 q 280 106 296 92 q 258 142 264 120 q 250 201 250 170 q 270 302 250 241 q 348 423 289 363 q 459 477 401 477 q 496 471 477 477 q 521 465 507 468 q 545 458 535 461 q 619 419 593 448 q 633 406 627 409 q 643 403 637 403 l 645 403 q 653 402 650 403 q 656 400 656 401 q 658 398 656 399 q 663 397 660 397 q 668 394 665 397 q 675 386 672 391 q 681 351 681 378 q 675 265 681 325 q 672 217 673 239 q 671 199 671 206 q 672 188 671 192 q 675 175 673 177 q 676 174 675 174 q 680 176 677 174 q 706 213 690 186 q 730 262 722 240 q 736 285 734 275 q 739 311 739 295 q 739 355 739 326 q 739 400 739 385 q 736 426 739 416 q 730 448 734 435 q 688 530 715 489 q 637 584 660 571 q 601 589 627 589 q 580 589 597 589 q 528 583 562 589 q 402 544 465 573 q 298 475 340 514 q 164 236 205 382 q 151 155 155 199 q 147 102 147 124 q 148 83 147 92 q 177 -18 154 28 q 231 -83 200 -64 q 244 -90 238 -88 q 258 -93 250 -92 l 280 -93 q 400 -65 332 -93 q 456 -37 433 -52 q 503 -1 480 -22 q 523 17 516 12 q 534 24 530 22 q 540 24 537 24 q 546 24 543 24 q 558 21 553 23 q 566 17 564 19 q 569 14 567 15 l 572 14 q 574 14 572 14 q 576 14 574 14 q 580 13 577 14 q 585 12 583 12 q 589 11 588 11 q 591 10 590 11 q 592 7 592 9 q 593 6 592 6 q 598 7 595 6 q 603 9 600 9 q 616 5 608 9 q 641 -22 641 -7 q 640 -26 641 -24 q 612 -60 636 -37 q 563 -101 589 -83 q 503 -133 540 -116 q 437 -158 465 -150 q 371 -165 410 -165 l 363 -165 q 303 -160 330 -165 q 274 -152 290 -157 q 246 -144 258 -148 q 195 -121 228 -137 q 132 -88 162 -104 q 90 -63 101 -71 q 41 -3 64 -41 q 7 77 18 36 q 0 149 1 104 l 0 169 q 3 229 0 202 q 89 447 22 349 q 253 602 155 546 q 332 634 280 616 q 415 657 385 652 q 451 661 429 659 q 492 662 473 662 q 537 660 520 662 q 587 648 555 657 q 664 626 639 634 q 713 605 690 617 q 814 519 773 574 m 34 245 q 37 265 36 257 q 38 275 38 273 q 36 270 37 275 q 33 257 34 265 q 22 147 22 203 q 22 121 22 121 q 25 163 23 121 q 29 209 26 186 q 34 245 31 232 m 45 159 q 46 165 46 161 q 45 171 46 168 l 45 172 q 43 165 43 172 q 45 157 43 157 l 45 159 m 88 121 q 89 130 89 125 q 88 139 89 135 l 87 142 q 87 131 87 142 q 87 119 87 119 l 88 121 m 92 173 q 92 176 92 174 q 92 180 92 178 q 90 181 91 181 q 90 178 90 181 l 90 174 q 91 173 90 173 l 92 173 m 286 252 q 288 264 287 259 q 288 269 288 267 q 288 271 288 271 l 287 271 q 283 260 286 271 q 279 234 281 250 q 276 202 277 218 l 275 170 l 278 202 q 281 230 279 216 q 286 252 283 244 m 348 180 q 349 183 349 181 l 349 184 q 348 187 349 186 l 347 189 q 346 184 347 189 q 347 180 346 182 l 347 180 l 348 180 m 564 381 l 578 407 l 565 407 q 520 388 545 407 q 476 338 496 369 q 422 220 440 279 q 414 180 417 202 q 410 142 410 159 l 410 136 q 412 125 410 125 q 421 132 414 125 q 435 146 427 138 q 532 314 481 193 q 548 351 539 332 q 564 381 557 370 m 612 210 q 612 215 612 212 q 612 219 612 217 l 611 220 q 610 215 610 220 q 611 210 610 210 l 612 210 m 758 269 q 759 272 759 270 q 758 276 759 274 q 757 277 758 277 q 756 274 756 277 l 756 270 q 758 269 757 269 l 758 269 m 766 347 q 765 386 766 386 q 762 330 764 386 q 762 298 762 309 l 762 290 q 763 292 763 290 q 765 312 764 296 q 766 347 766 328 z "},"A":{"ha":752,"x_min":0,"x_max":718,"o":"m 704 406 q 691 391 697 398 q 684 380 686 384 q 680 371 682 378 l 680 362 q 681 344 680 356 q 682 302 681 332 q 686 213 684 270 q 688 102 688 157 q 691 -4 690 47 q 694 -77 692 -54 q 695 -109 695 -98 q 695 -126 696 -121 q 691 -136 694 -132 q 676 -146 684 -146 q 665 -143 671 -146 q 661 -141 663 -142 q 656 -142 658 -141 q 645 -138 654 -142 q 624 -128 635 -134 q 538 -85 546 -85 q 527 -79 534 -85 q 512 -65 519 -73 q 501 -48 505 -56 q 485 28 490 -27 q 473 221 479 84 q 470 291 471 258 q 467 337 468 324 l 465 366 l 402 379 q 334 393 358 389 q 295 398 309 397 l 286 398 q 267 397 276 398 q 260 397 264 397 q 235 393 243 396 q 225 380 227 391 q 221 347 222 370 q 220 340 220 344 q 212 207 216 286 q 208 62 209 127 l 207 -5 l 198 -4 q 186 0 195 -3 q 168 9 177 3 q 153 18 157 14 q 146 26 148 21 q 142 41 144 31 q 133 118 136 72 q 128 243 130 164 q 126 321 127 290 q 125 353 125 353 q 115 348 123 353 q 97 336 106 343 q 80 323 87 330 q 59 312 65 312 l 57 312 q 35 321 47 315 q 12 334 22 328 q 1 342 2 340 q 0 347 0 345 q 6 365 0 353 q 24 387 13 376 q 70 419 43 404 q 119 442 96 435 q 123 443 121 443 q 130 446 127 444 q 135 454 133 448 q 138 473 136 460 q 143 509 140 486 q 144 526 144 517 q 213 842 166 695 q 313 1045 260 988 q 393 1086 354 1086 l 399 1086 q 414 1082 406 1084 q 426 1078 422 1080 q 440 1074 431 1076 q 458 1069 449 1071 q 536 1029 507 1061 q 591 923 566 998 q 635 748 615 858 q 667 517 656 637 q 672 472 670 490 q 676 450 675 453 q 681 448 678 448 q 688 447 684 447 l 690 447 q 701 445 694 447 q 712 438 707 442 q 718 431 717 434 q 714 421 718 428 q 704 406 710 414 m 144 156 q 144 161 144 158 q 144 166 144 163 l 143 168 q 142 162 142 168 q 143 155 142 155 l 144 156 m 144 327 q 144 335 144 330 q 144 343 144 339 l 143 345 q 142 335 142 345 q 143 326 142 326 l 144 327 m 154 466 q 155 471 155 468 q 154 475 155 473 l 153 476 q 153 471 153 476 q 153 465 153 465 l 154 466 m 158 498 q 159 503 159 500 q 158 507 159 505 l 157 508 q 156 503 156 508 q 157 497 156 497 l 158 498 m 161 526 q 162 531 162 528 q 161 536 162 534 l 161 536 q 159 531 159 536 q 161 526 159 526 l 161 526 m 165 553 q 165 556 165 554 l 165 557 q 165 560 165 559 l 164 562 q 163 558 163 562 q 163 554 163 555 l 164 553 l 165 553 m 168 575 q 170 578 170 576 q 169 582 170 580 q 168 583 168 583 q 166 579 167 583 q 167 575 166 576 l 168 574 q 168 575 168 574 m 457 418 l 459 418 q 462 419 461 418 q 464 426 463 420 q 463 445 464 432 q 461 507 463 458 q 458 618 460 556 q 451 803 456 735 q 435 925 446 871 q 433 935 434 930 q 428 967 430 956 q 424 984 425 979 q 420 989 422 989 q 416 987 419 989 q 416 986 416 987 q 393 961 407 980 q 365 918 378 941 q 241 507 286 768 q 236 475 238 488 q 235 463 235 467 l 235 461 q 245 458 236 460 q 268 454 254 456 q 312 446 282 452 q 375 433 342 440 q 430 422 406 427 q 457 418 453 418 m 471 878 q 472 881 472 879 l 472 882 q 471 884 472 883 l 471 886 q 469 882 470 886 q 470 878 469 880 l 471 878 l 471 878 m 475 852 q 476 859 476 856 q 475 865 476 863 l 475 867 q 473 859 473 867 q 475 851 473 851 l 475 852 m 500 410 q 501 435 501 410 q 500 496 501 460 q 489 730 496 626 q 477 845 482 835 q 477 839 477 845 q 477 821 477 832 q 486 723 483 771 q 490 599 488 675 q 500 410 496 410 m 518 4 q 522 -9 520 -9 q 522 -3 522 -9 q 519 48 522 10 q 516 121 518 74 q 512 216 513 168 q 505 337 509 303 q 503 351 504 351 q 502 328 503 351 q 504 266 502 313 q 508 161 505 218 q 514 59 511 104 q 518 4 517 14 m 525 517 q 526 524 526 520 q 525 532 526 528 l 524 534 q 524 526 524 534 q 524 517 524 517 q 525 517 525 517 m 528 434 q 530 438 530 436 q 528 443 530 441 l 528 444 q 527 438 527 444 q 528 433 527 433 l 528 434 m 536 273 q 536 281 536 277 q 536 290 536 286 l 535 291 q 534 281 534 291 q 535 272 534 272 l 536 273 m 539 182 q 540 189 540 185 q 539 197 540 193 l 538 199 q 538 191 538 199 q 538 182 538 182 q 539 182 539 182 m 543 97 q 544 104 544 100 q 543 111 544 108 l 543 113 q 541 105 542 113 q 543 96 541 96 l 543 97 m 600 205 q 601 214 601 209 q 600 224 601 219 l 600 227 q 599 216 599 227 q 600 204 599 204 l 600 205 z "},"B":{"ha":838,"x_min":0,"x_max":804,"o":"m 797 314 q 804 233 804 273 q 759 41 804 134 q 581 -134 683 -109 q 524 -144 547 -142 q 509 -144 517 -144 q 474 -141 492 -144 q 306 -78 412 -132 l 244 -47 l 242 -58 q 241 -75 241 -63 q 240 -99 240 -87 q 231 -144 240 -131 q 218 -153 226 -153 q 208 -150 214 -153 q 203 -149 206 -149 q 201 -148 202 -148 q 199 -149 200 -148 l 199 -149 q 189 -145 196 -149 q 170 -137 181 -142 q 148 -125 160 -132 q 126 -113 135 -118 q 111 -105 118 -109 q 103 -100 104 -101 q 98 -97 102 -98 q 91 -96 94 -96 q 51 -61 75 -96 q 18 14 28 -25 q 3 111 7 56 q 0 231 0 154 q 0 321 0 253 q 6 597 1 389 q 43 1045 17 967 q 56 1064 47 1055 q 72 1076 64 1073 q 76 1078 75 1078 q 80 1072 80 1078 q 81 1070 80 1070 q 85 1072 83 1070 q 88 1074 86 1074 q 93 1074 90 1074 q 103 1069 96 1073 q 115 1065 109 1066 q 120 1064 118 1064 l 122 1064 q 126 1062 124 1064 q 131 1056 129 1060 q 136 1050 134 1050 q 136 1051 136 1050 l 136 1053 q 138 1058 137 1057 q 140 1059 140 1059 q 143 1058 142 1059 q 144 1053 144 1057 q 144 1049 144 1049 q 146 1049 145 1049 q 151 1053 146 1049 q 158 1058 155 1057 l 159 1058 q 165 1056 162 1058 q 172 1051 168 1054 q 181 1046 177 1048 q 215 1008 202 1038 q 231 852 227 979 l 231 819 l 250 863 q 297 960 279 930 q 335 1008 314 990 q 408 1051 384 1051 q 421 1049 412 1051 q 439 1044 430 1047 q 457 1039 449 1042 q 469 1037 466 1037 q 493 1028 477 1037 q 521 1008 510 1019 q 549 918 549 981 q 547 875 549 898 q 482 663 536 764 q 470 640 474 650 q 465 629 465 630 q 481 623 468 627 q 511 615 494 619 q 539 608 527 610 q 694 522 623 590 q 760 436 737 481 q 797 314 782 391 m 68 177 q 68 229 68 200 q 68 280 68 256 l 68 293 q 67 283 67 293 q 67 230 67 273 l 67 172 q 68 165 67 165 l 68 177 m 44 500 q 75 1042 55 949 q 75 1046 75 1046 l 75 1047 q 73 1044 75 1047 q 37 469 49 991 q 34 221 34 309 q 35 142 34 195 q 45 43 35 90 q 50 23 49 23 l 50 25 q 45 70 50 33 q 41 237 41 115 q 44 500 41 341 m 72 448 l 72 514 l 71 522 q 71 515 71 522 q 71 481 71 509 l 71 444 q 71 440 71 440 l 72 448 m 75 623 q 76 642 76 631 q 75 662 76 653 l 75 667 q 74 644 74 667 q 75 621 74 627 l 75 618 l 75 623 m 79 724 q 79 738 79 730 q 79 753 79 746 l 78 756 q 77 740 77 756 q 78 724 77 728 l 78 722 l 79 724 m 82 814 q 83 827 83 820 q 82 840 83 834 l 81 844 l 81 841 q 81 827 81 838 q 81 812 81 816 l 81 810 l 82 814 m 86 885 l 86 906 l 85 909 q 84 897 85 909 q 85 883 85 883 l 86 885 m 90 945 q 90 952 90 948 q 90 960 90 956 l 89 962 q 87 954 88 962 q 89 945 87 945 l 90 945 m 93 987 q 94 991 94 989 q 93 996 94 994 l 92 996 q 91 991 91 996 q 92 985 91 985 q 93 987 92 985 m 136 427 q 136 449 136 437 q 136 471 136 461 l 135 477 l 135 472 q 134 449 134 467 q 135 425 134 431 l 135 422 l 136 427 m 136 517 q 136 534 136 525 q 136 550 136 543 l 135 553 q 134 533 134 553 q 135 515 134 519 l 135 513 l 136 517 m 140 630 l 140 676 l 139 682 q 138 654 138 682 l 138 628 q 139 625 138 625 l 140 630 m 143 749 q 144 770 144 759 q 143 790 144 781 l 142 795 q 142 791 142 795 q 142 770 142 787 l 142 747 q 142 745 142 745 l 143 749 m 146 861 q 147 884 147 871 q 146 908 147 897 l 146 913 q 145 886 145 913 q 146 860 145 867 l 146 857 l 146 861 m 463 972 q 463 969 463 972 q 463 956 463 966 l 463 941 q 463 939 463 939 l 464 942 q 465 956 465 948 q 464 968 465 962 l 463 972 m 458 911 q 458 907 458 908 l 459 906 l 460 906 q 460 909 460 907 q 460 913 460 911 l 459 915 q 458 911 458 915 m 339 831 q 313 755 326 800 q 292 672 300 711 q 283 617 283 633 q 284 612 283 612 l 285 612 q 291 616 286 612 q 304 631 295 620 q 325 654 313 641 q 343 679 336 668 q 413 814 385 741 q 446 950 441 887 q 446 968 446 960 q 443 983 446 982 l 442 983 q 416 962 436 983 q 374 907 391 936 q 339 831 357 879 m 567 135 q 593 222 587 191 q 598 290 598 250 l 598 299 q 531 538 597 467 q 523 546 526 543 q 513 549 519 549 q 493 548 506 549 q 399 523 452 545 q 299 466 347 500 l 263 440 l 261 406 q 257 339 260 390 q 252 226 255 288 l 246 79 l 266 53 q 345 -29 311 -7 q 364 -40 357 -37 q 378 -42 370 -42 q 385 -41 379 -42 q 408 -36 391 -41 q 448 -22 432 -30 q 481 0 464 -15 q 567 135 535 41 m 631 219 q 634 250 633 231 q 635 286 635 269 q 633 332 635 306 q 628 379 631 358 q 623 402 625 399 q 622 400 622 402 q 623 392 622 397 q 631 298 631 347 q 623 210 631 248 q 622 204 623 207 q 616 177 618 185 q 616 171 616 172 q 616 171 616 170 q 619 178 616 171 q 620 179 619 178 q 625 197 622 185 q 631 219 628 208 m 659 218 q 661 221 661 219 q 660 225 661 223 q 659 227 659 227 q 657 223 658 227 q 658 219 657 220 l 659 218 l 659 218 m 663 259 q 664 271 664 264 q 663 282 664 277 l 663 284 q 662 271 662 284 q 663 257 662 257 l 663 259 m 720 195 q 721 200 721 197 q 720 205 721 203 l 720 207 q 718 201 719 207 q 720 195 719 195 l 720 195 z "},"C":{"ha":715,"x_min":0,"x_max":681,"o":"m 680 175 q 681 166 681 172 q 675 123 681 152 q 661 65 670 94 q 596 -47 638 5 q 509 -122 554 -100 q 483 -130 500 -126 q 449 -137 465 -134 q 428 -139 436 -139 l 424 -139 q 415 -137 422 -138 q 397 -136 407 -136 q 329 -120 360 -132 q 236 -77 298 -109 q 171 -42 200 -58 q 132 -20 141 -26 q 91 22 112 -5 q 55 77 69 49 q 33 133 43 100 q 12 222 24 166 q 4 263 6 247 q 1 301 1 279 q 0 363 0 322 q 1 425 0 402 q 3 464 1 447 q 9 506 5 481 q 48 667 22 578 q 98 820 73 756 q 133 896 113 859 q 168 957 152 934 q 239 1033 198 998 q 313 1078 281 1068 q 350 1083 329 1082 l 357 1083 q 387 1080 374 1083 q 483 1051 454 1064 q 532 1013 512 1038 q 577 937 566 978 q 585 872 585 909 q 583 835 585 854 q 562 741 577 759 l 555 733 l 530 745 q 500 766 505 758 q 496 790 498 771 q 493 838 494 810 q 490 889 492 864 q 486 924 488 913 q 470 973 482 946 q 446 1011 457 1000 q 440 1017 443 1015 q 437 1017 439 1017 q 433 1017 436 1017 q 424 1013 431 1016 q 361 955 396 1002 q 245 651 287 861 q 210 341 210 474 q 219 216 210 273 q 240 119 227 172 q 265 37 254 67 q 293 -14 276 9 q 321 -41 310 -38 q 330 -42 326 -42 q 406 -18 357 -42 q 509 61 460 9 q 585 171 559 113 q 608 206 598 199 q 617 210 612 210 q 631 205 623 210 q 641 201 635 203 q 651 199 647 199 q 669 192 661 199 q 680 175 678 185 m 506 897 q 505 889 505 897 q 506 880 505 880 q 507 881 507 880 q 507 888 507 884 q 507 895 507 892 l 506 897 m 47 224 q 47 228 47 226 q 47 233 47 231 l 46 233 q 45 228 45 233 q 45 222 45 222 q 47 224 46 222 m 64 407 q 65 414 65 410 q 64 421 65 418 l 64 423 q 63 415 63 423 q 64 406 63 406 q 64 407 64 406 m 68 444 q 69 449 68 446 q 68 455 69 452 q 67 456 68 456 q 66 451 66 456 q 67 444 66 444 q 68 444 68 444 m 71 475 q 73 478 73 476 q 72 481 73 479 q 71 484 71 484 q 70 479 70 484 l 70 475 l 71 475 l 71 475 m 68 608 q 76 646 73 630 q 79 661 79 658 l 79 662 q 73 646 77 662 q 63 606 69 630 q 53 558 58 583 q 44 517 47 534 q 31 377 33 448 l 31 357 q 37 261 31 300 q 43 239 41 242 q 44 239 43 239 l 44 241 q 43 254 44 244 q 36 352 36 300 q 68 608 36 467 m 88 692 q 90 699 90 697 q 89 699 90 699 l 87 696 q 85 688 86 694 q 82 677 83 682 q 81 671 81 673 l 81 669 q 83 672 82 669 q 86 681 85 675 q 88 692 87 686 m 96 718 q 97 720 97 718 q 97 724 98 722 q 96 726 96 726 q 94 722 95 726 q 95 718 94 719 l 96 718 l 96 718 m 125 366 q 126 378 126 371 q 125 391 126 385 l 125 394 q 124 380 124 394 q 125 364 124 364 l 125 366 m 129 418 q 130 425 130 420 q 129 432 130 429 l 128 434 q 127 426 127 434 q 128 417 127 417 q 129 418 129 417 m 132 450 q 133 456 133 453 q 132 463 133 460 l 132 464 q 131 456 131 464 q 132 448 131 448 l 132 450 m 136 477 q 136 481 136 479 q 136 486 136 484 l 135 486 q 134 481 134 486 q 135 476 134 476 l 136 477 z "},"D":{"ha":966,"x_min":0,"x_max":946,"o":"m 932 686 q 942 628 939 650 q 945 585 945 607 q 946 559 946 574 q 945 524 946 544 l 945 512 q 938 381 945 438 q 906 230 930 323 q 777 -30 864 62 q 729 -74 758 -50 q 680 -112 701 -98 q 622 -140 660 -125 q 545 -165 585 -155 q 465 -176 509 -174 q 434 -177 449 -177 q 386 -174 408 -177 q 277 -146 332 -167 q 248 -137 261 -140 q 222 -134 235 -134 q 196 -131 206 -134 q 168 -118 186 -127 q 137 -101 156 -111 q 100 -82 117 -91 q 55 -55 68 -66 q 34 -23 42 -43 q 24 4 28 -10 q 16 43 20 18 q 8 112 13 68 q 1 196 2 163 q 0 235 0 212 q 1 289 0 259 q 8 533 5 498 q 10 554 9 539 q 12 587 11 570 q 26 748 16 659 q 46 898 35 838 q 61 967 54 945 q 81 1000 69 989 q 97 1011 92 1009 q 100 1012 98 1012 q 104 1008 102 1012 q 109 1007 106 1007 l 115 1007 q 119 1008 117 1008 q 125 1004 124 1008 q 128 1000 126 1001 l 133 1000 q 137 1001 135 1001 q 138 999 138 1000 q 140 997 138 997 l 147 997 q 154 993 152 997 q 157 989 155 989 l 157 989 q 161 991 159 989 q 165 993 164 993 q 166 992 166 993 q 167 985 167 991 q 168 977 167 977 q 171 983 169 977 q 180 991 174 989 l 182 991 q 192 985 187 991 q 197 982 194 983 q 203 980 200 980 q 219 969 211 980 q 233 941 228 958 q 238 909 237 931 q 239 869 239 895 l 239 840 q 239 783 239 806 q 241 762 240 762 q 248 776 243 763 q 261 808 254 789 q 304 904 278 851 q 350 990 330 956 q 496 1097 414 1090 q 518 1097 507 1097 q 536 1095 530 1097 q 773 1000 697 1057 q 838 932 804 977 q 892 848 873 888 q 912 789 903 824 q 932 686 920 755 m 73 277 q 74 317 74 295 q 73 357 74 339 l 73 367 l 73 358 q 72 317 72 350 q 73 273 72 284 l 73 268 l 73 277 m 77 458 q 77 478 77 467 q 77 498 77 489 q 76 503 77 503 l 75 479 q 76 457 75 463 l 76 454 l 77 458 m 81 557 l 81 584 l 80 587 q 79 584 79 587 q 79 570 79 581 q 79 555 79 559 q 80 553 79 553 l 81 557 m 84 625 q 85 635 85 629 q 84 646 85 641 l 83 648 q 83 636 83 648 q 83 623 83 623 l 84 625 m 44 303 q 85 919 50 703 q 91 963 90 954 q 90 966 91 966 q 85 949 90 966 q 66 815 77 906 q 50 638 56 724 q 37 301 41 505 q 36 217 36 250 q 37 176 36 201 q 42 109 37 152 q 50 34 47 55 q 55 16 53 16 l 55 19 q 54 42 55 24 q 49 93 52 60 q 44 151 45 126 q 43 210 43 176 q 44 303 43 244 m 87 680 q 88 688 88 684 q 87 696 88 692 l 87 697 q 86 688 86 697 q 87 678 86 678 l 87 680 m 91 724 q 92 731 92 727 q 91 739 92 735 l 90 741 q 90 732 90 741 q 90 724 90 724 q 91 724 91 724 m 94 764 q 95 770 95 766 q 94 776 95 773 l 94 777 q 93 770 93 777 q 94 762 93 762 l 94 764 m 98 803 q 99 809 99 806 q 98 815 99 812 l 98 817 q 96 809 96 817 q 98 802 96 802 l 98 803 m 102 837 q 102 842 102 839 q 102 847 102 844 l 101 849 q 100 843 100 849 q 101 836 100 836 l 102 837 m 105 872 q 106 877 106 874 q 105 881 106 879 q 104 882 104 882 q 103 877 103 882 q 104 871 103 871 l 105 872 m 137 151 q 138 157 138 153 q 138 165 138 161 q 136 167 137 167 q 136 159 136 167 q 136 149 136 149 l 137 151 m 141 280 q 142 332 142 304 q 141 384 142 359 l 140 396 l 140 387 q 140 333 140 376 q 140 275 140 290 l 140 269 l 141 280 m 144 505 q 145 528 145 515 q 144 551 145 541 q 144 557 144 557 l 143 529 q 144 503 143 510 l 144 500 l 144 505 m 148 608 q 149 624 149 616 q 148 639 149 632 l 148 642 q 147 639 147 642 q 146 624 146 636 q 147 607 146 611 q 148 605 147 605 l 148 608 m 152 676 q 153 688 153 682 q 152 699 153 694 l 151 701 q 151 688 151 701 q 151 674 151 674 l 152 676 m 155 728 q 156 739 156 732 q 155 749 156 744 l 155 752 q 154 740 154 752 q 155 726 154 726 l 155 728 m 159 785 q 159 795 159 789 q 159 806 159 802 l 158 809 q 157 797 157 809 q 158 783 157 783 l 159 785 m 162 842 q 163 852 163 846 q 162 862 163 857 l 161 863 q 161 852 161 863 q 161 840 161 840 l 162 842 m 166 897 q 167 905 167 901 q 166 913 167 909 l 165 915 q 164 905 164 915 q 165 896 164 896 l 166 897 m 807 669 q 806 659 806 669 q 807 650 806 650 l 808 651 q 808 659 808 655 q 808 667 808 664 l 807 669 m 803 696 q 802 690 802 696 q 803 683 802 683 l 804 684 q 804 688 804 685 q 804 694 804 691 l 803 696 m 800 721 l 800 722 q 798 716 798 722 q 800 711 798 711 l 800 712 q 801 716 801 714 q 800 721 801 719 m 797 746 l 796 747 q 795 741 795 747 q 795 736 795 736 q 797 737 796 736 q 798 741 798 739 q 797 746 798 744 m 793 771 l 792 772 q 791 766 791 772 q 792 761 791 761 l 793 762 q 794 766 794 764 q 793 771 794 769 m 787 790 q 788 785 787 787 l 789 785 q 789 785 789 785 q 790 788 790 786 q 789 792 790 790 l 789 793 q 787 790 788 793 m 602 31 q 715 223 677 110 q 766 435 746 318 q 783 610 783 540 l 783 625 q 769 747 780 674 q 749 854 759 821 q 694 962 732 909 q 624 1026 656 1014 q 593 1030 609 1030 q 544 1021 573 1030 q 488 981 515 1011 q 408 849 450 937 q 344 681 366 762 q 274 140 290 480 q 270 64 272 106 q 264 -9 267 22 q 261 -71 261 -53 q 262 -83 261 -82 q 292 -90 269 -89 q 317 -91 304 -91 q 353 -90 331 -91 q 400 -82 375 -88 q 602 31 522 -56 m 755 248 q 757 254 756 251 q 758 260 758 258 q 758 262 758 262 q 755 258 757 262 q 753 252 754 255 q 752 246 752 248 q 753 243 752 243 q 755 248 753 243 m 761 268 q 762 271 762 269 q 761 275 762 273 l 760 277 q 759 273 760 277 q 760 269 759 270 l 760 268 l 761 268 m 776 327 q 812 600 811 479 l 811 644 l 808 587 q 771 320 801 443 q 767 302 768 309 q 764 291 765 295 q 763 285 763 287 q 763 282 762 283 q 764 281 763 281 q 768 295 764 281 q 776 327 772 308 m 832 534 q 833 538 833 536 q 832 543 833 541 l 831 543 q 831 538 831 543 q 831 533 831 533 l 832 534 m 871 404 q 872 406 872 405 q 871 410 872 408 l 871 412 q 869 408 870 412 q 870 404 869 406 q 871 404 870 404 l 871 404 m 875 434 q 876 439 876 436 l 876 441 l 876 444 q 874 446 875 446 q 873 440 873 446 q 874 433 873 433 l 875 434 m 879 475 q 880 481 880 477 q 879 489 880 486 l 878 491 q 877 483 878 491 q 878 474 878 474 q 879 475 879 474 m 882 541 q 883 549 883 545 q 882 557 883 553 l 882 558 q 881 549 881 558 q 882 539 881 539 l 882 541 z "},"E":{"ha":680,"x_min":0,"x_max":680,"o":"m 642 217 q 675 203 667 211 q 680 189 680 198 q 675 165 680 182 q 647 102 670 149 q 603 24 625 56 q 548 -38 580 -7 q 426 -118 485 -99 q 357 -129 394 -129 q 294 -121 327 -129 q 252 -108 275 -118 q 181 -74 229 -98 q 126 -46 145 -56 q 97 -28 108 -36 q 76 -9 87 -20 q 3 127 18 51 q 0 177 0 147 q 1 234 0 195 q 10 311 3 274 q 93 507 34 418 q 141 563 109 529 q 199 618 173 596 q 249 653 222 637 q 296 675 277 669 q 308 681 304 678 q 311 684 311 682 l 311 684 q 296 693 309 686 q 263 709 282 700 q 132 801 168 756 q 104 875 104 834 q 108 903 104 888 q 236 1064 134 1010 q 269 1079 257 1075 q 298 1083 281 1082 l 307 1083 q 333 1081 319 1083 q 378 1072 346 1080 q 450 1048 425 1059 q 496 1016 475 1036 q 525 980 517 997 q 531 949 531 967 q 530 939 531 945 q 522 909 529 914 q 518 908 521 908 q 495 917 511 908 q 478 926 485 922 q 469 932 471 930 q 467 940 468 934 q 465 956 465 947 q 458 982 463 972 q 442 1002 454 991 q 416 1016 431 1016 q 388 1006 403 1016 q 358 976 373 996 q 337 935 344 955 q 325 865 328 905 q 324 840 324 851 q 328 802 324 817 q 368 747 334 774 q 467 693 414 711 q 487 686 479 689 q 497 681 496 682 q 503 677 498 679 q 513 673 507 675 q 531 661 528 670 q 534 655 532 657 q 538 652 536 652 q 541 650 539 652 q 543 646 542 648 q 544 642 544 644 q 541 632 544 638 q 532 619 538 625 q 521 611 526 612 q 449 575 497 605 q 371 519 401 546 q 321 463 348 496 q 279 405 294 429 q 218 222 237 326 q 208 113 208 163 q 214 41 208 75 q 228 1 218 22 q 249 -33 238 -20 q 258 -42 254 -39 q 267 -46 262 -45 q 281 -47 271 -47 q 432 10 349 -47 q 566 151 514 67 q 612 220 595 199 q 617 221 613 221 q 642 217 625 221 m 153 932 l 148 919 q 140 888 142 904 q 140 874 140 881 q 140 863 140 868 q 142 859 142 859 q 144 862 143 859 q 146 880 144 865 q 149 903 147 892 q 151 920 150 914 l 153 932 m 173 865 q 174 870 174 867 q 173 876 174 873 l 172 878 q 172 871 172 878 q 172 865 172 865 l 173 865 m 237 848 q 238 852 238 850 q 237 857 238 854 l 237 857 q 235 852 235 857 q 236 846 235 846 q 237 848 237 846 m 241 867 q 241 870 241 868 q 241 874 241 872 q 239 876 240 876 q 239 871 239 876 q 239 867 239 869 q 240 867 239 867 l 241 867 m 62 159 q 63 171 63 165 q 62 182 63 177 l 62 184 q 61 171 61 184 q 62 157 61 157 l 62 159 m 62 363 l 64 372 l 60 363 q 36 250 44 323 q 31 176 31 208 q 34 131 31 151 q 37 118 37 118 q 38 125 38 118 q 37 147 38 132 q 37 174 37 160 q 62 363 37 252 m 66 214 q 67 221 67 217 q 66 229 67 225 l 66 231 q 64 222 65 231 q 66 214 64 214 l 66 214 m 70 248 q 71 253 71 250 q 70 258 71 256 l 69 258 q 68 253 68 258 q 69 248 68 248 l 70 248 m 123 131 q 124 139 124 134 q 123 147 124 143 l 123 149 q 121 139 121 149 q 123 130 121 130 l 123 131 m 127 174 q 127 182 127 177 q 127 190 127 186 l 126 191 q 125 182 125 191 q 126 172 125 172 l 127 174 m 130 205 q 131 211 131 208 q 130 216 131 214 l 130 218 q 129 212 129 218 q 130 205 129 205 q 130 205 130 205 m 134 233 q 134 235 134 233 l 134 237 q 134 239 134 238 l 133 241 q 132 237 132 241 q 132 233 132 235 l 133 233 l 134 233 z "},"F":{"ha":694,"x_min":0,"x_max":694,"o":"m 690 1075 q 694 1065 694 1069 q 691 1055 694 1061 q 683 1043 689 1048 q 663 1032 677 1038 l 640 1021 l 569 1021 q 412 1036 494 1021 q 402 1037 406 1037 l 400 1037 q 399 1035 399 1036 q 401 1029 399 1033 q 419 893 411 995 q 436 565 427 791 l 440 465 l 477 465 q 505 466 496 465 q 523 470 515 467 q 547 480 532 473 l 577 495 l 596 489 q 610 485 604 486 q 618 483 616 483 q 624 481 620 482 q 631 479 627 480 q 645 463 640 474 q 648 447 648 454 q 648 440 648 444 q 634 419 644 429 q 610 404 624 410 q 552 397 590 397 q 476 404 515 397 q 453 408 463 406 q 444 408 447 408 l 443 408 l 443 401 q 443 374 443 394 q 446 315 444 354 q 449 219 448 275 q 452 117 451 163 q 452 60 452 85 q 450 -14 452 18 q 437 -66 448 -46 q 412 -101 429 -84 q 380 -127 395 -119 q 345 -134 367 -132 q 332 -135 338 -135 q 304 -132 317 -135 q 269 -120 290 -129 q 228 -100 247 -111 q 206 -88 220 -96 q 178 -74 192 -81 q 61 90 90 -35 q 45 171 50 133 q 41 269 41 209 q 42 321 41 303 q 44 348 42 338 q 50 367 45 357 q 75 418 59 393 q 104 453 91 443 q 142 473 121 466 q 208 486 163 479 l 222 489 l 220 568 q 215 798 215 721 l 215 828 q 217 928 215 886 q 221 990 219 962 q 224 1029 223 1019 l 227 1051 l 212 1051 q 171 1044 198 1051 q 128 1030 144 1038 q 97 1005 116 1023 q 67 973 77 987 l 62 964 l 37 977 q 12 990 20 985 q 2 1000 4 995 q 0 1016 0 1006 q 3 1033 0 1026 q 14 1053 5 1040 q 151 1119 52 1110 q 174 1120 160 1120 q 334 1105 222 1120 q 488 1089 437 1090 l 494 1089 q 572 1099 541 1089 q 602 1105 588 1104 l 606 1105 q 623 1101 617 1105 q 634 1097 627 1099 q 646 1093 641 1094 q 649 1092 647 1092 q 652 1090 650 1091 l 664 1090 q 670 1086 670 1090 q 674 1082 670 1082 l 677 1082 q 679 1083 678 1083 q 690 1075 685 1083 m 60 282 q 60 292 60 287 q 60 302 60 298 l 59 304 q 58 292 58 304 q 59 281 58 281 l 60 282 m 62 339 q 61 333 62 339 q 62 326 61 326 l 63 327 q 64 332 64 329 q 63 338 64 335 l 62 339 m 63 202 q 64 211 64 205 q 63 220 64 216 l 62 222 q 62 212 62 222 q 62 201 62 201 l 63 202 m 241 -16 q 242 32 242 -6 q 242 115 243 70 q 239 187 241 159 q 227 368 230 304 q 224 395 225 384 q 222 406 223 406 q 217 404 221 406 q 208 399 213 402 q 161 261 164 366 l 161 248 q 199 40 161 149 q 212 12 204 26 q 226 -14 219 -3 q 236 -25 233 -25 q 238 -22 237 -25 q 241 -16 239 -20 m 250 955 q 248 869 248 920 q 248 803 248 851 q 250 675 248 755 q 254 543 252 596 q 259 490 256 490 q 260 504 260 491 q 259 551 260 516 q 256 656 258 587 q 254 838 254 750 q 255 926 254 861 q 258 1037 255 991 q 259 1048 259 1045 q 258 1052 259 1052 q 257 1049 258 1052 q 254 1018 256 1045 q 250 955 252 991 m 276 -12 q 279 82 279 -1 q 278 167 279 120 q 273 248 276 214 q 269 316 271 281 q 265 372 267 351 q 263 404 264 391 q 260 417 261 417 q 258 409 258 417 l 258 387 q 272 172 269 237 q 274 79 274 120 l 274 60 q 273 22 273 37 q 275 -12 273 -12 q 276 -12 276 -12 m 281 774 q 281 805 281 789 q 281 835 281 822 l 280 841 q 279 804 279 841 q 280 770 279 779 l 280 767 l 281 774 m 281 920 q 281 945 281 931 q 281 970 281 958 l 280 977 q 279 946 279 977 q 280 918 279 926 l 280 915 l 281 920 m 284 630 q 285 642 285 635 q 284 653 285 648 l 283 655 q 283 642 283 655 q 283 628 283 628 l 284 630 m 288 525 q 288 535 288 529 q 288 546 288 541 l 287 549 q 286 536 286 549 q 287 523 286 523 l 288 525 m 291 400 q 292 407 292 403 q 292 414 292 411 q 290 416 291 416 q 290 408 290 416 q 290 399 290 399 l 291 400 m 305 -8 q 306 -3 306 -6 q 305 3 306 0 l 304 4 q 304 -2 304 4 q 304 -9 304 -9 l 305 -8 m 309 58 q 310 64 310 60 q 309 71 310 67 l 309 72 q 307 64 307 72 q 309 56 307 56 l 309 58 m 338 933 q 338 938 338 935 q 338 943 338 941 l 337 945 q 336 939 336 945 q 337 932 336 932 l 338 933 m 341 792 q 342 802 342 797 q 341 812 342 807 l 340 814 q 340 802 340 814 q 340 791 340 791 l 341 792 m 345 678 q 345 684 345 681 q 345 690 345 688 l 344 692 q 343 684 343 692 q 344 677 343 677 l 345 678 m 352 484 q 353 489 353 486 q 352 494 353 492 l 351 496 q 350 490 351 496 q 351 483 350 483 l 352 484 m 355 370 q 356 374 356 372 q 355 380 356 378 l 355 382 q 353 376 354 382 q 355 369 353 369 l 355 370 m 366 -22 q 367 -18 367 -20 q 366 -12 367 -14 l 366 -10 q 364 -16 365 -10 q 366 -23 364 -23 l 366 -22 m 370 27 q 370 36 370 31 q 370 45 370 41 l 369 48 q 368 37 368 48 q 369 26 368 26 l 370 27 z "},"G":{"ha":827,"x_min":0,"x_max":806,"o":"m 769 516 q 776 518 772 518 q 787 514 781 518 q 801 500 794 509 q 806 486 806 492 q 806 481 806 484 q 780 452 800 467 q 747 438 761 438 q 741 437 742 438 q 740 435 740 436 q 741 431 740 433 q 753 189 753 392 q 752 50 753 127 q 751 -29 751 3 q 750 -82 750 -61 q 749 -115 749 -102 q 747 -133 748 -127 q 745 -142 746 -140 q 742 -147 744 -145 q 736 -153 739 -151 q 731 -154 734 -154 q 728 -154 730 -154 q 718 -151 726 -153 q 701 -145 711 -149 q 683 -137 691 -141 q 665 -127 675 -132 q 648 -119 654 -122 q 636 -111 642 -115 q 630 -105 631 -107 q 627 -102 629 -102 q 625 -103 627 -102 q 621 -105 625 -105 q 614 -103 618 -105 q 605 -96 608 -101 q 598 -79 602 -90 q 594 -65 595 -71 q 592 -58 592 -59 q 584 -65 591 -58 q 565 -83 576 -72 q 429 -138 511 -138 q 347 -126 391 -138 q 286 -101 331 -122 q 194 -55 240 -79 q 131 -19 148 -31 q 89 23 110 -3 q 55 77 68 49 q 33 133 43 100 q 12 222 24 166 q 4 263 6 247 q 1 301 1 279 q 0 363 0 322 q 1 425 0 402 q 3 464 1 447 q 9 506 5 481 q 48 667 23 578 q 98 820 73 756 q 133 896 113 859 q 168 957 152 934 q 239 1033 198 998 q 313 1078 281 1068 q 350 1083 329 1082 l 357 1083 q 387 1080 374 1083 q 483 1051 454 1064 q 532 1013 512 1038 q 577 937 566 978 q 585 872 585 909 q 583 835 585 854 q 562 741 577 759 l 555 733 l 530 745 q 500 766 505 758 q 496 790 498 771 q 493 838 494 810 q 490 889 492 864 q 486 924 488 913 q 470 973 482 946 q 446 1011 457 1000 q 440 1017 443 1015 q 437 1017 439 1017 q 433 1017 436 1017 q 424 1013 431 1016 q 361 955 396 1002 q 245 651 287 861 q 210 341 210 474 q 219 216 210 273 q 240 119 227 172 q 265 37 254 67 q 293 -14 276 9 q 321 -41 310 -38 q 330 -42 326 -42 q 406 -18 357 -42 q 509 61 460 9 q 585 170 558 113 q 591 184 589 176 q 595 211 593 193 q 601 267 597 229 q 609 369 604 304 q 614 419 612 397 q 617 444 616 440 q 619 450 618 446 q 621 456 620 453 l 621 457 q 616 463 621 460 q 600 471 612 466 q 548 479 575 479 q 494 472 529 479 q 418 435 458 465 q 405 425 411 429 q 396 420 398 420 q 385 425 394 420 q 365 435 376 429 q 337 457 339 448 l 337 459 q 354 484 337 469 q 415 523 379 508 q 485 538 451 538 q 531 530 499 538 q 602 511 563 523 q 640 504 624 504 q 653 505 643 504 q 685 516 664 505 q 702 524 694 521 q 714 529 710 528 l 718 529 q 731 528 723 529 q 749 524 740 527 q 758 519 758 522 q 758 518 758 518 l 759 518 q 761 519 760 518 l 762 519 q 764 519 763 519 q 764 517 764 518 q 766 514 764 514 q 769 516 767 514 m 505 889 q 506 880 505 880 q 507 881 507 880 q 507 888 507 884 q 507 895 507 892 l 506 897 q 505 889 505 897 m 47 224 q 47 228 47 226 q 47 233 47 231 l 46 233 q 45 228 45 233 q 45 222 45 222 q 47 224 46 222 m 64 407 q 65 414 65 410 q 64 421 65 418 l 64 423 q 63 415 63 423 q 64 406 63 406 q 64 407 64 406 m 68 444 q 69 449 68 446 q 68 455 69 452 q 67 456 68 456 q 66 451 66 456 q 67 444 66 444 q 68 444 68 444 m 71 475 q 73 478 73 476 q 72 481 73 479 q 71 484 71 484 q 70 479 70 484 l 70 475 l 71 475 l 71 475 m 68 608 q 76 646 73 630 q 79 661 79 658 l 79 662 q 73 646 77 662 q 63 606 69 630 q 53 558 58 583 q 44 517 47 534 q 31 377 33 448 l 31 357 q 37 261 31 300 q 43 239 41 242 q 44 239 43 239 l 44 241 q 43 254 44 244 q 36 352 36 300 q 68 608 36 467 m 88 692 q 90 699 90 697 q 89 699 90 699 l 87 696 q 85 688 86 694 q 82 677 83 682 q 81 671 81 673 l 81 669 q 83 672 82 669 q 86 681 85 675 q 88 692 87 686 m 96 718 q 98 720 98 718 q 97 724 98 722 q 96 726 96 726 q 94 722 95 726 q 95 718 94 719 l 96 718 l 96 718 m 125 366 q 126 378 126 371 q 125 391 126 385 l 125 394 q 124 380 124 394 q 125 364 124 364 l 125 366 m 129 418 q 130 425 130 420 q 129 432 130 429 l 128 434 q 127 426 127 434 q 128 417 127 417 q 129 418 129 417 m 132 450 q 133 456 133 453 q 132 463 133 460 l 132 464 q 131 456 131 464 q 132 448 131 448 l 132 450 m 136 477 q 136 481 136 479 q 136 486 136 484 l 135 486 q 134 481 134 486 q 135 476 134 476 l 136 477 m 617 -44 q 618 -36 618 -40 q 617 -28 618 -31 l 616 -26 q 616 -36 616 -26 q 616 -45 616 -45 l 617 -44 m 621 -67 q 621 -64 621 -66 q 621 -60 621 -62 l 620 -58 q 618 -62 619 -58 q 619 -66 618 -65 l 620 -67 l 621 -67 m 631 297 q 634 359 633 332 q 635 391 635 381 l 635 399 q 634 389 635 399 q 631 353 633 379 q 624 249 626 288 q 623 217 623 226 q 623 212 623 212 q 626 238 624 214 q 631 297 628 262 m 639 423 q 640 431 640 427 q 639 439 640 435 l 638 441 q 637 431 637 441 q 638 422 637 422 l 639 423 m 646 211 q 646 217 646 214 q 646 224 646 220 l 645 225 q 644 217 644 225 q 645 210 644 210 l 646 211 m 649 270 q 650 275 650 272 q 649 281 650 278 l 648 282 q 648 276 648 282 q 648 269 648 269 l 649 270 m 652 338 q 654 342 654 340 q 653 349 654 346 q 652 350 652 350 q 651 344 651 350 q 652 337 651 337 l 652 338 m 688 79 q 689 92 689 85 q 688 106 689 100 l 688 109 q 687 106 688 109 q 687 92 687 104 q 688 78 687 81 q 688 76 688 76 l 688 79 m 692 218 q 693 229 693 222 q 692 239 693 235 l 692 242 q 690 230 691 242 q 692 216 691 216 l 692 218 z "},"H":{"ha":968,"x_min":0,"x_max":968,"o":"m 968 518 q 968 511 968 515 q 924 435 968 478 q 898 412 910 421 q 868 395 885 403 q 847 384 853 387 q 839 377 840 380 q 838 374 838 376 q 839 370 838 372 q 840 296 840 363 q 841 133 841 229 q 842 77 842 102 q 841 20 842 51 q 841 -37 841 -12 q 840 -75 841 -62 q 838 -95 840 -89 q 836 -102 837 -100 q 825 -111 831 -109 l 821 -111 q 802 -108 814 -111 q 787 -103 796 -106 q 768 -94 777 -99 q 746 -82 759 -89 q 724 -71 734 -76 q 704 -61 713 -65 q 689 -54 694 -56 q 667 -37 675 -50 q 653 7 659 -23 q 647 46 650 23 q 642 90 644 70 q 626 313 632 218 l 622 378 l 536 399 q 473 414 500 408 q 441 420 446 420 l 433 421 l 433 272 q 433 187 433 218 q 432 139 433 155 q 430 113 431 122 q 425 94 428 103 q 292 -20 398 -8 q 266 -22 277 -22 q 255 -22 263 -22 q 227 -18 247 -22 q 189 -8 208 -15 q 134 19 171 -1 q 47 74 70 50 q 14 153 25 99 q 0 247 0 205 q 6 294 0 273 q 34 363 16 336 q 87 421 52 391 q 187 475 136 462 q 205 480 197 478 q 214 484 213 483 q 215 490 215 485 q 212 536 215 500 q 204 635 210 572 q 194 770 197 718 q 191 863 191 821 l 191 875 q 203 1014 191 974 q 239 1050 214 1050 q 247 1049 243 1050 q 258 1047 253 1048 q 265 1044 263 1046 q 270 1042 267 1043 q 278 1041 274 1041 q 285 1039 281 1040 q 290 1034 289 1037 q 294 1031 293 1031 q 298 1034 296 1031 q 301 1036 300 1036 q 302 1031 302 1036 q 304 1027 302 1027 q 307 1029 305 1027 q 318 1033 312 1033 q 328 1027 323 1032 q 332 1025 330 1025 q 335 1024 334 1024 l 338 1024 q 349 1017 342 1024 q 362 999 355 1010 q 372 978 369 988 q 378 952 374 970 q 385 915 382 935 q 398 804 389 882 q 416 646 408 726 q 428 527 425 566 q 431 487 429 503 q 433 470 433 471 q 461 463 436 468 q 518 450 486 457 q 578 439 551 444 q 614 434 606 434 q 617 474 616 434 q 618 529 618 494 q 617 615 618 564 l 617 672 q 625 938 617 838 q 652 1072 632 1038 q 664 1087 658 1080 q 676 1096 671 1093 q 680 1097 678 1097 q 683 1094 682 1097 q 686 1091 684 1091 q 689 1093 687 1091 q 693 1095 690 1095 q 707 1090 698 1095 q 718 1085 712 1086 q 726 1083 724 1083 q 732 1081 730 1083 q 736 1075 734 1078 q 739 1069 737 1069 q 740 1073 739 1069 q 745 1079 742 1079 q 747 1079 745 1079 q 749 1071 748 1078 q 749 1066 749 1066 q 752 1069 750 1066 q 760 1074 754 1073 q 767 1076 763 1076 q 770 1076 768 1076 q 773 1072 773 1076 q 776 1069 773 1071 q 784 1067 779 1067 q 804 1050 794 1064 q 811 1035 808 1044 q 816 1006 814 1025 q 820 952 818 987 q 823 860 821 918 q 832 588 829 668 q 836 509 835 509 q 840 514 836 509 q 849 526 844 518 q 861 540 854 533 q 871 551 867 547 q 878 559 875 555 q 880 566 880 564 q 889 573 880 573 l 890 573 q 899 572 895 573 q 903 570 902 571 q 909 567 904 568 q 920 564 914 565 q 968 518 965 559 m 16 241 q 17 245 17 243 q 16 250 17 248 l 16 250 q 15 245 15 250 q 16 239 15 239 l 16 241 m 20 271 q 21 274 20 272 q 20 278 21 276 q 19 279 20 279 q 18 275 18 279 q 18 271 18 273 l 19 271 l 20 271 m 255 998 l 254 999 q 254 994 254 999 q 254 988 254 988 l 255 989 q 256 994 256 991 q 255 998 256 996 m 197 73 q 230 129 223 89 q 233 182 233 149 q 230 262 233 216 q 227 313 229 292 q 224 350 225 334 q 222 375 223 365 q 220 390 221 385 q 219 398 220 395 q 217 401 218 401 q 216 402 216 402 q 199 394 211 402 q 173 375 186 386 q 150 353 159 363 q 106 239 106 309 l 106 231 q 120 142 106 188 q 152 74 134 97 q 171 61 162 61 q 197 73 180 61 m 248 515 q 250 496 249 503 q 253 490 252 490 q 254 503 254 492 q 252 530 254 514 q 247 588 251 547 q 239 673 243 628 q 232 778 234 734 q 230 880 230 821 q 231 958 230 923 q 232 1002 231 992 q 233 1017 233 1013 l 233 1019 q 231 1015 233 1019 q 225 978 228 1006 q 222 913 223 949 q 222 878 222 895 q 222 846 222 861 q 227 769 223 820 q 235 666 231 718 q 243 570 239 613 q 248 515 247 528 m 269 164 q 270 182 270 171 q 269 218 270 194 q 266 277 268 241 q 261 346 263 313 q 260 389 260 378 q 256 416 260 416 q 254 413 255 416 q 254 402 254 410 q 254 379 254 394 q 257 338 255 363 q 260 277 258 313 q 263 220 262 251 q 264 192 264 205 q 263 168 264 179 l 263 148 q 264 127 263 127 q 269 164 266 127 m 288 353 q 288 363 288 357 q 288 372 288 368 l 287 374 q 286 363 286 374 q 287 351 286 351 l 288 353 m 295 165 l 295 205 l 294 210 q 294 186 294 210 q 294 161 294 161 l 295 165 m 305 996 q 306 1001 306 998 q 305 1005 306 1003 l 304 1006 q 303 1001 303 1006 q 304 996 303 996 l 305 996 m 348 335 q 349 349 349 340 q 348 363 349 357 q 347 367 348 367 l 347 350 q 347 332 347 332 l 348 335 m 351 130 q 352 138 352 134 q 351 146 352 142 l 351 147 q 350 138 350 147 q 351 129 350 129 l 351 130 m 652 872 q 650 768 650 838 l 650 697 q 651 603 650 661 q 652 489 651 545 q 655 434 654 434 q 656 490 656 434 q 656 629 656 547 q 656 715 656 675 q 659 894 656 816 q 671 1040 662 972 l 673 1053 l 670 1042 q 652 872 659 1004 m 683 3 q 684 7 684 4 q 683 17 684 9 q 681 39 682 24 q 676 106 680 54 q 669 220 673 157 q 663 326 667 283 q 659 372 660 368 l 658 372 q 656 361 656 372 q 657 340 656 353 q 670 122 661 281 q 674 64 671 92 q 679 20 677 37 q 683 3 682 3 m 684 565 l 684 638 l 683 646 q 682 639 682 646 q 682 602 682 631 l 682 561 q 683 556 682 556 l 684 565 m 684 823 l 684 866 l 683 871 q 682 846 682 871 q 683 819 682 819 l 684 823 m 687 928 q 688 937 688 932 q 687 946 688 942 l 686 949 q 685 939 686 949 q 686 927 686 927 l 687 928 m 690 982 q 691 987 691 984 q 690 993 691 990 l 690 994 q 688 988 689 994 q 690 981 688 981 l 690 982 m 694 264 q 694 267 694 264 q 694 271 694 269 q 692 272 693 272 q 692 269 692 272 l 692 264 q 693 264 692 264 l 694 264 m 701 112 q 702 120 702 116 q 701 128 702 125 l 701 130 q 699 120 699 130 q 701 111 699 111 l 701 112 m 743 943 q 743 913 743 943 q 743 882 743 882 l 744 887 q 745 912 745 898 q 744 937 745 926 l 743 943 m 744 661 q 745 684 745 671 q 744 706 745 696 l 743 711 l 743 707 q 743 684 743 702 q 743 659 743 665 l 743 656 l 744 661 m 747 1010 l 747 1012 q 745 1004 745 1012 q 747 997 745 997 l 747 998 q 748 1004 748 1001 q 747 1010 748 1008 m 747 490 q 748 509 748 498 q 747 528 748 519 l 747 532 l 747 528 q 746 509 746 524 q 747 488 746 493 l 747 486 l 747 490 m 758 162 q 759 171 759 165 q 758 180 759 176 l 758 182 q 757 172 757 182 q 758 161 757 161 l 758 162 z "},"I":{"ha":583,"x_min":0,"x_max":583,"o":"m 580 1084 q 583 1076 583 1080 q 582 1072 583 1075 q 576 1059 582 1069 q 504 1025 555 1025 q 447 1032 482 1025 q 384 1048 412 1039 q 364 1055 372 1053 q 355 1058 356 1058 q 354 1057 354 1058 q 355 1054 354 1057 q 358 1046 355 1051 q 360 1036 359 1044 q 362 1008 361 1028 q 363 951 363 989 q 364 853 363 914 q 364 701 364 791 q 364 484 364 610 q 365 93 364 250 q 367 -74 366 -65 q 370 -78 368 -77 q 376 -79 372 -79 q 390 -77 381 -79 q 423 -72 404 -76 q 456 -64 441 -68 q 475 -58 471 -60 q 482 -56 477 -56 q 487 -56 483 -56 q 496 -58 490 -56 q 505 -62 498 -60 q 519 -65 512 -64 q 525 -66 523 -66 l 528 -66 q 536 -68 531 -66 q 548 -75 541 -71 q 558 -83 554 -79 q 565 -102 565 -92 q 565 -109 565 -103 q 556 -125 565 -115 q 500 -149 541 -142 q 469 -151 486 -151 q 414 -145 443 -151 q 391 -140 403 -143 q 371 -135 379 -138 q 355 -132 361 -132 q 349 -134 351 -132 q 339 -136 346 -136 q 327 -135 336 -136 q 307 -130 319 -134 q 294 -121 294 -125 q 293 -120 294 -120 q 292 -120 292 -119 l 290 -120 q 285 -119 288 -120 q 276 -114 281 -117 q 250 -101 262 -104 q 222 -97 239 -97 l 220 -97 q 110 -134 166 -97 l 98 -141 l 68 -125 q 35 -105 41 -113 q 33 -97 33 -102 q 37 -85 33 -92 q 100 -40 53 -55 q 154 -31 127 -31 q 189 -35 172 -31 q 192 -36 191 -36 q 194 -35 193 -36 q 195 -28 195 -35 q 193 -9 195 -22 q 178 247 182 119 q 174 608 174 375 q 175 872 174 779 q 182 1022 177 965 l 185 1048 l 174 1046 q 103 1009 138 1038 q 85 996 94 1001 q 75 990 77 990 q 60 995 71 990 q 35 1007 49 1000 q 1 1030 6 1021 q 0 1037 0 1033 q 8 1057 0 1045 q 101 1116 31 1093 q 200 1135 156 1135 q 320 1113 243 1135 q 407 1093 380 1097 q 432 1090 420 1090 q 453 1093 444 1090 q 473 1098 463 1095 q 486 1104 482 1101 q 507 1111 496 1109 l 511 1111 q 521 1107 518 1111 q 524 1105 522 1106 q 530 1104 527 1104 q 535 1103 533 1104 q 537 1101 537 1102 q 540 1099 537 1099 l 547 1099 l 552 1099 q 556 1099 554 1099 q 560 1097 559 1098 q 563 1094 561 1095 q 568 1093 566 1093 q 574 1090 571 1093 q 580 1084 578 1088 m 222 -18 q 221 17 222 -7 q 218 80 220 42 q 213 222 214 127 q 210 521 211 317 l 210 667 q 211 895 210 798 q 218 1044 212 991 q 219 1051 219 1048 q 218 1055 219 1055 q 216 1053 218 1055 q 209 972 212 1041 q 203 800 205 904 q 202 701 202 753 q 205 369 202 570 q 215 58 209 167 q 220 -8 218 16 q 222 -27 221 -27 l 222 -18 m 233 586 q 233 680 233 629 q 233 775 233 732 l 233 798 q 232 779 232 798 q 232 682 232 760 l 232 576 q 233 564 232 564 l 233 586 m 236 183 q 237 192 237 187 q 237 201 237 197 l 236 204 q 235 193 235 204 q 235 182 235 182 l 236 183 m 237 941 l 237 960 q 235 962 236 962 q 235 951 235 962 q 235 939 235 939 q 237 941 236 939 m 240 1008 q 241 1015 241 1012 q 240 1021 241 1019 l 239 1023 q 238 1015 238 1023 q 239 1007 238 1007 l 240 1008 m 290 907 l 290 912 q 289 885 289 912 l 289 859 q 290 856 289 856 l 290 861 l 290 907 m 290 417 l 290 543 l 290 558 q 289 545 289 558 q 289 480 289 532 l 289 410 q 290 402 289 402 l 290 417 m 290 155 l 290 194 l 290 199 q 289 176 289 199 l 289 153 q 290 151 289 151 l 290 155 m 294 998 q 294 1008 294 1002 q 294 1019 294 1015 l 293 1022 q 292 1010 292 1022 q 293 996 292 996 l 294 998 z "},"J":{"ha":663,"x_min":0,"x_max":707,"o":"m 699 1120 q 707 1106 707 1114 q 694 1083 707 1096 q 655 1062 679 1068 q 587 1055 631 1056 q 536 1049 536 1054 q 538 1031 536 1048 q 545 994 541 1015 q 565 820 555 930 q 582 604 576 709 q 597 311 591 440 q 598 241 598 275 q 570 24 598 111 q 460 -100 541 -62 q 337 -130 400 -130 q 309 -129 323 -130 q 240 -113 275 -125 q 151 -74 205 -101 q 72 -27 95 -46 q 34 20 48 -9 q 6 112 15 58 q 1 172 1 143 q 4 213 1 193 q 10 237 7 229 q 19 250 13 244 q 33 257 25 254 q 47 259 41 260 q 56 256 54 259 q 61 252 56 254 q 73 250 66 251 q 84 249 79 250 q 90 245 89 247 q 92 243 90 244 l 96 243 q 105 235 100 243 q 115 212 111 226 q 119 189 119 199 q 132 108 119 159 q 163 22 146 57 q 189 -20 175 -3 q 210 -37 202 -37 q 236 -32 218 -37 q 272 -20 254 -26 q 300 -7 290 -13 q 385 179 366 31 q 390 292 390 218 q 385 491 390 371 q 380 611 382 543 q 376 732 377 679 q 372 845 374 784 q 368 948 370 906 q 367 1021 367 988 l 367 1061 l 370 1079 l 335 1079 q 304 1078 321 1079 q 275 1074 286 1076 q 191 1045 233 1066 q 123 1000 149 1025 q 103 976 115 991 q 82 947 92 961 q 73 930 73 933 q 71 926 73 928 q 67 922 69 924 q 62 921 66 921 q 55 922 60 921 q 33 931 50 924 q 14 941 20 937 q 5 948 8 945 q 1 958 3 952 q 0 969 0 963 q 23 1030 0 994 q 90 1097 45 1065 q 254 1145 155 1143 q 278 1146 266 1146 q 328 1143 299 1146 q 420 1131 357 1141 q 481 1126 452 1126 q 576 1139 531 1126 q 618 1148 606 1148 l 623 1148 q 632 1145 629 1147 q 635 1143 635 1144 q 640 1141 635 1142 q 650 1138 644 1139 q 662 1136 656 1137 l 671 1136 q 683 1132 675 1136 q 699 1120 691 1127 m 25 130 q 26 135 26 132 q 25 140 26 138 l 24 142 q 23 136 24 142 q 24 130 23 130 l 25 130 m 25 210 q 26 216 26 213 q 25 222 26 220 l 24 224 q 24 216 24 224 q 24 209 24 209 l 25 210 m 420 1057 q 419 1049 419 1057 q 420 1040 419 1040 l 420 1041 q 421 1048 421 1044 q 420 1055 421 1052 l 420 1057 m 420 157 q 428 285 428 200 q 424 434 428 348 q 418 578 422 491 q 411 743 414 665 q 405 887 408 819 q 400 986 402 956 q 399 1036 399 1014 l 399 1065 q 400 1073 400 1070 l 400 1074 q 399 1075 400 1075 q 397 1073 399 1075 q 394 1063 395 1072 l 394 1051 q 394 1028 394 1044 q 396 975 395 1013 q 401 868 398 934 q 406 743 404 802 q 411 621 408 682 q 415 523 414 559 q 421 291 421 382 q 417 176 421 216 q 411 137 414 155 q 406 109 408 118 q 401 87 401 91 q 401 87 401 87 q 408 104 402 87 q 414 129 411 113 q 420 157 418 144 m 442 610 q 443 616 443 612 q 442 622 443 619 l 441 623 q 441 616 441 623 q 441 608 441 608 l 442 610 m 446 519 q 446 523 446 521 q 446 528 446 526 l 445 528 q 444 523 444 528 q 444 517 444 517 q 446 519 445 517 m 449 159 q 450 163 450 161 q 449 168 450 165 l 448 168 q 448 163 448 168 q 448 157 448 157 l 449 159 m 452 374 q 451 368 452 374 q 452 361 451 361 l 453 361 q 454 367 454 363 q 453 372 454 370 l 452 374 m 453 194 q 454 202 454 198 q 453 210 454 207 l 452 212 q 452 202 452 212 q 452 193 452 193 l 453 194 m 510 128 q 511 134 511 131 q 510 140 511 138 l 509 142 q 508 134 508 142 q 509 127 508 127 l 510 128 m 513 165 q 514 177 514 171 q 513 189 514 184 l 513 191 q 512 177 512 191 q 513 163 512 163 l 513 165 z "},"K":{"ha":924,"x_min":0,"x_max":903,"o":"m 873 358 q 898 245 890 312 q 903 164 903 203 q 901 119 903 141 q 886 9 896 52 q 858 -70 876 -34 q 835 -103 845 -96 q 827 -106 831 -106 q 813 -100 820 -106 q 809 -98 811 -98 q 805 -99 806 -98 q 802 -100 804 -100 q 793 -97 799 -100 q 780 -91 787 -95 q 772 -83 773 -87 l 772 -81 q 772 -79 772 -79 q 770 -82 771 -79 q 767 -84 768 -84 q 765 -84 766 -84 q 758 -80 763 -84 q 748 -74 754 -77 q 735 -67 741 -70 q 724 -61 729 -64 q 718 -56 720 -58 q 715 -53 717 -54 q 713 -52 714 -52 q 710 -53 711 -52 q 708 -54 709 -54 q 704 -52 707 -54 q 698 -47 701 -50 q 693 -35 694 -43 q 692 -30 692 -33 q 695 -11 692 -23 q 703 31 697 2 q 718 138 713 75 q 722 229 722 188 l 722 252 q 716 338 720 300 q 709 385 712 376 q 706 390 707 390 l 706 389 q 707 382 706 387 q 711 341 709 370 q 714 280 713 313 q 715 227 715 248 q 710 122 715 182 q 698 28 705 62 q 692 -1 694 13 q 688 -22 689 -15 q 677 -40 686 -40 q 664 -33 672 -40 l 654 -24 l 664 28 q 672 86 667 50 q 679 154 676 122 q 683 228 682 199 q 680 300 683 257 q 676 358 678 331 q 671 397 673 385 q 654 446 667 417 q 629 492 642 475 l 622 503 l 593 500 q 536 491 562 498 q 477 467 510 484 l 437 446 l 439 404 q 446 198 446 283 q 444 102 446 165 q 423 -31 441 39 q 353 -136 402 -115 q 321 -144 336 -143 l 313 -144 q 284 -142 301 -144 q 260 -137 273 -140 q 240 -131 248 -134 q 186 -106 223 -125 q 114 -68 149 -87 q 71 -43 79 -50 q 40 -2 56 -27 q 17 44 24 24 q 11 76 14 54 q 4 121 7 98 q 0 161 1 147 l 0 170 q 1 190 0 179 q 5 222 2 200 q 24 289 12 262 q 57 339 35 315 q 192 445 105 392 l 242 475 l 240 514 q 235 709 235 604 q 235 790 235 723 q 240 957 235 858 q 252 1090 244 1057 q 260 1104 254 1097 q 270 1114 265 1111 q 273 1115 272 1115 q 277 1112 275 1115 q 279 1109 277 1109 q 283 1112 281 1109 q 288 1112 285 1112 q 293 1112 289 1112 q 301 1109 296 1112 q 306 1104 306 1107 q 308 1103 306 1103 l 309 1103 q 313 1103 311 1103 l 315 1103 q 322 1099 321 1103 q 326 1096 323 1096 l 326 1096 q 330 1097 328 1096 q 332 1099 331 1099 q 334 1098 333 1099 q 335 1089 334 1097 q 336 1082 335 1082 q 337 1086 336 1082 q 347 1096 338 1096 q 361 1092 353 1096 q 383 1074 376 1086 q 393 1037 389 1063 q 402 955 396 1019 q 414 810 408 891 q 424 661 420 730 q 428 611 426 631 q 431 591 430 591 q 448 601 434 591 q 480 626 462 611 q 517 657 499 641 q 588 728 550 686 q 646 800 627 770 q 726 972 700 882 q 738 1009 732 994 q 745 1028 743 1025 q 754 1032 747 1031 q 767 1033 761 1033 q 772 1029 772 1032 q 775 1026 772 1027 q 780 1025 777 1025 q 785 1024 783 1025 q 787 1021 787 1023 q 788 1019 787 1019 q 791 1022 789 1019 q 793 1025 792 1025 q 794 1021 794 1025 q 795 1015 794 1015 q 798 1019 795 1015 q 801 1023 800 1022 q 803 1024 802 1024 q 806 1023 804 1024 q 813 1019 808 1022 q 830 1001 823 1013 q 837 977 837 989 q 829 937 836 965 q 814 886 823 909 q 744 751 789 822 q 693 680 717 709 q 635 615 670 651 l 593 574 l 618 566 q 643 560 629 564 q 667 553 656 556 q 732 527 700 545 q 785 490 765 509 q 834 426 808 467 q 873 358 861 386 m 23 155 q 24 167 24 160 q 23 180 24 174 l 22 183 q 22 168 22 183 q 22 153 22 153 q 23 155 23 153 m 26 119 q 27 124 27 121 q 26 128 27 126 l 26 129 q 24 124 24 129 q 26 119 24 119 l 26 119 m 26 199 q 27 206 27 202 q 26 214 27 210 l 26 216 q 25 208 25 216 q 26 199 25 199 q 26 199 26 199 m 30 230 q 31 234 31 232 q 30 239 31 237 l 29 239 q 28 234 28 239 q 29 229 28 229 l 30 230 m 33 250 q 35 252 35 250 q 34 256 35 254 q 33 258 33 258 q 32 254 32 258 l 32 250 l 33 250 l 33 250 m 237 120 q 242 203 240 151 q 245 301 245 256 q 243 353 245 347 q 240 356 242 356 q 237 355 239 356 q 227 348 235 355 q 203 325 219 340 q 150 252 163 286 q 137 166 137 220 l 137 144 q 140 95 137 116 q 157 36 144 74 q 171 1 163 18 q 188 -28 180 -17 q 198 -39 195 -39 l 199 -39 q 205 -31 201 -37 q 214 -14 209 -24 q 223 9 220 -3 q 228 41 226 22 q 232 79 229 56 q 237 120 235 101 m 274 1081 q 266 962 269 1061 q 264 821 264 897 q 264 744 264 784 q 275 494 268 494 q 277 501 277 494 q 276 511 277 505 q 271 621 273 536 q 269 801 269 705 l 269 847 q 270 956 269 912 q 273 1040 272 1004 q 275 1081 275 1075 l 277 1092 l 274 1081 m 274 120 q 278 174 276 134 q 280 262 279 215 q 281 307 281 286 q 280 354 281 328 q 278 380 280 380 q 273 256 275 380 q 266 92 271 132 q 258 27 260 50 q 258 15 258 19 q 258 11 258 11 q 260 12 259 11 q 263 29 261 16 q 267 59 265 42 q 271 93 269 75 q 274 120 273 110 m 290 26 q 291 31 291 28 q 290 35 291 33 q 289 37 290 37 q 288 31 288 37 q 290 26 288 26 l 290 26 m 291 841 l 291 918 l 290 927 q 290 919 290 927 q 290 880 290 911 l 290 837 q 290 832 290 832 l 291 841 m 294 59 q 294 63 294 61 q 294 68 294 66 l 293 68 q 292 63 292 68 q 293 58 292 58 l 294 59 m 294 682 q 295 691 295 686 q 294 701 295 696 l 294 703 q 292 692 293 703 q 294 681 292 681 l 294 682 m 297 89 q 298 92 298 90 q 298 96 298 94 q 296 98 297 98 q 296 94 296 98 l 296 90 l 296 89 l 297 89 m 301 116 q 302 120 302 118 q 301 125 302 123 l 300 125 q 299 120 299 125 q 300 115 299 115 q 301 116 300 115 m 304 153 q 305 163 305 157 q 304 173 305 168 l 304 174 q 303 163 303 174 q 304 151 303 151 l 304 153 m 304 351 q 305 366 305 358 q 304 381 305 374 l 304 385 q 303 381 304 385 q 303 366 303 378 q 304 349 303 354 q 304 348 304 348 l 304 351 m 351 14 q 352 17 351 15 q 351 21 352 19 q 350 22 351 22 q 349 19 349 22 q 349 15 349 16 l 350 14 l 351 14 m 355 41 q 355 45 355 43 q 355 50 355 47 q 353 51 354 51 q 353 45 353 51 q 354 40 353 40 l 355 41 m 358 66 q 359 71 359 68 q 358 77 359 74 l 357 78 q 357 72 357 78 q 357 65 357 65 l 358 66 m 361 96 q 362 103 362 99 q 361 111 362 107 l 361 113 q 360 104 360 113 q 361 95 360 95 l 361 96 m 361 363 q 362 370 362 366 q 361 378 362 374 l 361 380 q 360 372 360 380 q 361 362 360 362 l 361 363 m 366 161 q 366 191 366 175 q 366 221 366 208 l 365 227 q 364 190 364 227 q 365 156 364 165 l 365 153 l 366 161 m 739 60 q 740 63 740 62 q 740 67 741 65 q 739 69 739 69 q 737 65 738 69 q 738 61 737 62 l 739 60 l 739 60 m 743 89 q 744 96 744 92 q 743 103 744 100 l 743 105 q 742 97 742 105 q 743 88 742 88 q 743 89 743 88 m 747 130 q 747 138 747 134 q 747 146 747 142 l 746 147 q 745 138 745 147 q 746 129 745 129 l 747 130 m 750 174 q 751 185 751 179 q 751 196 751 191 l 750 199 q 749 186 749 199 q 749 172 749 172 l 750 174 m 804 36 q 804 39 804 37 q 804 43 804 41 q 802 44 803 44 q 802 40 802 44 q 802 36 802 37 q 803 35 802 35 l 804 36 m 807 60 q 808 67 808 63 q 808 75 808 71 q 806 77 807 77 q 806 68 806 77 q 806 60 806 60 q 807 60 807 60 m 811 94 q 812 103 812 98 q 811 112 812 108 l 810 115 q 810 104 810 115 q 810 93 810 93 l 811 94 m 814 142 q 815 160 815 150 q 814 178 815 170 l 814 182 q 813 161 813 182 q 814 141 813 146 l 814 138 l 814 142 z "},"L":{"ha":973,"x_min":0,"x_max":973,"o":"m 947 24 q 973 -12 973 10 l 973 -14 q 904 -98 971 -62 q 750 -128 849 -128 q 694 -126 724 -128 q 593 -116 643 -123 q 464 -90 543 -108 q 402 -77 429 -83 q 368 -71 375 -72 l 351 -68 l 319 -100 q 253 -148 282 -138 q 218 -154 238 -154 q 182 -149 201 -154 q 96 -116 137 -140 q 73 -103 86 -110 q 49 -92 60 -96 q 0 -50 0 -69 q 11 -30 0 -41 q 37 -12 22 -19 q 66 -3 46 -7 q 105 6 85 2 q 134 9 125 9 q 156 14 149 9 q 170 34 163 19 q 189 99 181 58 q 204 215 197 140 q 208 320 206 243 l 208 372 q 207 501 208 427 q 203 639 206 575 q 202 729 202 683 q 204 849 202 775 q 214 998 207 922 q 231 1091 222 1073 q 241 1103 236 1098 q 251 1109 246 1107 q 254 1110 252 1110 q 256 1108 256 1110 q 259 1106 257 1106 l 266 1106 q 271 1107 269 1107 q 277 1103 275 1107 q 280 1100 277 1101 q 287 1099 283 1099 l 290 1099 q 295 1098 292 1099 q 300 1095 298 1097 q 312 1092 303 1092 l 317 1092 q 324 1093 321 1093 q 330 1092 328 1093 q 334 1088 333 1091 q 337 1084 335 1086 l 342 1084 q 356 1074 348 1084 q 369 1049 364 1064 q 384 930 374 1029 q 404 704 393 832 q 421 467 414 576 q 424 357 424 418 q 423 260 424 327 q 416 145 422 193 q 403 71 410 106 q 389 16 395 36 l 382 -4 l 406 -9 q 613 -33 513 -33 l 621 -33 q 728 -21 684 -33 q 819 22 772 -9 q 852 41 842 36 q 871 45 862 45 q 884 44 878 45 q 892 40 890 42 q 899 37 896 38 q 901 37 901 37 l 903 37 q 904 37 903 37 q 906 36 905 37 q 908 31 907 35 q 910 26 909 26 q 915 30 911 26 q 919 35 918 35 q 920 29 920 35 q 921 25 920 25 q 922 26 922 25 q 928 31 924 31 q 947 24 935 31 m 252 1074 q 252 1080 252 1078 l 252 1081 q 250 1077 252 1081 q 235 874 241 1057 q 233 776 233 819 q 233 736 233 766 q 236 644 233 706 q 241 412 241 532 q 240 322 241 397 q 234 188 240 248 q 224 111 230 146 q 216 64 219 75 q 214 60 214 61 q 215 60 214 60 l 217 63 q 221 78 218 66 q 228 104 224 90 q 243 222 239 159 q 247 361 247 276 l 247 391 q 245 513 247 450 q 242 614 244 576 q 239 747 239 672 q 239 818 239 763 q 243 956 239 873 q 252 1074 246 1039 m 274 513 l 273 516 q 273 496 273 516 l 273 479 q 273 477 273 477 l 274 481 q 274 498 274 489 q 273 513 274 507 l 274 513 m 262 137 q 263 142 263 139 q 262 146 263 144 l 262 147 q 261 142 261 147 q 262 136 261 136 l 262 137 m 267 658 q 267 662 267 660 q 267 667 267 665 l 266 667 q 264 662 264 667 q 265 656 264 656 q 267 658 266 656 m 267 165 q 267 170 267 168 q 267 176 267 174 l 266 178 q 264 172 265 178 q 266 165 264 165 l 267 165 m 267 993 q 267 1001 267 996 q 267 1008 267 1005 l 266 1010 q 265 1001 265 1010 q 266 991 265 991 l 267 993 m 270 199 q 271 206 271 202 q 270 214 271 210 l 269 216 q 269 208 269 216 q 269 199 269 199 q 270 199 270 199 m 273 248 q 274 259 274 252 q 274 273 274 267 l 273 273 q 273 276 273 276 l 272 261 q 273 246 272 246 q 273 248 273 246 m 323 100 q 324 102 324 101 q 323 106 324 104 q 322 108 323 108 q 321 104 321 108 l 321 100 l 322 100 l 323 100 m 327 123 q 328 127 328 125 q 327 134 328 131 l 326 135 q 326 129 326 135 q 326 122 326 122 q 327 123 327 122 m 330 153 q 331 159 331 156 q 330 165 331 163 l 330 167 q 329 159 329 167 q 330 152 329 152 l 330 153 m 334 189 q 335 199 335 193 q 334 208 335 204 l 334 210 q 333 199 333 210 q 334 187 333 187 l 334 189 m 338 278 q 338 327 338 300 q 338 378 338 354 l 338 390 q 337 380 337 390 q 337 329 337 370 l 337 273 q 338 267 337 267 l 338 278 z "},"M":{"ha":1265,"x_min":0,"x_max":1204,"o":"m 1203 202 q 1204 84 1204 133 q 1204 4 1204 36 q 1204 -46 1204 -27 q 1203 -74 1204 -64 q 1201 -87 1202 -83 q 1198 -95 1200 -92 q 1191 -106 1194 -104 q 1187 -106 1190 -106 q 1181 -106 1184 -106 q 1170 -104 1176 -105 q 1160 -103 1164 -103 q 1152 -101 1156 -102 q 1146 -98 1148 -100 q 1141 -95 1144 -96 q 1137 -94 1139 -94 q 1134 -92 1135 -94 q 1132 -87 1133 -90 q 1131 -84 1132 -84 q 1130 -85 1131 -84 q 1127 -86 1129 -86 q 1121 -85 1126 -86 q 1108 -79 1116 -83 q 1097 -71 1101 -75 q 1092 -66 1095 -68 q 1086 -65 1088 -65 q 1081 -64 1083 -65 q 1079 -62 1079 -63 q 1077 -59 1079 -60 q 1072 -58 1075 -58 q 1066 -56 1069 -58 q 1059 -51 1062 -54 q 1052 -46 1057 -48 q 1043 -44 1047 -44 q 1024 -35 1034 -44 q 1011 -13 1015 -26 q 1005 49 1008 0 q 1002 163 1003 98 q 1002 227 1002 196 q 1002 288 1002 258 q 1006 407 1004 336 q 1011 541 1008 479 q 1015 643 1014 602 q 1017 686 1017 684 q 997 648 1014 686 q 959 552 981 609 q 920 443 938 495 q 877 303 893 361 q 845 177 860 244 q 813 45 825 87 q 788 -11 800 4 q 781 -19 783 -17 q 772 -22 778 -22 q 757 -20 768 -22 q 740 -18 747 -20 q 730 -14 732 -16 q 721 -9 728 -13 q 702 1 713 -5 q 684 11 692 5 q 673 18 675 16 q 668 22 671 20 q 663 24 665 24 q 651 28 659 24 q 636 37 644 32 q 630 41 634 39 q 621 44 625 43 q 585 67 597 49 q 555 178 568 100 q 541 343 543 256 q 540 387 541 366 q 538 418 539 408 q 535 500 538 435 q 528 655 532 566 q 523 763 526 707 q 516 840 519 819 l 513 860 l 503 831 q 418 477 470 753 q 399 384 408 425 q 389 332 391 342 q 373 250 384 310 q 351 124 362 191 q 332 12 339 57 q 320 -62 325 -38 q 312 -97 316 -87 q 303 -114 309 -107 q 284 -125 294 -125 q 273 -123 279 -125 q 269 -121 271 -121 q 266 -120 267 -120 q 264 -121 265 -120 l 263 -121 q 251 -117 260 -121 q 228 -106 241 -113 q 198 -91 214 -99 q 172 -76 182 -82 q 151 -66 161 -71 q 136 -60 141 -62 q 85 -5 110 -52 q 45 111 60 42 q 23 273 34 170 q 7 454 12 376 q 6 494 7 476 q 4 517 5 513 q 2 549 3 523 q 1 608 1 574 q 0 660 0 635 q 5 779 0 717 q 22 865 10 840 q 32 879 26 871 q 45 892 39 886 q 55 897 52 897 q 58 895 57 897 q 60 888 60 892 l 60 878 l 66 886 q 77 892 71 892 q 81 892 77 892 q 84 885 84 892 q 87 882 84 882 q 92 882 90 882 q 94 883 93 883 q 97 882 96 883 q 98 880 98 882 q 102 878 98 878 q 107 878 104 878 q 111 879 109 879 q 116 877 114 879 q 121 868 118 876 q 126 860 125 860 q 127 864 127 860 q 131 873 127 872 q 132 874 132 874 q 136 869 134 874 q 139 863 138 863 q 141 865 140 863 q 153 871 145 871 q 158 871 154 871 q 169 864 163 871 q 175 859 172 861 q 182 857 179 857 l 183 857 q 206 838 193 857 q 225 789 218 818 q 243 635 232 755 q 262 398 255 515 q 266 351 264 373 q 269 320 268 329 l 271 300 l 276 316 q 307 437 288 358 q 343 604 325 515 q 383 788 366 720 q 427 935 400 856 q 503 1098 472 1070 q 517 1109 511 1107 q 523 1110 519 1110 q 531 1109 526 1110 q 544 1106 538 1108 q 553 1102 550 1104 q 582 1092 562 1097 q 613 1086 601 1086 q 624 1084 618 1086 q 635 1080 631 1082 q 645 1075 640 1077 q 655 1071 651 1072 q 675 1055 663 1068 q 696 1026 687 1042 q 727 918 708 1000 q 763 736 745 836 q 788 557 780 637 l 793 511 l 811 550 q 835 602 819 567 q 866 671 850 636 q 929 805 894 734 q 981 905 964 877 q 1017 953 1001 937 q 1034 964 1028 964 q 1038 961 1036 964 q 1042 960 1039 960 l 1046 960 q 1049 960 1047 960 q 1054 960 1050 960 q 1061 957 1057 959 q 1108 944 1088 944 q 1118 942 1114 944 q 1125 939 1123 941 q 1131 935 1127 936 q 1138 933 1135 933 q 1158 917 1147 933 q 1173 880 1168 901 q 1203 202 1200 782 m 83 492 l 83 493 q 82 484 82 493 q 83 475 82 475 l 83 476 q 84 484 84 479 q 83 492 84 488 m 80 823 l 79 825 q 78 815 78 825 q 79 806 78 806 l 80 807 q 81 815 81 811 q 80 823 81 820 m 78 546 q 79 537 78 537 l 80 538 q 80 545 80 541 q 80 553 81 549 l 79 555 q 78 546 79 555 m 77 761 l 76 766 q 75 762 75 766 q 75 737 75 757 l 75 710 q 76 707 75 707 l 77 713 l 77 761 m 77 654 l 76 659 q 75 655 75 659 q 75 633 75 650 l 75 611 q 76 608 75 608 l 77 613 l 77 654 m 87 93 q 87 95 87 94 q 87 102 87 97 q 85 117 86 107 q 67 275 77 166 q 52 477 58 384 q 45 680 45 592 q 54 844 45 779 q 55 853 55 850 q 54 856 55 856 q 53 854 54 856 q 39 672 39 824 q 52 354 39 519 q 65 234 58 294 q 78 133 72 174 q 87 93 84 93 m 87 412 q 87 420 87 415 q 87 428 87 424 l 86 429 q 85 420 85 429 q 86 410 85 410 l 87 412 m 144 690 q 144 701 144 695 q 144 713 144 707 l 143 715 q 142 701 142 715 q 143 688 142 688 l 144 690 m 598 134 q 604 115 602 115 l 604 116 q 600 153 604 122 q 591 246 594 193 q 587 347 587 300 q 582 493 587 391 q 573 678 578 596 q 564 782 570 724 q 554 883 559 840 q 547 926 549 926 l 547 921 q 547 905 547 917 q 549 872 547 894 q 569 605 564 733 q 572 535 570 568 q 574 491 574 503 q 577 438 576 478 q 580 349 578 397 q 586 221 582 269 q 598 134 590 173 m 608 618 q 608 627 608 622 q 608 635 608 631 l 607 636 q 606 627 606 636 q 607 617 606 617 l 608 618 m 611 549 q 612 559 612 553 q 611 570 612 565 l 610 573 q 610 560 610 573 q 610 547 610 547 l 611 549 m 614 475 q 615 488 615 481 q 614 500 615 495 l 614 504 q 613 489 613 504 q 614 474 613 474 q 614 475 614 474 m 618 380 l 618 417 l 618 421 q 617 417 617 421 q 617 398 617 414 l 617 378 q 618 376 617 376 l 618 380 m 622 240 q 623 260 623 248 q 622 279 623 271 l 621 284 q 621 261 621 284 l 621 239 q 621 236 621 236 l 622 240 m 689 472 q 690 477 690 474 q 689 483 690 480 l 688 484 q 688 479 688 484 q 688 471 688 471 q 689 472 689 471 m 693 361 q 694 380 694 370 q 693 399 694 391 l 692 404 l 692 400 q 692 380 692 396 q 692 359 692 365 l 692 357 l 693 361 m 1053 747 q 1053 755 1053 752 q 1053 758 1053 758 q 1051 757 1052 758 q 1041 578 1047 745 q 1036 318 1037 452 q 1035 194 1035 251 q 1036 66 1035 137 q 1041 -8 1037 -4 l 1041 57 q 1042 218 1042 122 q 1043 439 1042 323 q 1047 642 1045 555 q 1053 747 1050 729 m 1064 170 l 1064 221 l 1063 227 q 1063 222 1063 227 q 1063 195 1063 216 l 1063 166 q 1063 163 1063 163 l 1064 170 m 1067 389 q 1068 412 1068 399 q 1067 437 1068 426 l 1067 442 l 1067 437 q 1066 412 1066 433 q 1067 386 1066 393 l 1067 383 l 1067 389 m 1071 577 q 1072 595 1072 585 q 1071 613 1072 605 l 1070 618 q 1069 596 1069 618 q 1070 576 1069 581 l 1070 573 l 1071 577 m 1074 730 q 1075 745 1075 736 q 1074 759 1075 753 l 1074 762 q 1073 746 1073 762 q 1074 730 1073 734 l 1074 728 l 1074 730 m 1124 277 q 1125 427 1125 345 q 1124 577 1125 509 l 1124 612 l 1124 243 l 1124 277 z "},"N":{"ha":988,"x_min":0,"x_max":928,"o":"m 913 838 q 923 768 920 802 q 927 685 926 735 q 928 626 928 660 q 927 548 928 591 q 918 279 926 399 q 890 12 909 159 q 884 -36 886 -19 q 878 -61 881 -52 q 871 -76 876 -69 q 861 -89 865 -86 q 853 -92 858 -92 l 851 -92 q 810 -83 827 -90 q 792 -69 793 -77 q 791 -66 792 -66 q 790 -68 791 -66 q 786 -71 789 -71 q 781 -70 785 -71 q 770 -62 777 -68 q 766 -59 768 -60 l 765 -59 q 764 -60 764 -59 l 764 -60 q 760 -58 763 -60 q 753 -53 758 -57 q 744 -46 748 -49 q 737 -44 739 -44 q 733 -43 735 -44 q 732 -40 732 -41 q 729 -38 732 -39 q 724 -37 727 -37 q 716 -35 720 -37 q 711 -30 713 -33 q 694 -22 705 -22 q 671 -12 682 -22 l 659 -1 l 662 80 q 664 140 663 115 q 666 170 665 165 q 668 194 667 174 q 669 239 669 214 q 672 286 671 265 q 674 311 673 306 q 675 404 675 323 q 676 490 676 444 q 676 614 676 536 q 674 777 675 692 q 671 881 673 861 q 671 886 671 884 q 663 931 668 928 q 661 932 662 932 q 639 908 656 932 q 636 905 637 907 q 549 763 589 845 q 500 652 528 720 q 454 527 473 584 q 425 425 445 500 q 383 260 406 350 q 343 99 360 171 q 316 -13 330 41 q 293 -88 301 -66 q 286 -104 290 -96 q 277 -116 281 -112 q 264 -125 271 -123 l 261 -125 q 238 -122 254 -125 q 221 -117 232 -121 q 201 -107 211 -113 q 140 -75 160 -85 q 115 -64 121 -65 q 76 -35 95 -57 q 44 18 56 -12 q 2 295 18 96 q 0 400 0 325 q 1 556 0 475 q 5 682 2 636 q 43 940 16 883 q 58 961 49 951 q 75 975 66 970 q 83 979 80 979 q 86 977 85 979 q 91 975 87 975 q 100 974 95 974 l 102 974 q 120 968 112 974 q 127 964 123 966 q 133 963 131 963 l 135 963 q 141 961 138 963 q 146 955 144 959 q 149 949 149 950 l 150 949 q 152 952 151 949 q 157 958 154 958 q 159 957 157 958 q 162 948 161 956 l 162 945 q 163 941 162 941 q 165 947 163 941 q 175 957 169 955 l 177 957 q 186 952 182 957 q 192 947 189 949 q 196 947 194 947 l 198 947 q 213 938 203 947 q 228 916 222 928 q 238 827 235 904 q 242 555 241 750 q 248 298 244 298 q 259 335 250 303 q 281 412 269 368 q 306 498 294 458 q 323 555 317 538 q 389 731 349 634 q 463 899 429 829 q 604 1097 534 1038 q 618 1107 613 1104 q 629 1111 623 1110 q 644 1109 634 1111 q 663 1106 654 1109 q 677 1101 672 1103 q 709 1089 687 1095 q 750 1081 730 1084 q 767 1077 758 1080 q 784 1070 777 1074 q 797 1064 791 1067 q 806 1061 804 1061 q 816 1055 808 1061 q 833 1038 824 1048 q 913 838 888 986 m 69 73 q 44 440 44 205 q 45 519 44 479 q 71 911 49 808 q 73 926 72 920 l 73 928 q 72 930 73 930 q 57 865 65 922 q 44 732 50 808 q 39 595 41 684 q 38 460 38 527 q 38 384 38 439 q 40 286 38 328 q 49 184 43 239 q 62 89 56 129 q 71 50 68 50 q 72 52 72 51 q 71 59 72 54 q 69 73 71 64 m 75 381 l 75 531 l 75 549 l 75 534 q 74 457 74 519 q 75 374 74 395 l 75 364 l 75 381 m 78 251 q 79 256 79 253 q 79 262 79 259 q 77 263 78 263 q 77 258 77 263 q 77 250 77 250 q 78 251 78 250 m 79 650 q 79 669 79 659 q 79 690 79 681 l 78 694 q 77 671 77 694 q 78 649 77 655 l 78 646 l 79 650 m 82 736 q 83 747 83 741 q 82 759 83 754 l 81 762 q 81 747 81 762 q 81 734 81 734 l 82 736 m 85 789 q 86 798 86 793 q 85 807 86 803 l 85 810 q 84 800 84 810 q 85 788 84 788 l 85 789 m 89 834 q 90 840 90 837 q 89 846 90 844 l 88 848 q 87 840 87 848 q 88 833 87 833 l 89 834 m 93 868 q 94 872 94 870 q 93 877 94 875 l 92 878 q 91 872 91 878 q 92 867 91 867 l 93 868 m 146 366 l 146 559 l 146 583 l 146 562 q 145 463 145 543 q 146 354 145 382 l 146 342 l 146 366 m 150 702 q 151 726 151 713 q 150 750 151 739 l 149 756 l 149 751 q 149 726 149 746 q 149 699 149 707 l 149 696 l 150 702 m 153 809 q 154 826 154 817 q 153 843 154 836 l 153 847 l 153 844 q 152 826 152 840 q 153 807 152 812 l 153 805 l 153 809 m 157 877 q 157 883 157 880 q 157 889 157 886 l 156 890 q 155 883 155 890 q 156 876 155 876 l 157 877 m 718 315 q 722 479 721 362 l 722 594 q 721 735 722 652 q 718 852 720 819 q 711 907 715 881 q 704 951 707 934 q 699 968 701 968 q 698 966 698 968 l 698 960 q 708 874 705 933 q 714 699 712 814 q 716 560 716 629 q 705 220 716 385 q 701 140 703 182 q 698 62 699 97 l 698 9 q 700 22 699 9 q 704 75 701 38 q 709 153 706 112 q 714 239 711 193 q 718 315 717 285 m 731 28 q 732 42 732 35 q 731 55 732 49 l 730 58 q 730 56 730 58 q 730 42 730 53 l 730 27 q 730 25 730 25 l 731 28 m 734 83 q 735 92 735 87 q 734 102 735 97 l 734 104 q 733 94 733 104 q 734 82 733 82 l 734 83 m 738 128 q 739 138 739 132 q 738 150 739 144 l 737 153 q 736 140 736 153 q 737 126 736 126 l 738 128 m 742 183 l 742 208 l 741 212 q 740 197 741 212 q 741 182 740 182 l 742 183 m 745 241 q 746 252 746 245 q 745 265 746 260 l 745 269 q 744 254 744 269 q 745 239 744 239 l 745 241 m 749 303 q 749 319 749 311 q 749 335 749 328 l 748 338 q 747 318 747 338 q 748 300 747 304 l 748 299 l 749 303 m 752 774 l 752 782 q 751 774 751 782 q 751 737 751 767 l 751 696 q 752 692 751 692 l 752 701 q 753 737 753 717 q 752 774 753 757 m 752 378 q 753 398 753 387 q 752 418 753 410 l 752 424 q 751 419 751 424 q 751 398 751 415 l 751 376 q 752 373 751 373 l 752 378 m 756 488 l 756 574 l 755 584 q 755 532 755 584 q 755 479 755 479 l 756 488 m 799 12 q 799 21 799 16 q 799 30 800 26 l 798 33 q 797 22 798 33 q 798 11 797 11 l 799 12 m 802 48 q 803 56 803 52 q 802 66 803 62 l 802 68 q 801 58 801 68 q 802 46 801 46 l 802 48 m 806 85 q 806 95 806 90 q 806 105 806 100 l 805 106 q 804 95 804 106 q 805 83 804 83 l 806 85 m 826 539 l 827 732 l 825 541 q 821 381 823 456 q 817 268 819 306 q 812 200 814 233 q 809 151 810 167 l 807 115 l 810 145 q 814 192 812 159 q 819 261 817 224 q 826 539 826 342 z "},"O":{"ha":966,"x_min":0,"x_max":946,"o":"m 914 746 q 942 611 935 675 q 946 528 946 573 q 944 462 946 496 q 918 248 939 336 q 853 67 898 159 q 740 -91 804 -34 q 609 -147 675 -147 q 588 -146 597 -146 q 574 -145 578 -146 q 481 -122 524 -138 q 367 -70 438 -106 q 307 -38 327 -50 q 276 -19 286 -27 q 254 0 265 -11 q 161 250 170 89 q 159 285 160 271 q 157 300 158 299 q 146 308 155 302 q 124 319 137 313 q 63 366 92 337 q 20 423 35 394 q 3 475 7 449 q 0 517 0 492 q 1 543 0 529 q 69 806 8 678 q 323 1058 162 980 q 391 1081 360 1074 q 467 1088 421 1087 q 493 1089 481 1089 q 519 1088 505 1089 q 556 1083 534 1087 q 614 1068 578 1078 q 803 961 716 1044 q 865 880 840 928 q 914 746 889 833 m 24 502 q 24 523 24 511 q 24 545 24 535 l 23 550 q 22 524 22 550 q 23 498 22 498 l 24 502 m 29 592 q 30 604 30 601 l 30 606 q 28 603 29 606 q 26 593 27 599 q 25 581 26 587 l 25 572 q 26 569 25 569 q 27 577 26 570 q 29 592 28 583 m 34 618 q 35 623 35 620 q 34 627 35 625 q 33 628 33 628 q 32 623 32 628 q 33 617 32 617 l 34 618 m 37 636 q 38 640 38 638 q 37 645 38 643 l 37 646 q 36 640 36 646 q 37 635 36 635 l 37 636 m 41 652 q 42 655 42 653 q 41 659 42 656 q 40 661 41 661 q 39 656 39 661 l 39 652 l 40 652 l 41 652 m 45 666 q 45 669 45 667 q 45 673 45 671 q 43 675 44 675 q 43 671 43 675 l 43 667 q 44 666 43 666 l 45 666 m 84 511 q 85 515 85 513 q 84 520 85 518 l 83 521 q 82 515 82 521 q 83 510 82 510 q 84 511 83 510 m 203 184 q 208 168 207 168 q 209 170 209 168 q 206 195 209 176 q 204 222 205 206 q 203 251 203 238 q 199 280 203 280 q 196 262 196 280 q 198 222 196 244 q 203 184 199 200 m 234 324 q 235 334 235 328 q 234 343 235 339 l 233 345 q 233 334 233 345 q 233 322 233 322 l 234 324 m 237 363 q 238 370 238 366 q 237 377 238 374 l 237 379 q 236 371 236 379 q 237 362 236 362 q 237 363 237 362 m 241 393 q 241 398 241 395 q 241 404 241 401 l 240 406 q 239 399 239 406 q 240 393 239 393 l 241 393 m 244 416 q 245 420 245 418 q 244 423 245 421 l 243 425 q 242 421 243 425 q 243 417 242 418 l 243 416 l 244 416 m 258 624 q 266 652 263 641 q 269 664 269 662 l 269 665 q 259 641 267 665 q 242 580 252 617 q 223 506 232 543 q 209 442 214 468 q 200 387 203 413 q 197 347 197 361 q 200 334 197 334 q 201 334 201 334 q 203 347 201 336 q 206 374 205 358 q 226 496 212 429 q 258 624 240 564 m 302 214 q 302 227 302 220 q 302 240 302 234 l 301 243 q 300 241 300 243 q 300 227 300 238 l 300 212 q 301 210 300 210 l 302 214 m 310 348 q 312 362 311 355 q 313 373 313 369 q 312 376 313 376 q 309 368 311 376 q 308 354 309 361 q 307 342 307 347 q 307 338 307 338 q 310 348 308 338 m 315 387 q 316 391 316 389 q 315 395 316 393 l 315 396 q 314 391 314 396 q 315 385 314 385 l 315 387 m 736 176 q 806 393 782 269 q 825 572 825 488 q 823 622 825 597 q 792 785 816 704 q 738 916 768 867 q 695 965 723 937 q 645 1009 667 993 l 629 1020 l 576 1019 q 503 1014 532 1019 q 437 991 474 1008 q 213 767 297 926 q 155 600 175 690 q 140 484 140 533 q 142 450 140 465 q 150 410 145 427 q 159 388 155 393 q 161 387 161 387 q 163 397 163 387 q 169 435 163 406 q 183 501 175 465 q 198 566 191 537 q 324 852 248 747 q 374 895 347 880 q 404 905 392 905 q 416 903 411 905 q 420 901 418 901 l 421 901 q 422 902 422 901 l 424 902 q 429 901 425 902 q 437 897 432 900 q 447 892 442 894 q 452 892 450 892 l 454 892 q 458 892 456 892 q 461 890 460 892 q 465 887 462 888 q 470 886 467 886 q 475 885 473 886 q 478 882 477 884 q 480 880 478 880 q 487 883 483 880 q 494 886 491 886 l 496 886 q 503 881 498 885 q 509 876 506 878 q 515 875 513 875 l 517 875 q 532 861 524 875 q 541 842 539 852 l 541 840 q 534 809 541 829 q 512 749 528 789 q 489 688 500 720 q 472 638 477 657 q 445 538 458 593 q 422 441 431 483 q 414 397 414 407 q 415 395 414 395 q 433 410 418 395 q 467 446 448 425 q 498 486 486 468 q 517 514 508 499 q 531 537 526 528 q 541 553 537 549 q 550 557 545 557 q 557 557 554 557 q 559 555 559 556 q 565 551 559 553 q 577 548 570 549 q 585 547 582 547 l 589 547 q 593 546 591 547 q 595 544 595 545 q 596 541 595 541 q 597 542 597 541 q 600 543 599 543 q 606 537 602 543 q 609 523 609 532 q 591 473 609 508 q 547 401 573 439 q 495 336 521 363 q 452 298 476 316 q 409 273 427 281 q 398 259 401 271 q 395 224 395 249 l 395 213 q 416 49 396 118 q 470 -45 435 -20 q 491 -51 478 -51 q 507 -50 495 -51 q 541 -38 519 -48 q 736 176 659 27 m 818 334 q 819 338 819 336 q 819 342 819 340 q 817 343 818 343 q 816 339 817 343 q 817 335 816 336 l 817 334 l 818 334 m 822 349 q 823 352 823 350 q 822 356 823 354 q 821 357 821 357 q 820 353 820 357 l 820 349 q 821 349 821 349 l 822 349 m 825 367 q 826 370 826 368 q 825 374 826 372 l 825 375 q 823 372 824 375 q 824 367 823 368 l 825 367 m 829 385 q 829 387 829 385 l 829 389 q 829 391 829 390 l 828 393 q 827 389 827 393 q 827 385 827 387 l 828 385 l 829 385 m 833 404 q 833 408 833 406 q 833 413 833 411 l 832 414 q 831 408 831 414 q 832 404 831 404 l 833 404 m 836 425 q 837 431 837 427 q 836 436 837 433 l 836 437 q 834 432 835 437 q 836 425 834 425 l 836 425 m 840 452 q 840 459 840 455 q 840 467 840 463 l 839 469 q 838 460 838 469 q 839 451 838 451 l 840 452 m 844 640 q 842 641 843 641 q 842 635 842 641 q 842 628 842 628 l 843 629 q 844 633 844 631 l 844 637 l 844 640 m 844 488 q 844 498 844 492 q 844 509 844 504 l 843 512 q 842 499 842 512 q 843 486 842 486 l 844 488 m 847 554 q 848 569 848 561 q 847 584 848 577 l 846 587 l 846 585 q 846 569 846 581 q 846 552 846 557 l 846 551 l 847 554 z "},"P":{"ha":891,"x_min":0,"x_max":871,"o":"m 860 770 q 871 694 869 724 l 871 680 q 867 624 871 654 q 745 283 840 432 q 654 181 709 228 q 549 113 600 134 q 433 92 492 92 q 277 131 355 92 q 261 138 268 135 q 254 140 256 140 l 253 140 l 253 129 q 253 91 253 119 q 256 8 254 63 q 258 -87 258 -47 q 259 -119 259 -106 q 258 -134 259 -130 q 245 -159 255 -153 q 233 -161 241 -161 q 214 -159 225 -161 q 194 -150 210 -157 q 161 -133 179 -142 q 128 -116 143 -123 q 107 -106 113 -109 q 72 -81 90 -100 q 45 -41 55 -63 q 32 0 39 -27 q 19 57 25 26 q 1 295 5 132 q 0 410 0 352 q 5 623 0 515 q 7 677 5 640 q 10 756 8 715 q 43 1024 18 972 q 52 1038 47 1032 q 59 1045 56 1044 q 65 1047 62 1046 q 67 1050 67 1049 q 68 1053 67 1052 q 71 1054 69 1054 q 73 1052 72 1054 q 74 1046 74 1050 q 77 1040 74 1040 q 85 1045 79 1040 q 90 1048 87 1048 q 100 1044 93 1048 q 109 1039 105 1041 q 114 1035 113 1036 q 117 1034 115 1034 l 119 1034 q 123 1034 121 1034 q 127 1035 125 1035 q 131 1034 129 1035 q 135 1025 133 1032 q 139 1016 138 1017 q 142 1021 140 1016 q 149 1029 145 1028 l 149 1029 q 153 1023 153 1029 q 153 1019 153 1019 l 154 1019 q 158 1022 155 1019 q 171 1027 165 1027 q 183 1021 177 1027 q 190 1017 186 1019 q 197 1015 193 1015 q 215 1001 205 1015 q 229 968 225 987 q 233 942 231 960 q 236 907 235 925 q 238 873 237 890 q 240 848 239 856 l 242 829 l 262 863 q 300 922 281 899 q 351 979 318 946 q 458 1057 415 1043 q 523 1071 491 1071 q 576 1061 550 1071 q 602 1053 587 1057 q 630 1046 617 1049 q 790 944 728 1021 q 860 770 839 883 m 62 22 q 63 27 63 24 q 62 32 63 30 l 61 33 q 60 27 60 33 q 61 22 60 22 l 62 22 m 68 981 q 73 1011 73 1006 l 73 1013 q 65 989 71 1013 q 56 926 59 960 q 50 836 52 892 q 39 398 39 613 q 39 266 39 386 q 53 61 40 145 q 58 40 57 40 q 59 43 59 40 q 56 74 59 50 q 46 376 46 182 q 51 688 46 511 q 59 883 55 821 q 68 981 62 945 m 77 534 l 76 543 l 76 535 q 75 494 75 527 q 76 450 75 461 l 76 445 l 77 454 q 77 494 77 472 q 77 534 77 516 m 77 233 q 77 248 77 240 q 77 263 77 256 l 76 267 q 75 263 75 267 q 75 248 75 260 l 75 231 q 76 230 75 230 l 77 233 m 79 698 l 79 692 q 79 662 79 686 q 79 629 79 637 l 79 625 l 80 632 q 81 662 81 646 q 80 691 81 677 l 79 698 m 80 142 q 81 153 81 146 q 80 163 81 159 l 79 166 q 79 154 79 166 q 79 140 79 140 l 80 142 m 83 780 q 84 801 84 789 q 83 823 84 812 q 83 828 83 828 l 83 779 q 83 775 83 775 l 83 780 m 87 875 l 87 898 l 87 900 q 85 886 85 900 q 87 873 85 873 l 87 875 m 91 926 q 92 932 92 929 q 91 939 92 936 l 90 940 q 89 932 89 940 q 90 925 89 925 l 91 926 m 94 960 q 95 964 95 962 q 94 969 95 967 l 94 970 q 92 964 92 970 q 94 960 92 960 l 94 960 m 148 507 q 149 548 149 526 q 148 589 149 570 q 147 599 148 599 l 146 549 l 147 499 q 148 507 148 499 m 151 808 q 152 844 152 825 q 151 878 152 863 l 151 886 q 151 879 151 886 q 151 844 151 872 l 151 805 q 151 801 151 801 l 151 808 m 155 955 q 155 965 155 959 q 155 976 155 971 q 154 979 155 979 l 153 966 q 154 953 153 953 l 155 955 m 520 355 q 616 556 576 437 q 659 766 656 675 q 647 873 658 817 q 619 964 635 928 l 608 987 l 591 985 q 453 907 527 978 q 396 842 420 876 q 349 760 372 808 q 264 463 279 623 q 258 376 261 423 q 254 294 255 330 q 253 265 253 276 q 254 251 253 255 q 259 239 254 247 q 270 224 264 231 q 294 205 281 208 l 297 205 q 336 214 310 205 q 520 355 444 251 m 697 732 l 697 743 q 694 795 697 764 q 687 842 692 825 l 684 852 l 686 842 q 687 819 686 837 q 690 777 688 800 q 690 751 690 764 q 686 690 690 722 q 669 608 682 658 q 662 579 665 591 q 659 566 659 567 q 665 580 661 566 q 675 616 669 594 q 686 658 681 639 q 693 696 690 675 q 697 732 696 718 m 722 686 q 722 690 722 688 q 722 696 722 694 l 721 698 q 720 692 720 698 q 721 685 720 685 l 722 686 m 725 726 q 726 733 726 729 q 725 741 726 737 l 724 743 q 724 734 724 743 q 724 726 724 726 q 725 726 725 726 m 782 640 q 783 644 783 642 q 782 648 783 646 l 781 649 q 781 644 781 649 q 781 638 781 638 l 782 640 m 786 673 q 787 687 787 679 q 786 702 787 695 l 785 705 q 785 688 785 705 l 785 672 q 785 670 785 670 l 786 673 z "},"Q":{"ha":926,"x_min":0,"x_max":879,"o":"m 852 778 q 876 641 871 706 q 879 570 879 608 q 876 487 879 532 q 852 297 869 378 q 802 138 836 217 q 666 -68 752 15 l 622 -113 l 627 -124 q 667 -206 639 -154 q 723 -299 696 -258 q 776 -399 776 -379 l 776 -400 q 772 -409 776 -404 q 765 -418 769 -414 q 758 -422 761 -422 q 753 -421 755 -422 q 747 -418 750 -420 q 743 -417 745 -417 l 741 -416 l 740 -417 q 720 -409 738 -417 q 677 -388 703 -401 q 471 -195 535 -319 q 463 -182 466 -186 q 456 -177 460 -178 q 444 -174 452 -175 q 390 -165 417 -171 q 347 -153 363 -159 q 284 -124 330 -146 q 195 -78 239 -102 q 135 -45 150 -55 q 89 -5 113 -30 q 53 38 64 19 q 0 277 0 138 l 0 296 q 23 462 3 370 q 70 626 43 554 q 80 654 77 644 q 85 669 84 664 q 85 673 85 671 q 85 677 85 675 q 81 683 84 680 q 63 725 66 703 q 62 741 62 732 q 66 780 62 758 q 197 1031 95 924 q 279 1100 234 1071 q 361 1136 324 1128 q 400 1139 378 1139 q 440 1137 413 1139 q 501 1126 467 1135 q 535 1116 517 1121 q 564 1109 553 1112 q 593 1100 575 1107 q 629 1084 611 1093 q 692 1042 663 1068 q 757 972 722 1017 q 816 883 795 926 q 852 778 838 840 m 69 245 q 70 255 70 250 q 69 265 70 260 l 68 267 q 68 255 68 267 q 68 243 68 243 l 69 245 m 73 294 q 73 302 73 297 q 73 310 73 306 l 72 311 q 71 302 71 311 q 72 292 71 292 l 73 294 m 76 329 q 77 334 77 331 q 76 340 77 337 l 75 341 q 75 336 75 341 q 75 328 75 328 q 76 329 76 328 m 79 358 q 80 362 80 360 q 79 367 80 365 l 79 368 q 78 362 78 368 q 79 357 78 357 l 79 358 m 83 381 q 84 384 84 382 q 83 388 84 386 q 82 389 83 389 q 81 386 81 389 l 81 381 l 83 381 m 81 525 q 90 565 87 549 q 94 582 94 579 l 94 583 q 85 561 92 583 q 71 504 79 538 q 55 433 62 469 q 43 370 47 397 q 37 270 37 328 l 37 258 q 41 183 37 210 q 47 161 46 161 l 47 163 q 45 186 47 168 q 41 252 41 216 q 81 525 41 365 m 98 795 l 94 777 q 90 760 92 770 q 89 742 89 749 l 89 724 l 92 744 q 94 762 92 752 q 96 779 95 772 l 98 795 m 101 798 q 102 801 102 799 q 101 805 102 803 q 100 806 100 806 q 99 803 99 806 l 99 799 q 100 798 100 798 l 101 798 m 137 219 q 138 231 138 224 q 137 242 138 237 l 136 244 q 136 231 136 244 q 136 216 136 216 l 137 219 m 140 262 q 141 270 141 265 q 140 279 141 275 l 140 282 q 139 271 139 282 q 140 260 139 260 l 140 262 m 144 296 q 144 302 144 298 q 144 308 144 305 l 143 309 q 142 302 142 309 q 143 294 142 294 l 144 296 m 147 322 q 148 327 148 324 q 147 333 148 330 l 146 334 q 146 328 146 334 q 146 321 146 321 l 147 322 m 151 347 q 152 351 152 349 q 151 356 152 354 l 150 357 q 149 351 149 357 q 150 346 149 346 l 151 347 m 154 367 q 155 370 155 368 q 155 374 155 372 q 153 375 154 375 q 153 372 153 375 l 153 367 l 154 367 m 753 667 l 753 665 q 752 651 752 662 q 753 636 752 640 l 753 634 l 753 637 q 754 651 754 644 q 753 665 754 659 l 753 667 m 749 701 q 748 694 748 701 q 749 686 748 686 l 750 688 q 751 694 751 690 q 750 700 751 697 l 749 701 m 744 721 q 745 717 744 718 l 745 716 l 746 716 q 747 719 747 717 l 747 720 q 746 723 747 722 l 745 724 q 744 721 745 724 m 577 76 q 728 569 720 262 q 729 599 729 584 q 663 915 729 788 q 626 974 649 942 q 578 1031 602 1006 l 557 1055 l 519 1053 q 467 1045 488 1052 q 420 1021 446 1038 q 388 996 405 1010 q 360 971 372 983 q 348 956 348 959 q 349 952 348 953 l 353 952 q 356 951 353 952 q 361 948 358 951 q 368 944 363 945 q 377 942 372 942 q 385 941 381 942 q 389 938 388 939 q 392 935 389 936 l 398 935 q 401 936 399 936 q 404 935 402 936 q 405 933 405 935 q 408 931 405 931 q 414 933 410 931 q 421 936 418 936 q 424 935 422 936 q 430 929 426 935 q 435 924 433 926 q 439 923 437 923 q 441 924 440 923 q 442 924 441 924 q 449 921 445 924 q 458 911 454 917 q 463 900 463 905 q 459 888 463 896 q 444 863 455 881 q 412 810 433 844 q 266 453 312 652 q 231 210 231 311 q 232 182 231 196 q 238 108 233 139 q 256 40 243 77 q 315 -52 274 -20 q 342 -68 330 -66 q 349 -69 345 -69 q 377 -65 360 -69 q 404 -56 401 -61 q 406 -51 406 -54 q 401 -35 406 -45 q 381 36 393 -9 q 364 111 370 80 q 359 166 359 140 l 359 174 q 363 204 359 194 q 370 216 365 210 q 380 229 375 223 q 388 234 385 234 q 390 231 389 234 q 391 224 391 229 l 391 214 l 397 222 q 404 229 401 228 l 404 229 q 409 226 407 229 q 414 222 411 224 l 420 222 q 422 222 421 222 q 423 220 423 221 q 426 217 423 217 q 429 218 427 217 q 432 218 431 218 q 441 212 437 218 q 446 208 444 208 l 447 207 q 448 208 448 207 q 450 212 448 212 l 450 212 q 454 211 452 212 q 455 204 455 209 l 456 197 l 458 204 q 469 212 462 212 q 481 205 475 212 q 487 201 484 203 q 490 200 488 200 q 492 201 491 200 l 493 201 q 503 195 496 201 q 515 177 510 189 q 525 153 518 171 q 538 113 532 135 q 552 75 546 91 q 558 58 557 60 l 559 58 q 566 63 561 58 q 577 76 570 67 m 390 138 l 390 148 q 391 172 391 157 q 389 200 391 200 q 387 195 389 200 q 386 181 386 190 q 386 162 386 172 q 388 145 387 152 q 390 138 389 138 m 721 313 q 722 316 722 314 q 722 320 722 318 q 720 321 721 321 q 719 318 720 321 q 720 314 719 315 l 720 313 l 721 313 m 724 328 q 726 330 726 328 q 725 334 726 332 q 724 336 724 336 q 723 332 723 336 l 723 328 l 724 328 l 724 328 m 744 427 q 751 494 747 452 q 757 571 755 536 q 758 599 758 589 q 757 612 758 610 q 755 601 756 612 q 753 571 754 590 q 736 404 748 468 q 728 351 729 360 l 728 348 l 731 359 q 737 387 734 368 q 744 427 741 406 m 774 530 q 775 537 775 534 q 774 543 775 541 l 774 545 q 773 537 773 545 q 774 529 773 529 l 774 530 m 810 413 q 811 416 811 414 q 810 420 811 418 q 809 421 810 421 q 808 418 808 421 l 808 414 q 810 413 809 413 l 810 413 m 814 450 q 814 455 814 452 q 814 459 814 457 l 813 460 q 812 455 812 460 q 813 450 812 450 l 814 450 m 818 502 q 819 509 819 505 q 818 516 819 513 l 817 518 q 816 510 817 518 q 817 501 816 501 l 818 502 z "},"R":{"ha":811,"x_min":0,"x_max":811,"o":"m 804 -114 q 811 -126 811 -119 q 803 -141 811 -133 q 793 -148 798 -146 q 787 -149 791 -149 q 772 -147 783 -149 q 737 -140 762 -146 q 677 -115 723 -136 q 586 -69 632 -93 q 524 -33 540 -45 q 415 104 452 22 q 361 216 388 165 q 323 280 335 267 q 308 295 315 291 q 286 301 300 298 q 266 304 276 303 q 257 304 261 304 q 250 304 253 304 q 242 301 245 303 q 238 295 239 300 q 236 279 237 290 q 233 203 235 268 q 231 52 232 139 l 228 -154 l 220 -168 q 211 -180 215 -177 q 201 -183 207 -183 q 194 -182 197 -183 q 189 -180 191 -181 q 186 -178 189 -178 q 182 -178 184 -178 l 181 -178 q 165 -174 178 -178 q 140 -162 153 -169 q 120 -149 126 -155 q 111 -144 117 -147 q 98 -138 105 -140 q 85 -131 92 -134 q 77 -127 79 -128 q 70 -123 75 -125 q 61 -121 66 -122 q 4 9 15 -107 q 1 157 1 43 q 0 314 0 232 q 0 440 0 355 q 2 600 0 525 q 9 783 5 724 q 24 899 14 843 q 42 992 34 962 q 60 1029 51 1021 q 75 1039 71 1039 q 77 1034 77 1039 q 79 1029 77 1029 l 80 1029 q 87 1033 81 1029 q 94 1035 90 1035 q 97 1035 94 1035 q 107 1029 100 1034 q 118 1024 113 1026 q 125 1023 122 1023 l 126 1023 q 132 1020 129 1023 q 138 1013 135 1017 q 142 1005 141 1005 q 144 1010 143 1005 q 148 1018 145 1017 l 149 1018 q 153 1013 151 1018 q 157 1008 155 1008 q 160 1010 158 1008 q 172 1014 165 1015 q 184 1009 180 1014 q 190 1005 186 1007 q 197 1004 193 1004 q 213 992 203 1004 q 227 967 222 981 q 230 940 229 962 q 233 890 232 918 l 235 824 l 259 872 q 312 963 283 919 q 366 1032 341 1007 q 481 1085 420 1085 q 514 1081 497 1085 l 566 1067 q 678 1001 640 1048 q 734 860 716 954 q 742 765 741 819 q 735 675 742 712 q 676 513 717 585 q 580 398 640 451 q 458 319 521 346 q 443 313 449 316 q 437 309 437 310 q 447 301 437 308 q 470 286 456 295 q 663 33 573 222 q 707 -42 688 -20 q 753 -79 725 -65 q 774 -90 764 -85 q 789 -96 785 -95 q 794 -99 792 -97 q 797 -103 797 -101 q 799 -108 797 -104 q 804 -114 801 -111 m 666 739 q 667 729 666 729 l 667 730 q 668 737 668 733 q 668 745 668 741 q 667 747 667 747 q 666 739 666 747 m 616 831 l 616 827 l 616 827 l 617 827 q 618 829 618 827 q 618 833 618 831 q 616 835 617 835 q 616 831 616 835 m 612 770 q 612 766 612 768 l 613 766 l 614 766 q 615 769 614 767 q 614 773 615 771 q 613 774 614 774 q 612 770 612 774 m 583 945 q 584 941 583 943 l 585 941 l 585 941 q 586 943 586 941 q 586 947 587 945 q 585 949 585 949 q 583 945 584 949 m 576 721 q 571 697 573 707 q 569 687 569 688 q 570 686 569 686 q 574 699 570 686 q 583 736 578 712 q 592 824 590 770 q 593 864 593 846 q 591 909 593 890 q 589 924 589 924 q 588 920 588 924 q 589 890 588 912 q 590 866 590 878 q 587 796 590 836 q 576 721 583 756 m 69 186 l 69 367 l 68 388 l 68 369 q 68 277 68 351 q 68 176 68 202 l 68 165 l 69 186 m 73 -1 q 73 13 73 5 q 73 26 73 20 l 72 30 q 71 27 71 30 q 71 13 71 24 l 71 -2 q 72 -4 71 -4 l 73 -1 m 73 541 q 73 569 73 554 q 73 598 73 585 l 72 605 q 71 571 71 605 q 72 538 71 547 l 72 535 l 73 541 m 76 684 q 77 701 77 691 q 76 720 77 711 l 75 724 q 75 703 75 724 q 75 682 75 688 l 75 680 l 76 684 m 48 742 q 79 1004 58 890 q 80 1010 80 1009 q 77 1005 79 1010 q 57 899 68 981 q 41 734 46 817 q 37 528 38 675 q 35 309 35 418 q 35 182 35 273 q 37 39 35 92 q 46 -55 42 -55 q 47 -54 47 -55 q 47 -48 47 -54 q 47 -27 47 -43 q 44 18 46 -12 q 42 224 42 70 q 44 533 42 378 q 48 742 45 688 m 79 766 q 80 776 80 770 q 79 787 80 782 l 79 790 q 78 777 78 790 q 79 764 78 764 l 79 766 m 83 814 q 83 822 83 818 q 83 830 83 827 l 82 831 q 81 822 81 831 q 82 812 81 812 l 83 814 m 86 853 q 87 858 87 855 q 87 864 87 861 q 85 865 86 865 q 85 859 85 865 q 85 852 85 852 q 86 853 86 852 m 90 887 q 91 893 91 890 q 90 899 91 897 l 90 901 q 88 893 88 901 q 90 886 88 886 l 90 887 m 94 920 q 94 922 94 920 q 94 926 94 924 q 92 928 93 928 q 92 924 92 928 q 92 920 92 921 q 93 919 92 919 l 94 920 m 97 948 q 98 951 98 949 l 98 952 q 97 955 98 954 l 96 956 q 95 952 96 956 q 96 948 95 949 l 96 947 q 97 948 97 947 m 136 439 q 137 452 137 445 q 136 465 137 458 q 136 468 136 468 l 135 453 q 136 438 135 438 q 136 439 136 438 m 140 550 l 140 618 l 140 626 q 139 585 139 626 q 140 543 139 543 l 140 550 m 144 692 q 144 712 144 701 q 144 732 144 723 l 143 736 q 142 713 142 736 q 143 691 142 697 l 143 688 l 144 692 m 147 775 q 148 790 148 782 q 147 805 148 798 l 146 808 l 146 806 q 146 790 146 802 q 146 773 146 777 l 146 772 l 147 775 m 151 844 q 151 858 151 850 q 151 871 151 865 l 151 874 q 150 871 150 874 q 149 858 149 869 q 150 843 149 846 q 151 841 150 841 l 151 844 m 155 914 q 155 926 155 919 q 155 937 155 932 l 154 939 q 153 926 153 939 q 154 911 153 911 l 155 914 m 297 410 q 413 488 358 435 q 503 604 469 541 q 562 871 562 720 q 561 897 562 884 q 545 1008 558 971 q 541 1015 543 1013 q 538 1016 541 1016 q 534 1016 537 1016 q 523 1013 532 1015 q 412 928 463 999 q 312 728 348 845 q 250 409 275 612 l 248 393 l 258 396 q 274 401 262 397 q 297 410 285 405 z "},"S":{"ha":747,"x_min":0,"x_max":686,"o":"m 638 281 q 686 121 686 207 q 685 73 686 119 q 635 -45 685 27 q 522 -137 587 -109 q 448 -156 490 -149 q 399 -161 420 -161 q 381 -159 389 -161 q 286 -138 326 -152 q 169 -84 245 -123 q 71 -30 101 -50 q 28 10 41 -10 q 6 53 13 32 q 0 102 0 74 q 1 126 0 117 q 4 142 1 135 q 12 160 6 149 q 47 206 23 182 q 93 240 71 229 q 110 245 103 245 q 115 246 113 246 q 130 244 121 246 q 160 234 140 241 q 179 229 169 231 q 195 227 189 227 q 211 221 208 227 q 214 217 212 219 q 220 216 217 216 q 228 213 224 216 q 237 205 233 210 q 242 197 240 200 q 243 195 243 196 q 242 191 243 193 q 238 184 241 189 q 224 173 231 173 q 209 166 219 173 q 191 149 199 159 q 177 130 182 139 q 170 90 170 113 q 171 62 170 83 q 187 12 173 41 q 204 -11 193 1 q 225 -32 214 -23 q 241 -41 236 -41 q 279 -32 253 -41 q 329 -12 306 -23 q 430 116 404 22 q 438 180 438 144 q 430 250 438 217 q 319 434 405 338 q 280 472 307 447 q 222 524 252 497 q 101 638 139 595 q 52 720 64 681 q 38 797 38 758 q 106 968 38 882 q 294 1098 188 1078 q 338 1103 316 1103 q 389 1096 363 1103 q 416 1089 401 1093 q 443 1082 431 1085 q 592 947 568 1050 q 597 897 597 922 q 547 764 597 821 l 528 743 l 500 757 q 479 768 485 764 q 475 774 475 772 l 475 776 q 488 819 481 791 q 498 868 494 846 q 499 897 499 882 q 468 1006 499 958 q 456 1020 461 1017 q 446 1025 452 1024 l 444 1025 q 394 1010 426 1025 q 334 972 362 995 q 279 905 308 950 q 239 822 251 859 q 229 751 229 785 q 265 634 229 688 q 306 589 280 612 q 385 526 332 565 q 638 281 570 388 m 515 899 q 516 895 515 896 q 517 894 516 894 l 517 895 q 518 897 518 895 q 517 901 518 899 q 516 903 517 903 q 515 899 515 903 m 512 867 l 512 863 l 513 862 l 513 862 q 515 865 515 863 q 514 869 515 867 q 513 871 513 871 q 512 867 512 871 m 78 847 q 79 855 79 854 l 79 856 q 75 845 79 856 q 71 795 71 830 l 71 760 l 73 797 q 75 827 74 813 q 78 847 77 842 m 97 784 q 98 790 98 787 q 97 796 98 793 l 96 798 q 95 790 95 798 q 96 783 95 783 l 97 784 m 154 774 q 155 780 155 777 q 154 785 155 783 l 153 787 q 152 781 153 787 q 153 774 152 774 l 154 774 m 31 115 q 32 135 32 128 q 31 140 31 140 l 30 140 q 28 127 29 136 q 27 106 27 117 l 27 87 q 28 81 27 81 q 30 92 28 82 q 31 115 31 101 m 476 119 q 483 170 483 141 q 478 223 484 199 q 475 235 475 235 q 474 231 474 235 q 475 196 474 229 l 475 176 q 467 100 475 125 q 466 97 466 98 l 466 96 q 467 95 466 95 q 470 102 467 95 q 476 119 473 109 m 514 130 q 515 138 515 133 q 514 146 515 142 l 513 147 q 513 138 513 147 q 513 128 513 128 l 514 130 m 585 90 q 586 95 586 92 q 585 101 586 98 l 585 102 q 583 96 584 102 q 585 90 583 90 l 585 90 m 589 112 q 589 116 589 114 q 589 121 589 119 l 588 121 q 587 116 587 121 q 588 111 587 111 l 589 112 z "},"T":{"ha":654,"x_min":0,"x_max":735,"o":"m 732 1048 q 735 1042 735 1045 q 732 1035 735 1040 q 711 1016 728 1027 q 677 1000 694 1006 q 623 996 662 996 q 589 996 616 996 q 513 1002 561 996 q 480 1006 494 1004 q 465 1007 466 1007 l 465 1006 q 466 1003 465 1006 q 469 994 467 1000 q 479 952 475 983 q 489 845 484 922 q 500 619 494 768 q 505 553 503 587 q 510 496 507 518 q 524 220 521 401 q 526 140 525 172 q 528 104 528 107 q 529 70 529 102 q 530 -9 530 38 l 530 -119 l 521 -134 q 505 -147 513 -144 q 499 -149 502 -149 q 492 -144 495 -149 q 488 -142 491 -142 l 484 -142 l 480 -142 q 475 -143 477 -143 q 465 -139 469 -143 q 460 -135 463 -136 q 456 -134 458 -134 q 452 -132 454 -134 q 448 -128 450 -130 q 446 -125 448 -125 l 445 -124 l 443 -125 l 442 -125 q 435 -122 440 -125 q 421 -115 429 -120 q 404 -104 413 -109 q 389 -98 395 -100 q 377 -92 383 -95 q 369 -85 372 -88 q 361 -79 365 -79 q 359 -80 360 -79 q 355 -81 358 -81 q 349 -80 353 -81 q 338 -74 345 -79 q 328 -64 332 -70 q 302 40 315 -44 q 278 248 289 124 q 273 415 273 309 l 273 444 q 276 590 273 531 q 278 676 277 616 q 279 802 279 736 q 281 923 279 870 q 283 989 282 975 q 286 1010 285 1002 q 286 1018 286 1015 q 286 1021 286 1021 q 279 1022 284 1022 q 259 1020 273 1022 q 221 1015 244 1019 q 183 1007 197 1011 q 137 990 159 1000 q 87 961 116 980 l 55 939 l 33 949 q 18 957 24 953 q 12 962 12 960 q 12 963 12 963 q 9 963 11 964 l 8 963 q 5 964 7 963 q 2 966 3 964 q 0 972 0 969 q 4 986 0 977 q 23 1010 9 996 q 254 1082 92 1082 l 258 1082 q 304 1081 279 1082 q 345 1077 329 1079 q 456 1063 395 1069 q 547 1057 517 1057 q 580 1059 568 1057 q 608 1066 592 1061 q 645 1078 633 1076 q 652 1078 648 1078 q 664 1076 659 1078 l 668 1074 q 675 1072 672 1073 q 681 1069 678 1070 q 688 1067 684 1068 q 697 1065 693 1066 q 717 1059 707 1064 q 732 1048 728 1054 m 346 1001 q 345 993 345 1001 q 346 985 345 985 l 347 987 q 347 993 347 989 q 347 1000 347 996 l 346 1001 m 347 495 q 347 587 347 537 q 347 679 347 637 l 346 700 l 346 474 l 347 495 m 343 923 l 342 927 q 342 923 342 927 q 342 904 342 920 l 342 883 q 342 881 342 881 l 343 885 q 344 904 344 894 q 343 923 344 914 m 345 -9 q 349 -28 348 -28 l 349 -26 q 340 56 349 -16 q 325 199 330 136 q 319 358 320 262 q 318 522 318 422 l 318 631 q 319 874 318 772 q 320 994 319 977 q 321 1015 321 1011 q 321 1017 321 1017 q 319 1013 320 1017 q 315 921 317 1004 q 311 723 313 838 q 310 507 310 608 l 310 445 q 311 360 310 390 q 323 160 313 266 q 345 -9 333 54 m 350 297 q 351 316 351 305 q 350 336 351 328 q 349 341 350 341 l 349 317 q 349 296 349 302 l 349 293 l 350 297 m 404 887 q 404 901 404 892 q 404 916 404 909 l 403 919 q 402 902 402 919 q 403 886 402 890 l 403 884 l 404 887 m 407 782 q 408 787 408 784 q 407 791 408 789 l 406 791 q 405 787 405 791 q 406 781 405 781 l 407 782 m 411 645 l 411 673 l 410 677 q 410 660 410 677 l 410 644 q 410 642 410 642 l 411 645 m 414 532 q 415 541 415 536 q 414 549 415 545 l 414 550 q 412 541 412 550 q 414 531 412 531 l 414 532 m 418 431 q 418 441 418 435 q 418 452 418 447 l 417 455 q 416 442 416 455 q 417 429 416 429 l 418 431 m 421 306 q 422 327 422 315 q 421 347 422 338 l 421 352 q 420 348 420 352 q 420 327 420 343 l 420 304 q 421 301 420 301 l 421 306 m 425 214 q 425 216 425 214 q 425 220 425 218 l 424 222 q 422 218 423 222 q 423 214 422 215 l 424 213 q 425 214 425 213 z "},"U":{"ha":718,"x_min":0,"x_max":670,"o":"m 654 1010 q 667 895 663 989 q 670 755 670 829 q 669 689 670 723 q 656 374 666 477 q 618 161 646 271 q 493 -114 566 -53 q 412 -144 462 -144 q 375 -141 395 -144 q 351 -134 366 -139 q 322 -121 336 -128 q 282 -100 307 -113 q 233 -75 256 -87 q 157 -32 182 -50 q 113 9 131 -14 q 48 124 68 62 q 18 308 28 186 q 4 477 7 405 q 0 652 0 550 q 1 732 0 694 q 2 785 1 770 q 4 817 3 800 q 7 846 5 834 q 26 999 14 949 q 59 1063 38 1049 q 75 1072 70 1072 q 79 1065 79 1072 l 79 1063 q 81 1057 79 1057 q 84 1061 82 1057 q 95 1067 90 1067 q 100 1066 96 1067 q 107 1057 104 1066 l 110 1052 q 111 1051 111 1051 l 111 1052 q 114 1056 112 1055 l 116 1056 q 120 1055 117 1056 q 122 1051 122 1055 q 123 1048 122 1048 l 124 1048 q 129 1050 125 1048 q 136 1052 132 1052 q 142 1049 138 1052 q 147 1039 146 1046 q 148 1036 147 1036 q 152 1042 149 1036 q 158 1047 155 1047 q 161 1036 161 1047 l 161 1026 l 168 1035 q 182 1044 175 1043 l 184 1044 q 195 1038 191 1044 q 200 1034 197 1036 q 208 1031 204 1031 q 228 1019 217 1031 q 243 990 239 1006 q 252 919 248 970 q 258 760 255 867 q 264 583 260 671 q 277 340 268 495 q 322 5 294 79 q 335 -23 330 -12 q 343 -35 341 -34 q 357 -28 347 -34 q 379 -13 368 -22 q 399 3 391 -4 q 452 78 424 29 q 498 178 479 126 q 523 263 510 214 q 543 354 535 313 q 567 610 559 455 q 570 764 570 692 q 568 887 570 829 q 563 980 564 949 q 562 1002 562 992 q 564 1026 562 1016 q 570 1040 566 1036 q 579 1045 576 1045 q 581 1044 581 1045 q 586 1041 583 1042 q 595 1039 590 1040 q 603 1038 599 1039 q 609 1035 607 1036 q 613 1034 610 1034 l 621 1034 q 638 1027 628 1034 q 654 1010 648 1020 m 85 876 q 84 855 84 876 q 85 833 84 833 l 85 836 q 86 854 86 844 q 85 872 86 864 l 85 876 m 82 791 l 81 798 l 81 792 q 81 768 81 787 q 81 741 81 748 l 81 738 l 82 743 q 83 768 83 755 q 82 791 83 781 m 79 696 l 78 700 q 77 696 77 700 q 77 679 77 692 l 77 660 q 78 658 77 658 l 79 662 q 79 679 79 669 q 79 696 79 688 m 75 182 q 82 157 81 157 q 83 159 83 157 q 80 182 83 164 q 57 408 66 269 q 47 671 47 548 q 53 851 47 755 q 67 996 59 947 q 71 1025 71 1019 l 71 1028 q 62 1001 68 1028 q 47 865 54 963 q 40 665 41 766 q 50 390 41 524 q 75 182 60 256 m 82 555 q 83 576 83 564 q 82 597 83 587 l 81 602 q 81 577 81 602 q 81 551 81 551 l 82 555 m 85 467 q 86 482 86 474 q 85 498 86 491 l 85 501 l 85 498 q 84 482 84 495 q 85 466 84 470 l 85 464 l 85 467 m 89 407 q 90 415 90 410 q 89 422 90 419 l 88 424 q 87 415 87 424 q 88 406 87 406 l 89 407 m 89 906 q 90 918 90 911 q 89 929 90 924 l 88 931 q 87 918 87 931 q 88 904 87 904 l 89 906 m 92 950 q 93 957 93 953 l 94 961 l 93 964 q 92 966 92 966 q 91 958 91 966 q 92 949 91 949 q 92 950 92 949 m 96 983 q 97 985 97 983 q 96 989 97 987 q 95 991 96 991 q 94 987 94 991 l 94 983 l 96 983 m 157 652 q 157 728 157 687 q 157 806 157 770 l 157 824 q 156 809 156 824 q 156 730 156 794 l 156 644 q 157 635 156 635 l 157 652 m 160 512 q 161 518 161 515 q 160 524 161 522 l 159 526 q 159 518 159 526 q 159 511 159 511 l 160 512 m 161 918 l 161 959 l 160 964 q 159 960 159 964 q 159 939 159 956 l 159 916 q 160 913 159 913 l 161 918 m 161 994 q 162 990 161 991 l 163 989 l 163 989 q 164 992 164 991 q 164 996 165 994 q 163 998 163 998 q 161 994 162 998 m 164 441 q 165 447 165 444 q 164 453 165 450 l 163 454 q 162 447 162 454 q 163 439 162 439 l 164 441 m 563 357 q 564 361 564 359 q 563 366 564 363 l 562 367 q 562 361 562 367 q 562 356 562 356 l 563 357 m 566 380 q 567 383 567 381 q 567 387 568 385 l 567 387 q 566 389 566 389 q 564 385 565 389 q 565 380 564 382 l 566 380 l 566 380 m 570 407 q 571 412 571 408 q 570 417 571 414 l 570 419 q 568 413 569 419 q 570 406 568 406 l 570 407 m 574 441 q 574 447 574 444 q 574 453 574 450 l 573 454 q 572 447 572 454 q 573 439 572 439 l 574 441 m 577 479 q 578 486 578 482 q 577 494 578 490 l 576 496 q 576 488 576 496 q 576 479 576 479 q 577 479 577 479 m 581 963 l 581 964 q 579 957 579 964 q 581 949 579 949 l 581 950 q 582 957 582 954 q 581 963 582 960 m 581 537 q 582 547 582 541 q 581 557 582 552 l 581 558 q 580 547 580 558 q 581 535 580 535 l 581 537 m 584 912 q 583 907 583 912 q 584 901 583 901 l 585 902 q 585 907 585 904 q 585 911 585 909 l 584 912 m 585 608 q 585 618 585 612 q 585 628 585 623 l 584 629 q 583 618 583 629 q 584 606 583 606 l 585 608 m 588 733 q 589 771 589 750 q 588 810 589 792 l 588 819 q 587 811 587 819 q 587 771 587 803 l 587 728 q 588 724 587 724 l 588 733 z "},"V":{"ha":741,"x_min":0,"x_max":741,"o":"m 730 1078 q 741 1067 739 1076 q 741 1060 741 1064 q 738 1031 741 1051 q 722 964 734 1010 q 663 668 688 827 q 636 502 648 571 q 612 354 625 433 q 587 194 597 271 q 567 16 577 117 q 559 -50 563 -22 q 554 -83 556 -78 q 540 -114 549 -99 q 521 -134 530 -128 q 502 -140 512 -140 q 469 -136 492 -140 q 444 -127 458 -133 q 415 -114 429 -121 q 379 -95 401 -106 q 336 -73 357 -83 q 276 -36 298 -55 q 231 19 254 -17 q 200 73 213 45 q 168 153 187 100 q 85 431 128 260 q 18 743 41 602 q 4 848 8 804 q 0 949 0 893 q 1 1014 0 994 q 7 1044 2 1035 q 24 1061 13 1053 q 35 1068 32 1067 l 35 1068 q 39 1065 37 1068 q 42 1061 40 1061 q 45 1063 43 1061 q 52 1065 48 1065 q 73 1056 60 1065 q 82 1052 77 1053 q 86 1051 84 1051 q 90 1052 88 1051 l 92 1052 q 97 1050 94 1052 q 102 1042 99 1048 q 105 1034 104 1034 l 106 1034 q 108 1037 106 1034 q 113 1047 111 1047 q 117 1040 115 1047 l 119 1030 l 125 1038 q 135 1046 130 1046 q 146 1038 140 1046 q 153 1034 149 1036 q 161 1031 157 1031 q 177 1022 168 1031 q 195 997 186 1013 q 251 768 207 976 q 276 657 262 718 q 301 554 290 597 q 387 203 352 355 q 404 131 395 168 q 420 72 413 94 q 428 43 425 54 q 433 30 431 33 q 435 27 435 27 q 437 28 436 27 q 439 32 437 28 q 486 186 457 64 q 568 572 515 309 q 677 1067 657 1017 q 688 1088 683 1085 q 692 1088 689 1088 q 707 1084 697 1088 q 714 1082 711 1082 q 718 1081 716 1081 l 719 1081 q 723 1080 720 1081 q 730 1078 726 1080 m 64 1017 l 64 1018 q 63 1010 63 1018 q 64 1002 63 1002 l 64 1004 q 65 1010 65 1006 q 64 1017 65 1013 m 93 572 l 93 573 q 89 599 93 578 q 79 654 85 620 q 38 987 38 864 l 38 999 q 39 1015 39 1008 q 38 1026 39 1021 q 37 1034 38 1034 q 37 1034 37 1034 q 31 985 31 1020 q 38 879 31 954 q 70 677 45 804 q 73 661 72 668 q 78 636 76 647 q 82 617 81 625 q 85 602 84 608 q 88 590 87 595 q 90 582 89 585 q 91 577 90 579 q 91 574 91 575 q 92 572 92 573 l 93 572 m 96 558 q 97 561 97 559 q 97 565 98 563 q 96 566 96 566 q 94 563 95 566 q 95 559 94 560 l 96 558 l 96 558 z "},"W":{"ha":1010,"x_min":0,"x_max":990,"o":"m 984 569 q 990 413 990 513 q 990 341 990 403 q 984 206 990 279 q 878 -113 960 -57 q 842 -124 865 -124 q 818 -121 831 -124 q 776 -107 803 -119 q 695 -68 749 -96 q 641 -41 659 -51 q 612 -23 623 -31 q 591 -3 602 -15 q 567 25 576 12 q 546 62 557 38 q 494 205 514 128 q 487 228 490 218 q 484 237 484 237 q 479 223 482 237 q 471 189 475 210 q 434 52 455 116 q 395 -45 414 -12 q 374 -75 387 -59 q 351 -101 362 -90 q 328 -117 339 -113 q 309 -119 320 -119 q 298 -119 304 -119 q 278 -115 288 -118 q 251 -104 268 -112 q 202 -80 233 -96 q 153 -55 170 -64 q 127 -39 136 -45 q 110 -22 118 -32 q 43 130 68 22 q 5 438 18 238 q 0 591 1 490 l 0 692 q 1 812 0 741 q 5 913 1 883 q 35 1004 14 990 q 49 1013 46 1013 q 52 1006 52 1013 l 52 994 l 58 1002 q 70 1009 64 1009 l 73 1009 q 77 1001 77 1008 q 78 997 77 997 q 81 999 79 997 q 86 1002 84 1002 q 89 1000 88 1002 q 92 998 90 998 l 95 998 q 96 998 96 998 q 101 997 98 998 q 107 992 104 996 q 113 987 111 989 q 115 987 115 987 q 116 988 116 987 q 117 991 116 989 q 119 992 118 992 q 122 990 121 992 q 123 984 123 987 l 123 977 l 128 984 q 134 989 131 987 q 138 991 136 991 q 150 985 144 989 q 155 975 155 980 q 156 972 155 972 q 157 974 157 972 q 163 979 159 979 q 171 976 166 979 q 184 960 176 972 q 196 931 192 947 q 207 831 200 910 q 217 673 213 751 q 233 361 227 472 q 245 188 239 251 q 258 68 251 125 q 264 30 262 45 q 266 13 266 14 q 267 12 266 12 q 273 19 268 12 q 289 47 279 27 q 365 295 332 138 q 404 598 397 451 q 405 633 404 621 q 407 653 406 646 q 409 664 408 661 q 413 668 410 667 q 422 673 418 673 q 426 664 426 673 q 427 659 426 661 q 429 657 428 657 q 432 659 431 657 q 433 665 433 661 q 437 671 433 671 q 444 665 440 671 q 449 661 446 662 q 452 660 450 660 l 453 660 l 455 661 q 457 660 456 661 q 458 657 458 659 q 459 654 458 654 q 463 656 460 654 q 467 659 465 659 q 471 656 469 659 q 479 653 473 654 q 493 651 486 652 q 567 588 549 645 q 575 558 570 579 q 585 513 580 537 q 604 440 591 486 q 635 343 618 394 q 668 242 650 295 q 696 155 685 189 q 752 2 733 34 q 758 -4 756 -4 l 759 -4 q 765 0 761 -4 q 801 71 782 17 q 831 184 820 125 q 851 437 851 308 q 825 734 851 583 q 806 826 817 787 q 777 921 796 864 q 759 973 768 946 q 745 1015 750 1000 q 736 1042 739 1030 q 732 1057 732 1055 q 741 1071 732 1065 q 754 1076 747 1076 l 758 1076 q 777 1069 768 1073 q 786 1063 786 1065 q 788 1062 786 1062 q 793 1063 790 1062 l 796 1063 q 799 1063 798 1063 q 800 1061 800 1063 q 804 1059 800 1060 q 812 1059 808 1059 l 814 1059 q 843 1050 827 1059 q 869 1031 859 1042 q 877 1014 872 1026 q 892 971 882 1002 q 922 880 903 940 q 984 569 964 747 m 71 486 q 70 481 71 486 q 71 474 70 474 l 72 475 q 73 479 73 476 q 72 485 73 482 l 71 486 m 68 555 q 69 565 69 559 q 68 576 69 571 l 68 578 q 67 566 67 578 q 68 553 67 553 l 68 555 m 68 927 q 66 919 67 927 q 68 910 67 910 q 68 911 68 910 q 69 918 69 913 q 68 925 69 922 l 68 927 m 65 815 l 64 827 l 64 816 q 64 759 64 804 q 64 697 64 713 l 64 691 l 65 705 l 65 815 m 75 138 l 75 140 q 74 155 75 144 q 70 187 73 167 q 39 671 43 363 q 38 749 38 713 q 48 966 38 912 q 50 979 50 976 q 50 981 50 981 q 45 968 49 981 q 35 890 38 944 q 33 766 33 848 l 33 723 q 72 150 33 354 q 74 141 73 144 q 75 138 75 138 m 79 123 q 80 126 79 124 q 79 130 80 128 q 78 132 79 132 q 77 128 77 132 q 77 124 77 125 l 78 123 l 79 123 m 125 824 q 126 857 126 839 q 125 890 126 875 l 125 898 l 125 890 q 124 857 124 884 q 125 820 124 829 l 125 816 l 125 824 m 129 663 q 130 675 130 668 q 129 688 130 682 l 128 692 q 127 677 127 692 q 128 662 127 662 q 129 663 129 662 m 382 266 q 382 269 382 267 q 382 273 382 271 l 381 274 q 380 271 380 274 q 380 267 380 268 l 381 266 l 382 266 m 389 302 q 390 304 390 302 q 389 309 390 307 q 388 310 389 310 q 387 307 387 310 l 387 302 l 389 302 m 393 319 q 393 322 393 320 q 393 326 393 324 q 391 328 392 328 q 391 324 391 328 q 391 320 391 321 q 392 319 391 319 l 393 319 m 396 339 q 397 343 397 341 q 396 348 397 346 l 395 349 q 395 343 395 349 q 395 338 395 338 l 396 339 m 399 360 q 401 365 401 362 q 399 370 401 368 l 399 370 q 398 365 398 370 q 399 359 398 359 l 399 360 m 404 385 q 404 390 404 387 q 404 394 404 392 q 402 395 403 395 q 401 390 401 395 q 403 385 401 385 l 404 385 m 407 410 q 408 415 408 412 q 407 421 408 418 l 406 422 q 406 416 406 422 q 406 410 406 410 l 407 410 m 410 437 q 411 444 411 440 q 410 450 411 447 l 410 451 q 409 444 409 451 q 410 435 409 435 l 410 437 m 414 467 q 415 472 415 469 q 414 478 415 475 q 413 479 414 479 q 412 473 412 479 q 413 467 412 467 l 414 467 m 418 498 q 418 504 418 500 q 418 510 418 507 l 417 511 q 416 504 416 511 q 417 496 416 496 l 418 498 m 867 617 l 866 618 q 865 611 865 618 q 866 603 865 603 l 867 604 q 867 611 867 608 q 867 617 867 614 m 861 642 l 861 637 q 863 637 862 637 l 863 637 q 864 640 864 637 q 863 644 864 642 q 862 645 863 645 q 861 642 861 645 m 842 109 q 842 112 842 110 l 842 113 q 842 116 842 115 l 841 117 q 840 114 840 117 q 840 110 840 111 l 841 109 l 842 109 m 845 123 q 846 126 846 124 q 846 130 846 128 q 844 132 845 132 q 843 128 844 132 q 844 124 843 125 l 844 123 l 845 123 m 849 140 q 850 144 850 142 q 849 149 850 146 l 848 149 q 847 144 847 149 q 848 138 847 138 q 849 140 848 138 m 852 157 q 853 161 853 159 q 852 166 853 164 l 852 167 q 850 161 850 167 q 852 157 850 157 l 852 157 m 865 256 l 867 288 l 863 251 q 859 218 861 235 q 856 192 857 201 q 854 179 854 182 q 855 178 854 178 q 859 197 856 178 q 863 225 861 209 q 865 256 865 242 m 870 581 q 869 570 869 581 q 870 558 869 558 l 871 560 q 871 569 871 564 q 871 578 871 574 l 870 581 m 871 302 q 871 315 871 308 q 871 328 871 322 l 870 332 q 869 329 869 332 q 869 315 869 326 l 869 300 q 870 298 869 298 l 871 302 m 874 360 q 875 379 875 369 q 874 398 875 389 l 873 402 l 873 399 q 873 379 873 395 q 873 358 873 363 l 873 356 l 874 360 m 874 494 q 875 511 875 502 q 874 526 875 519 l 873 529 q 873 509 873 529 q 873 492 873 496 l 873 490 l 874 494 m 892 328 q 892 333 892 330 q 892 337 892 335 q 890 338 891 338 q 890 333 890 338 q 891 328 890 328 l 892 328 m 895 428 q 896 433 896 430 q 895 439 896 436 l 895 440 q 894 434 894 440 q 895 427 894 427 q 895 428 895 427 m 927 221 q 928 226 928 223 q 927 231 928 229 l 926 231 q 926 226 926 231 q 926 220 926 220 l 927 221 m 931 264 q 932 269 932 266 q 931 275 932 272 l 930 276 q 929 271 930 276 q 930 263 929 263 l 931 264 m 935 342 q 935 351 935 346 q 935 360 935 356 l 934 363 q 933 353 933 363 q 934 341 933 341 l 935 342 z "},"X":{"ha":793,"x_min":0,"x_max":793,"o":"m 784 -113 q 793 -132 793 -124 l 793 -134 q 784 -152 793 -141 q 752 -161 776 -161 q 713 -157 736 -161 q 614 -121 661 -148 q 580 -103 602 -115 q 538 -83 559 -92 q 455 -25 486 -58 q 393 78 425 8 q 354 175 368 128 q 321 311 340 222 l 318 328 l 284 258 q 256 200 269 228 q 237 158 243 172 q 212 94 228 138 q 181 4 197 50 q 158 -73 166 -43 q 149 -105 153 -92 q 144 -120 144 -118 q 139 -123 142 -123 l 138 -123 q 125 -119 134 -123 q 100 -107 117 -115 l 66 -91 l 68 -60 q 97 66 72 -18 q 149 216 122 151 q 201 323 168 258 q 262 437 235 389 q 283 475 277 462 q 292 495 290 488 q 293 503 293 500 l 293 507 q 240 794 270 665 q 182 981 210 924 q 173 999 176 994 q 167 1006 170 1004 q 162 1007 165 1007 l 160 1007 q 112 983 136 1003 q 74 937 87 964 q 67 925 71 930 q 62 920 64 920 l 60 920 q 42 925 54 920 q 18 939 31 930 q 3 952 5 947 q 0 970 0 961 q 13 1014 0 988 q 54 1060 25 1040 q 113 1080 83 1080 q 136 1077 125 1080 q 202 1059 178 1066 q 239 1047 226 1053 q 264 1036 253 1042 q 428 793 362 986 l 446 739 l 453 747 q 472 781 456 751 q 507 850 487 810 q 579 1024 570 973 q 583 1037 580 1029 q 588 1051 585 1044 q 598 1065 593 1063 l 600 1065 q 617 1061 606 1065 q 627 1058 622 1059 q 636 1057 632 1057 q 654 1048 645 1057 q 665 1027 663 1039 l 665 1022 q 652 961 665 1004 q 617 864 640 918 q 511 654 575 765 l 484 606 l 498 536 q 515 451 505 505 q 534 345 525 397 q 569 176 553 239 q 603 66 585 113 q 679 -68 656 -68 q 682 -68 680 -68 l 684 -67 q 687 -68 686 -67 q 689 -71 688 -68 q 693 -74 690 -73 q 701 -77 696 -76 q 708 -78 705 -77 q 711 -80 711 -79 q 716 -82 712 -81 l 728 -82 q 756 -91 741 -82 q 784 -113 772 -99 m 80 -78 q 81 -74 81 -76 q 80 -69 81 -71 l 79 -68 q 79 -74 79 -68 q 79 -79 79 -79 l 80 -78 m 298 686 q 298 690 298 688 q 298 694 298 692 q 296 695 297 695 q 296 691 296 695 q 296 687 296 688 q 297 686 296 686 l 298 686 m 301 669 q 302 671 302 670 q 301 675 302 673 l 300 677 q 299 673 300 677 q 300 669 299 671 l 300 669 l 301 669 m 304 649 q 306 654 306 651 q 304 658 306 656 l 304 659 q 303 654 303 659 q 304 648 303 648 l 304 649 m 323 549 q 321 565 323 552 q 317 597 320 577 q 311 629 313 616 q 307 642 308 642 l 307 640 q 309 624 307 637 q 314 591 311 612 q 320 557 317 570 q 323 547 322 547 l 323 549 m 365 277 l 365 279 q 363 294 365 282 q 359 327 362 307 q 352 361 355 347 q 349 376 349 376 q 348 374 348 376 q 350 359 348 370 q 355 328 351 349 q 360 294 358 309 q 363 278 363 279 q 363 276 363 276 q 365 277 364 276 m 369 260 q 370 265 370 262 q 369 269 370 267 q 368 271 368 271 q 367 265 367 271 q 368 260 367 260 l 369 260 m 372 245 q 373 248 373 245 l 373 249 q 372 252 373 250 l 372 253 q 370 250 371 253 q 371 245 370 246 l 372 244 q 372 245 372 244 z "},"Y":{"ha":793,"x_min":0,"x_max":746,"o":"m 740 597 q 745 449 744 499 q 746 402 746 424 q 745 354 746 381 q 741 272 745 327 q 650 -65 731 50 q 529 -170 597 -147 q 488 -176 511 -176 q 434 -170 464 -176 q 321 -124 379 -157 q 292 -109 311 -118 q 256 -91 274 -99 q 160 3 182 -58 q 146 52 150 28 q 143 80 143 68 q 144 92 143 87 q 153 111 146 100 q 168 127 160 121 q 175 132 172 132 q 178 130 177 132 q 181 127 179 128 l 183 127 q 186 128 184 127 q 189 129 188 129 q 194 125 193 129 q 202 121 196 121 l 205 121 q 210 121 208 121 q 213 120 212 121 q 214 113 214 119 l 214 103 l 219 112 l 224 121 l 224 110 l 224 106 q 225 102 224 102 q 228 107 226 102 q 237 115 231 114 l 237 115 q 244 110 241 115 q 247 107 245 108 q 249 106 248 106 l 250 106 q 252 107 251 107 q 271 89 259 107 q 294 36 282 70 q 314 -7 300 18 q 338 -45 327 -31 q 345 -51 342 -51 l 346 -51 q 355 -47 349 -51 q 397 -4 375 -37 q 434 68 420 28 q 469 251 465 147 q 470 291 469 273 q 472 315 471 309 q 473 339 473 321 q 474 375 474 357 q 474 398 474 393 q 470 394 473 398 q 460 382 466 391 q 404 338 435 347 q 373 333 389 333 q 332 338 358 333 q 291 352 315 342 q 218 387 268 361 q 154 420 182 405 q 117 441 125 436 q 3 779 25 519 q 0 849 1 810 l 0 874 q 1 926 0 899 q 3 962 1 952 q 10 976 5 968 q 22 989 15 983 q 40 1002 35 1002 q 43 998 43 1002 q 45 992 43 992 q 52 996 48 992 q 56 998 54 998 l 58 998 q 64 994 60 998 q 69 990 67 991 l 71 990 q 71 991 71 990 q 72 991 71 991 l 73 991 q 76 987 74 990 q 81 983 79 983 q 83 985 83 983 q 87 987 85 987 q 89 987 87 987 q 93 984 91 987 q 96 979 96 982 q 97 975 96 975 q 102 979 98 975 q 107 981 105 981 q 109 979 109 981 q 112 977 110 977 q 117 979 113 977 q 123 981 120 981 q 126 980 124 981 q 134 976 128 980 q 142 971 138 973 q 149 968 146 969 q 166 955 156 967 q 186 925 177 943 q 215 845 203 895 q 246 677 227 795 q 298 439 281 463 q 301 439 299 439 q 324 452 308 439 q 359 488 340 465 q 420 594 387 524 q 479 736 454 665 q 486 770 484 751 q 492 827 489 789 q 517 1059 505 1033 q 524 1066 519 1063 q 535 1073 529 1070 q 545 1076 541 1076 l 546 1076 q 549 1074 549 1076 q 551 1072 549 1072 l 553 1072 q 557 1073 555 1072 q 561 1074 559 1074 q 571 1067 567 1074 q 575 1063 573 1064 q 577 1062 576 1062 q 578 1063 578 1062 l 579 1063 q 582 1062 580 1063 q 586 1058 584 1061 q 591 1054 589 1054 q 591 1055 591 1054 q 594 1059 591 1059 q 597 1060 595 1060 q 600 1059 598 1060 q 604 1055 602 1058 q 605 1048 604 1052 q 606 1041 606 1044 q 606 1037 606 1037 q 612 1046 608 1037 l 617 1058 l 621 1048 q 625 1040 625 1040 q 628 1045 627 1040 q 639 1053 631 1053 q 652 1046 647 1053 q 660 1041 655 1041 l 664 1041 q 675 1036 668 1041 q 689 1021 682 1030 q 699 1003 696 1012 q 740 597 726 899 m 61 944 q 62 935 61 935 q 62 936 62 935 q 63 943 63 939 q 63 950 64 947 l 62 952 q 61 944 62 952 m 66 618 l 66 620 q 64 635 66 623 q 58 669 62 648 q 40 890 43 756 q 37 950 39 935 q 35 960 37 960 q 34 958 35 960 q 33 933 33 952 q 34 889 33 921 q 38 803 35 857 q 46 718 41 750 q 54 670 50 693 q 61 633 58 648 q 66 618 64 618 m 170 68 q 170 79 170 73 q 170 92 170 86 l 169 94 q 168 79 168 94 q 169 66 168 66 l 170 68 m 518 264 q 524 373 522 319 q 526 463 526 427 q 524 496 526 496 q 521 476 523 494 q 519 434 519 458 q 505 206 513 282 q 486 93 498 130 q 485 89 485 90 q 486 87 485 87 q 489 93 487 87 q 495 110 492 100 q 510 174 505 140 q 518 264 515 208 m 536 966 q 538 971 538 968 q 536 975 538 973 l 536 976 q 535 971 535 976 q 536 966 535 966 l 536 966 m 540 141 q 541 144 541 142 q 541 148 541 146 q 539 149 540 149 q 538 146 538 149 l 538 142 l 539 141 l 540 141 m 541 993 q 541 1003 541 998 q 541 1013 541 1008 l 540 1015 q 539 1003 539 1015 q 540 991 539 991 l 541 993 m 544 163 q 545 169 545 165 q 544 175 545 172 l 543 176 q 543 169 543 176 q 543 161 543 161 l 544 163 m 547 189 q 548 198 548 193 q 548 207 548 203 l 547 210 q 546 199 547 210 q 547 188 546 188 l 547 189 m 559 368 q 562 449 561 404 q 562 527 562 494 q 562 574 562 574 q 559 482 561 574 q 556 381 558 431 q 553 306 554 332 q 550 261 551 281 q 549 233 549 241 q 550 229 549 229 q 553 262 551 229 q 559 368 555 296 m 601 209 q 602 212 602 210 q 601 216 602 214 l 600 217 q 599 214 600 217 q 600 210 599 211 q 600 209 600 209 l 601 209 m 604 260 q 605 265 605 262 l 606 269 l 605 271 q 604 273 604 273 q 603 267 603 273 q 604 260 603 260 q 604 260 604 260 m 608 328 q 609 333 609 330 q 608 339 609 336 l 608 340 q 606 334 607 340 q 608 328 606 328 l 608 328 m 633 850 q 632 833 632 850 l 632 817 q 633 815 632 815 l 633 819 q 634 832 634 824 q 633 847 634 840 l 633 850 m 627 172 q 637 320 634 235 q 638 450 638 371 q 637 570 638 504 l 636 723 l 634 493 q 630 272 633 344 q 621 155 627 201 q 621 141 621 146 l 621 138 q 621 137 621 137 q 624 148 622 138 q 627 172 625 158 z "},"Z":{"ha":923,"x_min":0,"x_max":923,"o":"m 865 17 q 898 3 882 16 q 914 -20 914 -9 q 910 -33 914 -24 q 900 -51 906 -42 q 811 -134 860 -113 q 732 -150 778 -150 q 688 -146 711 -150 q 635 -139 656 -143 q 589 -126 614 -134 q 506 -95 557 -116 q 418 -56 454 -73 q 387 -40 401 -47 q 370 -33 373 -34 q 368 -33 369 -33 q 356 -38 363 -33 q 332 -60 349 -43 q 283 -102 306 -86 q 231 -130 260 -118 q 203 -141 214 -138 q 174 -143 192 -143 q 148 -140 159 -143 q 118 -129 136 -138 q 66 -100 100 -119 q 43 -89 54 -94 q 28 -83 33 -84 q 8 -71 16 -79 q 0 -52 0 -62 q 41 12 3 -20 q 135 58 79 43 q 157 65 147 62 q 169 69 166 68 q 203 116 176 74 q 263 214 230 157 q 322 320 296 271 q 364 400 347 368 q 401 468 380 431 q 458 570 422 505 q 487 620 471 593 q 512 667 502 648 q 556 742 524 686 q 629 863 589 798 q 695 973 668 928 q 722 1019 722 1018 q 719 1020 722 1020 q 713 1021 716 1021 q 663 1028 704 1021 q 565 1048 622 1036 q 520 1057 536 1054 q 490 1059 504 1059 q 474 1060 483 1060 q 454 1059 465 1060 q 292 1010 340 1055 q 278 994 284 1003 q 268 979 271 985 q 255 964 261 964 q 244 967 252 964 q 228 975 237 970 q 214 984 218 981 q 207 991 209 987 q 205 1000 205 994 l 205 1003 q 221 1043 205 1021 q 264 1080 237 1064 q 366 1112 303 1101 q 404 1115 384 1115 q 444 1113 418 1115 q 543 1095 469 1110 q 613 1082 589 1085 q 668 1080 636 1080 q 740 1086 713 1080 q 789 1110 767 1093 q 808 1122 804 1122 q 810 1120 810 1122 q 814 1118 812 1118 l 817 1118 q 820 1119 819 1119 q 824 1118 821 1119 q 830 1114 827 1117 q 839 1109 834 1111 q 844 1109 842 1109 l 846 1109 l 850 1109 q 853 1107 853 1109 q 857 1104 853 1104 q 861 1105 858 1104 q 865 1105 863 1105 q 867 1103 867 1105 q 869 1101 867 1102 l 875 1101 q 879 1102 877 1102 q 898 1096 886 1102 q 918 1080 910 1090 q 923 1070 922 1076 l 923 1068 q 920 1053 923 1063 q 908 1023 917 1044 q 883 966 899 1002 q 755 691 819 824 q 603 380 691 557 q 499 179 535 245 q 429 62 464 114 q 407 28 416 42 q 398 14 398 14 q 418 3 400 12 q 459 -16 435 -5 q 505 -36 484 -26 q 536 -48 526 -45 q 626 -65 582 -65 q 654 -63 640 -65 q 708 -46 684 -59 q 766 1 731 -33 q 787 21 780 15 q 800 28 795 26 q 812 30 804 30 q 824 29 819 30 q 830 26 829 28 q 834 23 831 24 q 840 22 837 22 q 847 22 844 22 q 851 20 850 21 q 856 18 852 19 q 865 17 860 17 z "},"[":{"ha":518,"x_min":20,"x_max":498,"o":"m 492 -58 q 497 -64 496 -62 q 498 -67 498 -66 q 497 -70 498 -68 q 493 -76 496 -72 q 465 -85 488 -83 q 435 -90 456 -87 q 393 -98 415 -94 q 203 -121 268 -121 q 163 -117 179 -121 q 148 -112 158 -116 q 130 -103 138 -108 q 107 -91 120 -98 q 83 -79 94 -84 q 63 -69 73 -74 q 50 -62 54 -64 q 42 -56 46 -60 q 35 -45 37 -51 q 32 -36 33 -43 q 30 -14 31 -29 q 28 30 29 1 q 27 104 28 58 q 26 220 26 151 q 24 458 25 330 q 21 676 22 587 q 20 840 20 771 q 21 971 20 908 q 29 1047 22 1035 q 73 1089 41 1078 q 168 1100 102 1100 l 176 1100 q 373 1086 298 1100 q 438 1057 438 1074 q 437 1051 438 1054 q 403 1040 433 1044 q 304 1036 373 1037 q 214 1033 242 1036 q 172 1023 186 1030 q 165 1017 167 1021 q 163 1001 163 1013 q 165 972 163 993 q 169 929 166 952 q 184 650 178 831 q 193 290 191 469 q 193 181 193 231 q 191 21 193 81 l 187 -39 l 207 -39 q 226 -38 215 -39 q 244 -35 237 -37 q 273 -31 252 -34 q 317 -26 293 -28 q 377 -22 354 -22 q 411 -27 404 -22 q 420 -31 412 -28 q 438 -35 428 -33 q 492 -58 479 -42 m 47 1030 q 47 1022 47 1030 q 47 1013 47 1013 q 48 1014 48 1013 q 49 1021 49 1017 q 48 1028 49 1025 l 47 1030 m 48 955 q 49 966 49 960 q 48 979 49 973 l 47 981 q 47 966 47 981 q 47 953 47 953 l 48 955 m 56 83 q 57 203 57 132 q 56 334 57 274 q 53 500 54 395 q 50 706 51 606 q 46 871 48 805 q 44 941 45 938 q 43 908 43 940 q 44 845 43 892 q 46 694 44 798 q 50 485 47 589 q 52 326 51 420 q 54 153 54 233 q 54 14 54 26 l 54 13 q 56 83 55 13 m 70 761 q 71 774 71 767 q 70 787 71 781 l 69 791 q 68 788 68 791 q 68 774 68 785 l 68 760 q 69 758 68 758 l 70 761 m 73 531 q 74 543 74 536 q 73 554 74 549 l 73 556 q 72 543 72 556 q 73 529 72 529 l 73 531 m 76 410 q 75 400 75 410 q 76 391 75 391 l 77 392 q 77 400 77 395 q 77 408 77 404 l 76 410 m 77 28 q 77 40 77 34 q 77 52 77 46 l 76 54 q 75 40 75 54 q 76 26 75 26 l 77 28 m 81 185 l 81 230 l 80 235 q 79 230 79 235 q 79 208 79 226 l 79 182 q 80 180 79 180 l 81 185 m 116 752 q 117 757 117 754 q 116 762 117 760 l 115 764 q 114 758 115 764 q 115 751 114 751 l 116 752 m 123 -24 q 124 -9 124 -18 q 123 5 124 -1 l 123 8 q 122 -8 122 8 q 123 -26 122 -26 l 123 -24 m 127 80 q 127 90 127 84 q 127 101 127 96 l 126 104 q 125 92 125 104 q 126 78 125 78 l 127 80 z "},"\\":{"ha":549,"x_min":20,"x_max":529,"o":"m 524 -80 q 528 -96 528 -90 q 529 -100 529 -98 q 528 -105 529 -102 q 525 -111 528 -108 q 517 -119 521 -118 q 513 -120 515 -120 q 505 -118 509 -120 q 471 -103 494 -114 q 429 -80 449 -92 q 406 -64 410 -68 q 386 -24 401 -56 q 355 47 372 8 q 327 117 338 87 q 299 196 317 142 q 263 308 281 250 q 223 431 245 365 q 185 541 201 497 q 153 634 170 584 q 125 718 136 684 q 100 796 115 751 q 73 878 85 842 q 22 1067 29 1008 q 20 1081 20 1076 q 22 1087 20 1085 q 26 1091 23 1090 q 33 1093 31 1093 q 34 1092 34 1093 q 36 1090 34 1090 l 37 1090 q 39 1090 38 1090 l 42 1091 q 45 1091 43 1091 q 50 1088 47 1090 q 57 1085 52 1087 q 70 1082 63 1084 q 108 1065 95 1080 q 138 1006 121 1050 q 157 957 144 989 q 182 892 170 925 q 229 771 205 835 q 266 665 252 707 q 285 611 270 654 q 320 516 300 569 q 367 386 340 461 q 413 250 393 311 q 454 126 433 190 q 489 26 476 62 q 511 -40 501 -10 q 524 -80 522 -70 z "},"]":{"ha":518,"x_min":20,"x_max":498,"o":"m 488 1047 q 497 950 495 1035 q 498 865 498 916 q 496 676 498 789 q 494 458 496 587 q 492 220 493 330 q 490 104 491 151 q 489 30 490 58 q 488 -14 489 1 q 486 -36 487 -29 q 483 -45 485 -43 q 476 -56 480 -51 q 468 -62 472 -60 q 455 -69 464 -64 q 435 -79 446 -74 q 410 -92 424 -84 q 385 -104 395 -99 q 366 -114 374 -111 q 348 -118 359 -117 q 317 -119 338 -119 q 279 -119 298 -119 q 249 -117 260 -118 q 183 -107 208 -111 q 124 -98 158 -104 q 83 -90 103 -94 q 52 -85 62 -87 q 24 -76 30 -83 q 20 -69 22 -72 l 20 -67 q 21 -64 20 -66 q 26 -58 22 -62 q 80 -35 39 -42 q 97 -31 90 -33 q 107 -27 105 -28 q 141 -22 115 -22 q 201 -26 163 -22 q 245 -31 224 -28 q 274 -35 266 -34 q 292 -38 281 -37 q 311 -39 302 -39 l 330 -39 l 328 21 q 324 191 324 85 q 326 353 324 237 q 334 650 328 469 q 349 929 340 831 q 353 972 351 952 q 354 1001 354 993 l 354 1006 q 353 1017 354 1014 q 345 1023 351 1021 q 303 1033 332 1030 q 214 1036 275 1036 q 115 1040 145 1037 q 81 1051 85 1044 q 79 1057 79 1054 q 150 1087 79 1074 q 342 1100 220 1100 q 454 1086 427 1100 q 473 1070 464 1081 q 488 1047 483 1059 m 393 80 q 393 90 393 84 q 393 101 393 96 l 392 104 q 391 92 391 104 q 392 78 391 78 l 393 80 m 396 -24 q 397 -9 397 -18 q 396 5 397 -1 l 395 8 q 395 -8 395 8 q 395 -26 395 -26 l 396 -24 m 403 752 q 404 757 404 754 l 404 760 l 404 762 q 402 764 403 764 q 401 758 401 764 q 402 751 401 751 l 403 752 m 439 185 q 439 208 439 195 q 439 230 439 220 l 439 235 q 438 230 438 235 q 437 208 437 226 q 438 182 437 189 q 439 180 438 180 l 439 185 m 441 410 q 441 400 441 410 q 441 391 441 391 l 442 392 q 443 400 443 395 q 442 408 443 404 l 441 410 m 442 28 q 443 40 443 34 q 442 52 443 46 l 441 54 q 441 40 441 54 q 441 26 441 26 l 442 28 m 446 531 q 447 543 447 536 q 446 554 447 549 l 446 556 q 445 543 445 556 q 446 529 445 529 l 446 531 m 450 761 q 450 774 450 767 q 450 787 450 781 l 449 791 l 449 788 q 448 774 448 785 q 449 760 448 763 l 449 758 l 450 761 m 470 1030 q 469 1022 469 1030 q 470 1013 469 1013 q 471 1014 471 1013 q 471 1021 471 1017 q 471 1028 471 1025 l 470 1030 m 471 955 l 471 979 l 471 981 q 469 966 469 981 q 471 953 469 953 l 471 955 m 471 699 q 474 869 473 801 q 475 922 475 904 q 474 941 475 939 q 469 744 473 937 q 460 224 465 551 q 460 164 460 205 q 461 77 460 123 q 463 28 462 28 q 465 214 463 28 q 468 458 466 321 q 471 699 470 595 z "},"^":{"ha":371,"x_min":20,"x_max":351,"o":"m 337 841 q 351 759 351 785 q 347 741 351 746 q 339 732 345 734 l 336 732 q 321 735 330 732 q 309 739 316 736 q 296 745 302 742 q 281 754 290 749 q 264 763 272 759 q 251 771 257 766 q 244 779 245 776 q 241 784 242 784 q 241 781 241 784 q 237 774 241 774 q 229 779 234 774 q 191 943 218 790 q 184 976 187 962 q 180 993 181 989 q 179 994 180 994 q 117 863 170 994 q 96 810 104 830 q 83 782 88 791 q 76 770 79 772 q 69 767 73 767 q 52 773 64 767 q 31 786 39 779 q 26 789 28 788 q 25 789 26 789 q 24 789 24 789 l 23 789 q 22 792 22 789 q 20 800 21 795 q 36 866 20 814 q 72 974 52 917 q 107 1061 93 1030 q 146 1112 130 1103 q 158 1115 152 1115 q 166 1114 160 1115 q 178 1109 172 1114 q 186 1106 180 1107 q 200 1103 193 1105 q 253 1076 235 1099 q 295 983 271 1050 q 337 841 319 916 z "},"_":{"ha":629,"x_min":20,"x_max":608,"o":"m 602 -127 q 608 -135 606 -132 q 608 -138 608 -136 q 608 -141 608 -139 q 604 -147 607 -143 l 598 -156 l 359 -156 q 186 -155 258 -155 q 106 -153 115 -154 q 81 -142 100 -151 q 43 -123 62 -133 q 21 -110 25 -114 q 20 -109 20 -109 q 21 -106 20 -108 q 26 -100 22 -104 q 30 -98 27 -99 q 40 -96 33 -97 q 61 -94 47 -95 q 97 -93 75 -94 q 153 -92 119 -93 q 235 -91 187 -92 q 401 -90 342 -90 l 437 -90 q 490 -91 469 -90 q 515 -94 511 -92 q 538 -103 526 -100 q 561 -106 551 -106 q 571 -108 566 -106 q 578 -112 576 -109 q 583 -116 580 -114 q 588 -117 585 -117 q 595 -120 591 -117 q 602 -127 599 -123 z "},"`":{"ha":246,"x_min":20,"x_max":226,"o":"m 208 740 q 226 720 226 731 q 224 713 226 717 q 220 708 222 710 q 216 707 218 707 q 211 708 214 707 q 198 711 208 708 q 175 720 192 712 q 139 736 159 727 q 73 779 96 758 q 36 827 50 799 q 20 882 20 860 q 28 906 20 897 q 35 912 33 912 q 37 910 37 912 q 40 907 39 907 q 44 909 42 907 q 48 911 47 911 q 51 910 50 911 q 55 907 52 908 q 60 906 58 906 q 66 904 63 906 q 71 900 69 903 q 74 897 73 897 q 75 897 75 897 q 81 902 75 902 q 87 901 83 902 q 101 895 92 901 q 115 882 111 889 q 122 865 117 878 q 133 838 127 853 q 144 810 138 824 q 155 790 151 797 q 178 762 163 777 q 208 740 194 747 z "},"a":{"ha":749,"x_min":0,"x_max":830,"o":"m 829 169 q 830 155 830 163 q 805 30 830 106 q 733 -98 780 -53 q 671 -139 694 -139 l 669 -139 q 657 -137 666 -139 q 638 -134 648 -136 q 585 -113 621 -130 q 513 -76 548 -96 q 466 -47 477 -57 q 453 -33 460 -41 q 443 -18 447 -25 q 435 -6 437 -8 l 433 -5 q 430 -9 431 -5 q 384 -72 409 -44 q 336 -111 358 -100 q 295 -119 319 -119 q 246 -113 273 -119 q 181 -86 227 -107 q 94 -42 136 -64 q 41 -9 52 -19 q 0 117 0 29 l 0 123 q 29 284 1 205 q 100 409 57 363 q 219 463 153 463 q 281 452 248 463 q 307 445 295 448 q 323 442 319 442 q 356 431 334 442 q 393 406 379 419 l 410 392 l 418 418 q 427 440 422 429 q 436 458 432 452 q 447 472 441 466 q 459 480 454 478 q 463 481 461 481 q 466 479 465 481 q 473 476 467 476 l 478 476 q 484 477 482 477 q 488 475 488 477 q 490 473 488 473 l 494 473 l 496 473 q 498 473 497 473 q 499 471 499 472 q 500 468 499 469 l 505 468 l 507 469 q 510 468 508 469 q 514 465 512 467 q 519 463 516 464 l 524 463 q 528 456 528 463 l 528 448 l 533 455 q 544 463 538 463 q 553 458 549 463 q 558 454 555 456 q 564 452 561 452 q 579 441 570 452 q 591 418 588 429 q 591 401 591 414 q 591 355 591 389 q 589 260 591 322 q 587 145 587 192 q 588 79 587 117 q 597 5 589 42 q 606 -28 602 -19 q 612 -34 609 -34 q 614 -33 613 -34 q 679 37 648 -13 q 728 149 710 87 q 745 197 734 174 q 760 225 755 220 q 764 225 762 226 q 767 223 766 225 q 770 221 769 221 l 770 223 q 772 225 770 225 q 781 222 774 225 q 792 218 786 220 q 802 216 798 216 q 822 205 817 216 q 829 169 828 195 m 41 106 q 48 188 42 143 q 64 267 55 232 q 69 286 68 278 q 71 294 71 294 q 65 282 69 294 q 56 250 61 269 q 46 211 51 231 q 40 170 43 193 q 35 125 37 146 q 34 107 34 115 q 35 95 34 100 q 38 71 37 80 q 40 60 40 61 q 41 74 41 61 q 41 106 41 87 m 71 86 q 71 100 71 92 q 71 115 71 108 l 70 118 q 69 102 69 118 q 70 83 69 83 l 71 86 m 74 140 q 75 146 75 142 q 74 154 75 151 l 73 156 q 73 148 73 156 q 73 139 73 139 q 74 140 74 139 m 77 170 q 78 174 78 172 q 77 179 78 177 l 77 180 q 75 174 75 180 q 77 170 75 170 l 77 170 m 81 190 q 81 193 81 191 q 81 197 81 195 l 80 198 q 79 195 79 198 q 79 191 79 191 l 80 190 l 81 190 m 138 60 q 139 71 139 65 q 138 83 139 77 l 138 85 q 137 71 137 85 q 138 58 137 58 l 138 60 m 142 102 q 142 111 142 106 q 142 119 142 115 l 141 120 q 140 111 140 120 q 141 101 140 101 l 142 102 m 145 133 q 146 139 146 136 q 145 145 146 142 l 144 146 q 144 139 144 146 q 144 132 144 132 l 145 133 m 149 156 q 149 161 149 158 q 149 166 149 163 l 148 168 q 147 162 147 168 q 148 155 147 155 l 149 156 m 152 181 q 153 185 153 183 q 152 190 153 188 l 151 191 q 151 185 151 191 q 151 180 151 180 l 152 181 m 382 194 l 393 222 l 385 251 q 369 304 378 282 q 345 348 360 326 q 332 367 338 359 q 326 374 326 374 q 312 367 322 374 q 294 352 302 360 q 262 290 273 332 q 240 155 250 247 q 230 38 233 83 q 229 7 229 18 q 231 -7 229 -7 q 237 -4 232 -7 q 248 3 242 -1 q 330 97 286 32 q 361 149 351 131 q 382 194 371 168 m 513 179 l 513 214 l 512 219 q 511 198 511 219 q 512 176 511 176 l 513 179 m 516 281 q 517 289 517 284 q 516 298 517 294 l 515 301 q 515 290 515 301 q 515 279 515 279 l 516 281 m 519 327 q 520 332 520 329 q 519 338 520 335 l 519 339 q 517 333 518 339 q 519 326 517 326 l 519 327 m 523 359 q 524 363 524 361 q 523 368 524 366 l 522 369 q 521 363 521 369 q 522 358 521 358 l 523 359 m 526 391 q 527 395 527 393 q 526 400 527 398 l 526 401 q 525 395 525 401 q 526 390 525 390 l 526 391 z "}}}
